<?xml version="1.0" encoding="UTF-8"?>
<svg width="32px" height="32px" viewBox="0 0 32 32" version="1.1" xmlns="http://www.w3.org/2000/svg" xmlns:xlink="http://www.w3.org/1999/xlink">
    <!-- Generator: Sketch 64 (93537) - https://sketch.com -->
    <title>Icon/LinkedIn</title>
    <desc>Created with Sketch.</desc>
    <g id="Icon/LinkedIn" stroke="none" stroke-width="1" fill="none" fill-rule="evenodd">
        <g id="001-linkedin" fill="#000000" fill-rule="nonzero">
            <path d="M29.6921387,0 L2.30786131,0 C1.03320312,0 0,1.03320313 0,2.30786131 L0,29.6921387 C0,30.9667969 1.03320312,32 2.30786131,32 L29.6921387,32 C30.9667969,32 32,30.9667969 32,29.6921387 L32,2.30786131 C32,1.03320312 30.9667969,0 29.6921387,0 Z M11.3505859,24.1875 L7.45385744,24.1875 L7.45385744,12.4641113 L11.3505859,12.4641113 L11.3505859,24.1875 Z M9.40234375,10.8632812 L9.37695312,10.8632812 C8.06933594,10.8632812 7.22363281,9.96313475 7.22363281,8.83813475 C7.22363281,7.68774413 8.09521487,6.8125 9.42822263,6.8125 C10.7612305,6.8125 11.581543,7.68774413 11.6069336,8.83813475 C11.6069336,9.96313475 10.7612305,10.8632812 9.40234375,10.8632812 Z M25.4013672,24.1875 L21.5051269,24.1875 L21.5051269,17.9157715 C21.5051269,16.3395996 20.940918,15.2646484 19.5310059,15.2646484 C18.4545899,15.2646484 17.8134766,15.9897461 17.5317382,16.6896972 C17.4287109,16.9401856 17.4035644,17.2902832 17.4035644,17.640625 L17.4035644,24.1875 L13.5070801,24.1875 C13.5070801,24.1875 13.5581055,13.5639649 13.5070801,12.4641113 L17.4035644,12.4641113 L17.4035644,14.1240234 C17.9213868,13.3251953 18.8479004,12.1889649 20.9152832,12.1889649 C23.4790039,12.1889649 25.4013672,13.8645019 25.4013672,17.465332 L25.4013672,24.1875 Z" id="Shape"></path>
        </g>
    </g>
</svg>