<?xml version="1.0" encoding="UTF-8"?>
<svg width="32px" height="32px" viewBox="0 0 32 32" version="1.1" xmlns="http://www.w3.org/2000/svg" xmlns:xlink="http://www.w3.org/1999/xlink">
    <!-- Generator: Sketch 64 (93537) - https://sketch.com -->
    <title>Icon/Pinterest</title>
    <desc>Created with Sketch.</desc>
    <g id="Icon/Pinterest" stroke="none" stroke-width="1" fill="none" fill-rule="evenodd">
        <path d="M29.6921387,0 L2.30786131,0 C1.03320313,0 3.69482223e-13,1.03320313 3.69482223e-13,2.30786131 L3.69482223e-13,29.6921387 C3.69482223e-13,30.9667969 1.03320313,32 2.30786131,32 L29.6921387,32 C30.9667969,32 32,30.9667969 32,29.6921387 L32,2.30786131 C32,1.03320312 30.9667969,0 29.6921387,0 Z M17.6,20.4444444 C16.3301587,20.4444444 15.1111111,19.784127 14.7047619,19.0222222 C14.7047619,19.0222222 14.0190476,21.6634921 13.8666667,22.1714286 C13.3587302,23.9746032 11.8349206,25.7777778 11.7333333,25.9301587 C11.6571429,26.031746 11.4793651,26.0063492 11.4539683,25.8539683 C11.4285714,25.6253968 11.047619,23.3396825 11.4793651,21.4857143 C11.7079365,20.5460317 13.0031746,15.2380952 13.0031746,15.2380952 C13.0031746,15.2380952 12.6222222,14.5015873 12.6222222,13.4349206 C12.6222222,11.7333333 13.6380952,10.4634921 14.9079365,10.4634921 C15.9746032,10.4634921 16.5079365,11.2507937 16.5079365,12.1904762 C16.5079365,13.231746 15.8222222,14.8063492 15.4666667,16.2539683 C15.1619048,17.4730159 16.1015873,18.4634921 17.3460317,18.4634921 C19.5809524,18.4634921 21.1047619,15.6698413 21.1047619,12.368254 C21.1047619,9.85396825 19.352381,7.97460317 16.1777778,7.97460317 C12.5968254,7.97460317 10.3365079,10.5650794 10.3365079,13.4603175 C10.3365079,14.4507937 10.6412698,15.1619048 11.1238095,15.7206349 C11.352381,15.9746032 11.3777778,16.0761905 11.3015873,16.3555556 C11.2507937,16.5587302 11.1238095,17.0666667 11.047619,17.2698413 C10.9714286,17.5492063 10.7174603,17.6761905 10.4634921,17.5492063 C8.81269841,16.8888889 8.05079365,15.1365079 8.05079365,13.1555556 C8.05079365,9.9047619 10.8952381,5.99365079 16.5079365,5.99365079 C21.0285714,5.99365079 24,9.16825397 24,12.5714286 C23.9746032,17.0920635 21.4095238,20.4444444 17.6,20.4444444 Z" id="Path-2" fill="#000000"></path>
    </g>
</svg>