<?xml version="1.0" encoding="utf-8"?>
<!-- Generator: Adobe Illustrator 18.1.1, SVG Export Plug-In . SVG Version: 6.00 Build 0)  -->
<!DOCTYPE svg PUBLIC "-//W3C//DTD SVG 1.1//EN" "http://www.w3.org/Graphics/SVG/1.1/DTD/svg11.dtd">
<svg version="1.1" id="Layer_1" xmlns="http://www.w3.org/2000/svg" xmlns:xlink="http://www.w3.org/1999/xlink" x="0px" y="0px"
	 viewBox="0 0 72 72" enable-background="new 0 0 72 72" xml:space="preserve">
<g>
	<path fill="#333333" d="M35.7,4.4c17.5,0,31.7,14.2,31.7,31.7S53.2,67.8,35.7,67.8S4,53.6,4,36.1S18.2,4.4,35.7,4.4 M35.7,0.4
		C16,0.4,0,16.4,0,36.1s16,35.7,35.7,35.7s35.7-16,35.7-35.7S55.4,0.4,35.7,0.4L35.7,0.4z"/>
</g>
<polygon fill="none" stroke="#333333" stroke-width="4" stroke-miterlimit="10" points="53.8,54.4 35.7,54.4 17.6,54.4 35.7,24.6 
	"/>
<polygon fill="none" stroke="#333333" stroke-width="4" stroke-miterlimit="10" points="17.6,18.4 35.7,18.4 53.8,18.4 35.7,48.2 
	"/>
</svg>
