<?xml version="1.0" encoding="UTF-8" standalone="no"?>
<svg width="278px" height="51px" viewBox="0 0 278 51" version="1.1" xmlns="http://www.w3.org/2000/svg" xmlns:xlink="http://www.w3.org/1999/xlink" xmlns:sketch="http://www.bohemiancoding.com/sketch/ns">
    <!-- Generator: Sketch 3.3.3 (12081) - http://www.bohemiancoding.com/sketch -->
    <title>Logo</title>
    <desc>Created with Sketch.</desc>
    <defs></defs>
    <g id="Welcome" stroke="none" stroke-width="1" fill="none" fill-rule="evenodd" sketch:type="MSPage">
        <g id="Desktop-HD" sketch:type="MSArtboardGroup" transform="translate(-130.000000, -67.000000)">
            <g id="Header" sketch:type="MSLayerGroup">
                <g id="Logo" transform="translate(130.000000, 67.000000)" sketch:type="MSShapeGroup">
                    <path d="M25.2875,0 C11.3333333,0 0,11.3333333 0,25.2875 C0,39.2416667 11.3333333,50.575 25.2875,50.575 C39.2416667,50.575 50.575,39.2416667 50.575,25.2875 C50.575,11.3333333 39.2416667,0 25.2875,0 L25.2875,0 Z M25.2875,47.7416667 C12.8916667,47.7416667 2.83333333,37.6833333 2.83333333,25.2875 C2.83333333,12.8916667 12.8916667,2.83333333 25.2875,2.83333333 C37.6833333,2.83333333 47.7416667,12.8916667 47.7416667,25.2875 C47.7416667,37.6833333 37.6833333,47.7416667 25.2875,47.7416667 L25.2875,47.7416667 Z M9.94854167,10.7666667 L18.7687083,25.2875 L9.94854167,39.8083333 L40.62575,39.8083333 L31.8062917,25.2875 L40.62575,10.7666667 L9.94854167,10.7666667 L9.94854167,10.7666667 Z M35.5902083,36.975 L14.9847917,36.975 L20.4262083,28.0167083 L25.2875,36.0201667 L30.1487917,28.0167083 L35.5902083,36.975 L35.5902083,36.975 Z M22.0837083,25.2875 L25.2875,20.0125417 L28.4912917,25.2875 L25.2875,30.5624583 L22.0837083,25.2875 L22.0837083,25.2875 Z M25.2875,14.5548333 L20.4262083,22.5582917 L14.9847917,13.6 L35.5902083,13.6 L30.1487917,22.5582917 L25.2875,14.5548333 L25.2875,14.5548333 Z" id="Imported-Layers" fill="#211E1E"></path>
                    <path d="M67.928,20.108 C67.4439976,20.4160015 67.202,20.8816635 67.202,21.505 C67.202,22.1283364 67.4439976,22.6049983 67.928,22.935 C68.4120024,23.2650016 69.4423255,23.6206648 71.019,24.002 C72.5956746,24.3833352 73.7836627,24.9186632 74.583,25.608 C75.3823373,26.2973368 75.782,27.3129933 75.782,28.655 C75.782,29.9970067 75.2760051,31.0859958 74.264,31.922 C73.2519949,32.7580042 71.9246749,33.176 70.282,33.176 C67.8766546,33.176 65.742676,32.3473416 63.88,30.69 L65.508,28.732 C67.0626744,30.0813401 68.6759916,30.756 70.348,30.756 C71.1840042,30.756 71.8476642,30.5763351 72.339,30.217 C72.8303358,29.8576649 73.076,29.381003 73.076,28.787 C73.076,28.192997 72.8450023,27.7310016 72.383,27.401 C71.9209977,27.0709983 71.125339,26.7703347 69.996,26.499 C68.866661,26.2276653 68.0086696,25.9783345 67.422,25.751 C66.8353304,25.5236655 66.3146689,25.2266685 65.86,24.86 C64.9506621,24.1706632 64.496,23.1146738 64.496,21.692 C64.496,20.2693262 65.0129948,19.1730038 66.047,18.403 C67.0810052,17.6329961 68.360659,17.248 69.886,17.248 C70.8686716,17.248 71.8439952,17.4093317 72.812,17.732 C73.7800048,18.0546683 74.6159965,18.5093304 75.32,19.096 L73.934,21.054 C73.4793311,20.6433313 72.8633372,20.3060013 72.086,20.042 C71.3086628,19.7779987 70.5423371,19.646 69.787,19.646 C69.0316629,19.646 68.4120024,19.7999985 67.928,20.108 L67.928,20.108 Z M86.6353337,19.998 L86.6353337,33 L84.0393337,33 L84.0393337,19.998 L79.3753337,19.998 L79.3753337,17.622 L91.2993337,17.622 L91.2993337,19.998 L86.6353337,19.998 Z M106.750667,17.622 L106.750667,20.064 L98.5446675,20.064 L98.5446675,24.134 L105.914667,24.134 L105.914667,26.444 L98.5446675,26.444 L98.5446675,30.558 L107.014667,30.558 L107.014667,33 L95.9486675,33 L95.9486675,17.622 L106.750667,17.622 Z M122.554001,18.964 C123.624673,19.8586711 124.160001,21.237324 124.160001,23.1 C124.160001,24.962676 123.613673,26.3266623 122.521001,27.192 C121.428329,28.0573377 119.752679,28.49 117.494001,28.49 L114.766001,28.49 L114.766001,33 L112.170001,33 L112.170001,17.622 L117.450001,17.622 C119.782013,17.622 121.483329,18.0693289 122.554001,18.964 L122.554001,18.964 Z M120.717001,25.311 C121.23767,24.7609972 121.498001,23.9543386 121.498001,22.891 C121.498001,21.8276613 121.168004,21.0760022 120.508001,20.636 C119.847998,20.1959978 118.814008,19.976 117.406001,19.976 L114.766001,19.976 L114.766001,26.136 L117.780001,26.136 C119.217342,26.136 120.196332,25.8610027 120.717001,25.311 L120.717001,25.311 Z M129.051335,33 L129.051335,17.622 L131.647335,17.622 L131.647335,24.288 L139.281335,24.288 L139.281335,17.622 L141.877335,17.622 L141.877335,33 L139.281335,33 L139.281335,26.708 L131.647335,26.708 L131.647335,33 L129.051335,33 Z M158.780669,17.622 L158.780669,20.064 L150.574669,20.064 L150.574669,24.134 L157.944669,24.134 L157.944669,26.444 L150.574669,26.444 L150.574669,30.558 L159.044669,30.558 L159.044669,33 L147.978669,33 L147.978669,17.622 L158.780669,17.622 Z M175.728002,17.622 L178.324002,17.622 L178.324002,33 L175.508002,33 L166.796002,21.78 L166.796002,33 L164.200002,33 L164.200002,17.622 L166.796002,17.622 L175.728002,29.106 L175.728002,17.622 Z M192.28667,33 L192.28667,17.622 L194.88267,17.622 L194.88267,24.288 L202.51667,24.288 L202.51667,17.622 L205.11267,17.622 L205.11267,33 L202.51667,33 L202.51667,26.708 L194.88267,26.708 L194.88267,33 L192.28667,33 Z M222.016004,17.622 L222.016004,20.064 L213.810004,20.064 L213.810004,24.134 L221.180004,24.134 L221.180004,26.444 L213.810004,26.444 L213.810004,30.558 L222.280004,30.558 L222.280004,33 L211.214004,33 L211.214004,17.622 L222.016004,17.622 Z M239.711337,22.616 C239.711337,25.153346 238.604015,26.7519967 236.389337,27.412 L240.415337,33 L237.115337,33 L233.441337,27.83 L230.031337,27.83 L230.031337,33 L227.435337,33 L227.435337,17.622 L233.155337,17.622 C235.502016,17.622 237.181332,18.017996 238.193337,18.81 C239.205342,19.602004 239.711337,20.8706579 239.711337,22.616 L239.711337,22.616 Z M236.257337,24.794 C236.78534,24.3393311 237.049337,23.6096717 237.049337,22.605 C237.049337,21.6003283 236.778007,20.9110019 236.235337,20.537 C235.692668,20.1629981 234.724678,19.976 233.331337,19.976 L230.031337,19.976 L230.031337,25.476 L233.265337,25.476 C234.732011,25.476 235.729335,25.2486689 236.257337,24.794 L236.257337,24.794 Z M245.284671,17.622 L247.880671,17.622 L247.880671,25.124 L254.920671,17.622 L258.220671,17.622 L252.038671,24.354 L258.308671,33 L255.228671,33 L250.124671,26.268 L247.880671,28.688 L247.880671,33 L245.284671,33 L245.284671,17.622 Z M269.030005,19.624 C267.504664,19.624 266.217677,20.1666612 265.169005,21.252 C264.120333,22.3373388 263.596005,23.6536589 263.596005,25.201 C263.596005,26.7483411 264.120333,28.0646612 265.169005,29.15 C266.217677,30.2353388 267.504664,30.778 269.030005,30.778 C270.555346,30.778 271.842333,30.2353388 272.891005,29.15 C273.939677,28.0646612 274.464005,26.7483411 274.464005,25.201 C274.464005,23.6536589 273.939677,22.3373388 272.891005,21.252 C271.842333,20.1666612 270.555346,19.624 269.030005,19.624 L269.030005,19.624 Z M269.030005,33.154 C266.741993,33.154 264.820679,32.3950076 263.266005,30.877 C261.71133,29.3589924 260.934005,27.4670113 260.934005,25.201 C260.934005,22.9349887 261.71133,21.0430076 263.266005,19.525 C264.820679,18.0069924 266.741993,17.248 269.030005,17.248 C271.318016,17.248 273.23933,18.0069924 274.794005,19.525 C276.348679,21.0430076 277.126005,22.9349887 277.126005,25.201 C277.126005,27.4670113 276.348679,29.3589924 274.794005,30.877 C273.23933,32.3950076 271.318016,33.154 269.030005,33.154 L269.030005,33.154 Z" id="STEPHEN-HERKO" fill="#CBCBCB"></path>
                </g>
            </g>
        </g>
    </g>
</svg>