<?xml version="1.0" encoding="UTF-8" standalone="no"?>
<svg width="278px" height="51px" viewBox="0 0 278 51" version="1.1" xmlns="http://www.w3.org/2000/svg" xmlns:xlink="http://www.w3.org/1999/xlink" xmlns:sketch="http://www.bohemiancoding.com/sketch/ns">
    <!-- Generator: Sketch 3.3.3 (12081) - http://www.bohemiancoding.com/sketch -->
    <title>Logo</title>
    <desc>Created with Sketch.</desc>
    <defs></defs>
    <g id="Welcome" stroke="none" stroke-width="1" fill="none" fill-rule="evenodd" sketch:type="MSPage">
        <g id="Desktop-HD" sketch:type="MSArtboardGroup" transform="translate(-130.000000, -67.000000)">
            <g id="Header" sketch:type="MSLayerGroup">
                <g id="Logo" transform="translate(130.000000, 67.000000)">
                    <path d="M25.2875,0 C11.3333333,0 0,11.3333333 0,25.2875 C0,39.2416667 11.3333333,50.575 25.2875,50.575 C39.2416667,50.575 50.575,39.2416667 50.575,25.2875 C50.575,11.3333333 39.2416667,0 25.2875,0 L25.2875,0 Z M25.2875,47.7416667 C12.8916667,47.7416667 2.83333333,37.6833333 2.83333333,25.2875 C2.83333333,12.8916667 12.8916667,2.83333333 25.2875,2.83333333 C37.6833333,2.83333333 47.7416667,12.8916667 47.7416667,25.2875 C47.7416667,37.6833333 37.6833333,47.7416667 25.2875,47.7416667 L25.2875,47.7416667 Z M9.94854167,10.7666667 L18.7687083,25.2875 L9.94854167,39.8083333 L40.62575,39.8083333 L31.8062917,25.2875 L40.62575,10.7666667 L9.94854167,10.7666667 L9.94854167,10.7666667 Z M35.5902083,36.975 L14.9847917,36.975 L20.4262083,28.0167083 L25.2875,36.0201667 L30.1487917,28.0167083 L35.5902083,36.975 L35.5902083,36.975 Z M22.0837083,25.2875 L25.2875,20.0125417 L28.4912917,25.2875 L25.2875,30.5624583 L22.0837083,25.2875 L22.0837083,25.2875 Z M25.2875,14.5548333 L20.4262083,22.5582917 L14.9847917,13.6 L35.5902083,13.6 L30.1487917,22.5582917 L25.2875,14.5548333 L25.2875,14.5548333 Z" id="Imported-Layers" fill="#211E1E" sketch:type="MSShapeGroup"></path>
                    <text id="STEPHEN-HERKO" sketch:type="MSTextLayer" font-family="Montserrat" font-size="22" font-weight="normal" letter-spacing="1.83333373" fill="#CBCBCB">
                        <tspan x="63" y="33">STEPHEN HERK</tspan>
                        <tspan x="259.790005" y="33" letter-spacing="1.92063534">O</tspan>
                    </text>
                </g>
            </g>
        </g>
    </g>
</svg>