<?xml version="1.0" encoding="UTF-8" standalone="no"?>
<svg width="3px" height="5px" viewBox="0 0 3 5" version="1.1" xmlns="http://www.w3.org/2000/svg" xmlns:xlink="http://www.w3.org/1999/xlink" xmlns:sketch="http://www.bohemiancoding.com/sketch/ns">
    <!-- Generator: Sketch 3.3.3 (12081) - http://www.bohemiancoding.com/sketch -->
    <title>Shape</title>
    <desc>Created with Sketch.</desc>
    <defs></defs>
    <g id="Page-1" stroke="none" stroke-width="1" fill="none" fill-rule="evenodd" sketch:type="MSPage">
        <g id="blizzard" sketch:type="MSLayerGroup" transform="translate(-135.000000, -1.000000)" fill="#808080">
            <g id="Page-1" sketch:type="MSShapeGroup">
                <g id="blizzard">
                    <g id="GQulL7.tif">
                        <g id="Group">
                            <path d="M137,4.1 C137.2,4.5 137.4,4.9 137.6,5.2 L137.4,5.4 C136.9,4.9 136.5,4.3 135.9,3.6 C135.7,4.4 135.6,4.9 135.5,5.3 L135.3,5.3 L135.3,1.8 C136.1,2 136.9,2.1 137.5,2.5 C137.6,2.6 137.3,3.5 137.2,4.1 C137.2,4 137.1,4.1 137,4.1 L137,4.1 L137,4.1 Z M135.8,3.6 C136.3,3.4 136.7,3.3 137.1,3.1 C137.2,3.1 137.1,2.6 137.1,2.6 C136.7,2.5 136.3,2.4 135.8,2.3 L135.8,3.6 L135.8,3.6 Z" id="Shape"></path>
                        </g>
                    </g>
                </g>
            </g>
        </g>
    </g>
</svg>