<?xml version="1.0" encoding="UTF-8" standalone="no"?>
<svg width="2px" height="3px" viewBox="0 0 2 3" version="1.1" xmlns="http://www.w3.org/2000/svg" xmlns:xlink="http://www.w3.org/1999/xlink" xmlns:sketch="http://www.bohemiancoding.com/sketch/ns">
    <!-- Generator: Sketch 3.3.3 (12081) - http://www.bohemiancoding.com/sketch -->
    <title>Shape</title>
    <desc>Created with Sketch.</desc>
    <defs></defs>
    <g id="Page-1" stroke="none" stroke-width="1" fill="none" fill-rule="evenodd" sketch:type="MSPage">
        <g id="fanta" sketch:type="MSLayerGroup" transform="translate(-39.000000, -11.000000)" fill="#29AF87">
            <path d="M40.1086957,11.5574468 C40.6434783,11.5574468 41,11.9744681 41,12.4510638 C41,12.9276596 40.584058,13.3446809 40.1086957,13.3446809 C39.573913,13.3446809 39.2173913,12.9276596 39.2173913,12.4510638 C39.157971,11.9148936 39.573913,11.5574468 40.1086957,11.5574468 L40.1086957,11.5574468 L40.1086957,11.5574468 Z M40.1086957,11.7361702 C39.6927536,11.7361702 39.4550725,12.0340426 39.4550725,12.4510638 C39.4550725,12.8680851 39.7521739,13.1659574 40.1681159,13.1659574 C40.584058,13.1659574 40.8217391,12.8680851 40.8217391,12.4510638 C40.7623188,12.0340426 40.4652174,11.7361702 40.1086957,11.7361702 L40.1086957,11.7361702 L40.1086957,11.7361702 Z M39.9304348,12.8680851 L39.7521739,12.8680851 L39.7521739,11.9744681 C39.8115942,11.9744681 39.9304348,11.9148936 40.1086957,11.9148936 C40.2869565,11.9148936 40.3463768,11.9148936 40.4057971,11.9744681 C40.4652174,12.0340426 40.4652174,12.093617 40.4652174,12.1531915 C40.4652174,12.2723404 40.4057971,12.3319149 40.2869565,12.3914894 L40.2869565,12.3914894 C40.3463768,12.3914894 40.4057971,12.5106383 40.4652174,12.6297872 C40.4652174,12.7489362 40.5246377,12.8085106 40.5246377,12.8680851 L40.2869565,12.8680851 C40.2869565,12.8085106 40.2275362,12.7489362 40.2275362,12.6297872 C40.2275362,12.5106383 40.1681159,12.5106383 40.0492754,12.5106383 L39.9304348,12.5106383 L39.9304348,12.8680851 L39.9304348,12.8680851 Z M39.9304348,12.3914894 L40.0492754,12.3914894 C40.1681159,12.3914894 40.2275362,12.3319149 40.2275362,12.2723404 C40.2275362,12.212766 40.1681159,12.1531915 40.0492754,12.1531915 L39.9304348,12.1531915 L39.9304348,12.3914894 L39.9304348,12.3914894 Z" id="Shape" sketch:type="MSShapeGroup"></path>
        </g>
    </g>
</svg>