<?xml version="1.0" encoding="utf-8"?>
<!-- Generator: Adobe Illustrator 18.1.0, SVG Export Plug-In . SVG Version: 6.00 Build 0)  -->
<svg version="1.1" id="Layer_1" xmlns="http://www.w3.org/2000/svg" xmlns:xlink="http://www.w3.org/1999/xlink" x="0px" y="0px"
	 viewBox="0 0 65 65" style="enable-background:new 0 0 65 65;" xml:space="preserve">
<style type="text/css">
	.Drop_x0020_Shadow{fill:none;}
	.Round_x0020_Corners_x0020_2_x0020_pt{fill:#FFFFFF;stroke:#231F20;stroke-miterlimit:10;}
	.Live_x0020_Reflect_x0020_X{fill:none;}
	.Bevel_x0020_Soft{fill:url(#SVGID_1_);}
	.Dusk{fill:#FFFFFF;}
	.Foliage_GS{fill:#FFDD00;}
	.Pompadour_GS{fill-rule:evenodd;clip-rule:evenodd;fill:#44ADE2;}
	.st0{fill:#E09D32;}
</style>
<linearGradient id="SVGID_1_" gradientUnits="userSpaceOnUse" x1="0" y1="0" x2="0.7071" y2="0.7071">
	<stop  offset="0" style="stop-color:#DEDFE3"/>
	<stop  offset="0.1783" style="stop-color:#DADBDF"/>
	<stop  offset="0.3611" style="stop-color:#CECFD3"/>
	<stop  offset="0.546" style="stop-color:#B9BCBF"/>
	<stop  offset="0.7324" style="stop-color:#9CA0A2"/>
	<stop  offset="0.9181" style="stop-color:#787D7E"/>
	<stop  offset="1" style="stop-color:#656B6C"/>
</linearGradient>
<rect width="65" height="65"/>
<g>
	<path class="st0" d="M43.8,20h-7.2c0,0-4.4,0-4.4,4.4v20.2h7.2c0,0,4.4,0,4.4-4.4V20z"/>
	<path class="st0" d="M45.2,44.6h7.2c0,0,4.4,0,4.4-4.4V20h-7.2c0,0-4.4,0-4.4,4.4V44.6L45.2,44.6z"/>
	<path class="st0" d="M26.4,31.5c4.3,0,4.4-4.4,4.4-4.4V20H10.5c-4.4,0-4.4,4.4-4.4,4.4v7.2L26.4,31.5L26.4,31.5z"/>
	<path class="st0" d="M26.4,44.5c4.3,0,4.4-4.3,4.4-4.3V33H10.5c-4.4,0-4.4,4.3-4.4,4.3v7.2H26.4L26.4,44.5z"/>
</g>
</svg>
