<?xml version="1.0" encoding="utf-8"?>
<!-- Generator: Adobe Illustrator 18.1.1, SVG Export Plug-In . SVG Version: 6.00 Build 0)  -->
<svg version="1.1" id="Layer_1" xmlns="http://www.w3.org/2000/svg" xmlns:xlink="http://www.w3.org/1999/xlink" x="0px" y="0px"
	 viewBox="0 0 100 100" enable-background="new 0 0 100 100" xml:space="preserve">
<g>
	<path d="M37.1,57.2c0.1,1.9,1.4,4.6,3.8,7c2.8,3,6.7,5.4,10.4,6.3C43.6,61.2,39.2,58.2,37.1,57.2z"/>
	<path d="M50,0C22.4,0,0,22.4,0,50s22.4,50,50,50s50-22.4,50-50S77.6,0,50,0z M26.2,27.5l14.3,12.2l-5.8,6.8L20.4,34.2L26.2,27.5z
		 M61.9,27.4c-2-2.6-5.3-3-9.7-1.3l-0.2,0.1c-2.2,0.9-4.5,1.8-6.9,2.5l3,2.6c1.2,1.1,2.5,2.1,3.7,3.2c2.4,2,4.8,4.2,7.2,6.2l0.6,0.5
		c4.3,3.7,8.8,7.5,11.1,13.6c2.9,7.6,1.1,15.5-4.3,20.5c1.2,1.7,2.5,3.4,3.8,5.3l-7.3,5.2c-1.6-2.3-3.1-4.3-4.5-6.3
		c-8.4,1.8-17.9-2.6-24-9.1c-6.5-6.9-8.1-14.6-4.1-20.1l0.1-0.2c0.4-0.6,2.2-2.4,5.5-2.3c3.5,0.1,7.5,2.3,12.4,6.6
		c3.7,3.3,7.9,7.9,12.6,13.8c2.3-2.5,2.9-6.3,1.5-10.2c-1.5-4-4.8-6.8-8.6-10l-0.6-0.5c-2.4-2.1-4.9-4.2-7.3-6.3
		c-1.2-1.1-2.4-2.1-3.7-3.2L27.8,25.5l5.8-6.8c4,3.4,8.1,2,15.1-0.8l0.2-0.1c8.2-3.3,15.4-1.8,20,4c4.3,5.4,5,12.9,1.9,18.4L63.1,36
		C64.6,33.3,63.7,29.6,61.9,27.4z"/>
</g>
</svg>
