<?xml version="1.0" encoding="utf-8"?>
<!-- Generator: Adobe Illustrator 18.1.0, SVG Export Plug-In . SVG Version: 6.00 Build 0)  -->
<svg version="1.1" id="Layer_1" xmlns="http://www.w3.org/2000/svg" xmlns:xlink="http://www.w3.org/1999/xlink" x="0px" y="0px"
	 viewBox="0 0 65 65" style="enable-background:new 0 0 65 65;" xml:space="preserve">
<style type="text/css">
	.Drop_x0020_Shadow{fill:none;}
	.Round_x0020_Corners_x0020_2_x0020_pt{fill:#FFFFFF;stroke:#231F20;stroke-miterlimit:10;}
	.Live_x0020_Reflect_x0020_X{fill:none;}
	.Bevel_x0020_Soft{fill:url(#SVGID_1_);}
	.Dusk{fill:#FFFFFF;}
	.Foliage_GS{fill:#FFDD00;}
	.Pompadour_GS{fill-rule:evenodd;clip-rule:evenodd;fill:#44ADE2;}
</style>
<linearGradient id="SVGID_1_" gradientUnits="userSpaceOnUse" x1="0" y1="0" x2="0.7071" y2="0.7071">
	<stop  offset="0" style="stop-color:#DEDFE3"/>
	<stop  offset="0.1783" style="stop-color:#DADBDF"/>
	<stop  offset="0.3611" style="stop-color:#CECFD3"/>
	<stop  offset="0.546" style="stop-color:#B9BCBF"/>
	<stop  offset="0.7324" style="stop-color:#9CA0A2"/>
	<stop  offset="0.9181" style="stop-color:#787D7E"/>
	<stop  offset="1" style="stop-color:#656B6C"/>
</linearGradient>
<g>
	<path d="M40.7,19h-7.8c0,0-4.7,0-4.7,4.7v21.9h7.8c0,0,4.7,0,4.7-4.7V19z"/>
	<path d="M42.2,45.6H50c0,0,4.7,0,4.7-4.7V19h-7.8c0,0-4.7,0-4.7,4.7V45.6L42.2,45.6z"/>
	<path d="M21.9,31.5c4.7,0,4.7-4.7,4.7-4.7V19H4.7C0,19,0,23.7,0,23.7v7.8L21.9,31.5L21.9,31.5z"/>
	<path d="M21.9,45.5c4.7,0,4.7-4.7,4.7-4.7V33H4.7C0,33,0,37.7,0,37.7v7.8H21.9L21.9,45.5z"/>
</g>
</svg>
