<?xml version="1.0" encoding="utf-8"?>
<!-- Generator: Adobe Illustrator 18.1.1, SVG Export Plug-In . SVG Version: 6.00 Build 0)  -->
<!DOCTYPE svg PUBLIC "-//W3C//DTD SVG 1.1//EN" "http://www.w3.org/Graphics/SVG/1.1/DTD/svg11.dtd">
<svg version="1.1" id="Layer_1" xmlns="http://www.w3.org/2000/svg" xmlns:xlink="http://www.w3.org/1999/xlink" x="0px" y="0px"
	 viewBox="0 0 72 72" enable-background="new 0 0 72 72" xml:space="preserve">
<path fill-rule="evenodd" clip-rule="evenodd" fill="#119BD5" d="M52,28.7l-4.2,3.7l-3.4-9.5l-0.9,0.8l-0.6-1.6l0,0
	c0,0,2.8-2.1,1.4-6.4l0,0l1.2-1l1.3,4l1.4-1.2l0.5,1.7l-1.3,1.2l2.6,7l0,0C50.4,28.2,50.8,28.9,52,28.7L52,28.7L52,28.7L52,28.7z"/>
<path fill-rule="evenodd" clip-rule="evenodd" fill="#119BD5" d="M38.9,25.6l3.2-2.9l2.4,6.9l0,0c0.6,1.6,1,3.3,2.5,3.3l0,0
	l-4.3,3.7L38.9,25.6L38.9,25.6L38.9,25.6z"/>
<path fill-rule="evenodd" clip-rule="evenodd" fill="#119BD5" d="M33.5,33.2c-0.7-1.5-1.3-1.3-1.7-1.2l0,0l3.3-2.9l0.8,2.1l0,0
	C35,28.1,38,26.1,38,26.1l0,0l1.4,3.8l0,0c-0.6-0.5-2.4,1.1-1.9,2.9l0,0l0.9,2.8l0,0c0.6,1.6,1.1,3.1,2.8,2.7l0,0l-4.6,4L33.5,33.2
	L33.5,33.2L33.5,33.2z"/>
<path fill-rule="evenodd" clip-rule="evenodd" fill="#119BD5" d="M58.5,22.9c-0.9,1.3-2.8,3-4.4,2.8c-1.4-0.1-2.7-1.1-3.4-2.8l0,0
	l-1.2-3.1l0,0c-0.6-2-0.1-3.9,2.1-5.9c1.3-1.2,3.1-2.3,4.5-1.5c1.1,0.6,1.7,3,1.7,3l0,0l0.3,0.8L53.6,20l0,0
	c0.5,1.4,1.3,2.1,2.3,1.9c1.3-0.4,2.4-1.7,2.9-3.9l0,0l0.8,2.2l0,0C59.4,21.3,59,22,58.5,22.9L58.5,22.9L58.5,22.9L58.5,22.9
	L58.5,22.9z M53,15.4c-1,1-0.4,1.9,0,3.2l0,0l1.7-1.5l0,0c0.2-0.3,0-0.5-0.1-0.7C54.6,16.4,54.1,14.5,53,15.4L53,15.4L53,15.4
	L53,15.4z"/>
<path fill-rule="evenodd" clip-rule="evenodd" fill="#119BD5" d="M34.7,40c1.3,3.9-2.1,6.4-2.7,6.4c-0.6,0.1-0.8,0.1-1.2,0
	c0,0,1.4,3.6,1.4,3.6c0.5,1,1.7,1.2,1.9,1l0,0l-4.5,3.9l0,0c-1.7-5-3-8.7-4.9-13.6c-0.5-1.1-1.4-1.4-2-1.3l0,0l5.5-4.9l0,0
	c1.5-1.3,3.7-1.3,4.8,0.8l0,0L34.7,40L34.7,40L34.7,40z M28,38.4l2.1,5.8l0,0c0.6,0.9,1.9-0.1,1.3-1.4l0,0L30,38.6l0,0
	C29.3,36.6,27.9,37.9,28,38.4L28,38.4L28,38.4L28,38.4z"/>
<path fill-rule="evenodd" clip-rule="evenodd" fill="#119BD5" d="M16.2,48.4c0,0,1.8,1.1,3.8,2.2c2.9,1.5,3,3.9,1.3,5.2
	c-1.9,1.5-4,1.2-5.5-1.3l0,0l0.3,4.7l0,0c3.7,2.6,9.8-1.5,10.8-6.2c0.3-1.7,0.3-4.7-2.2-6.3c-2.3-1.5-4.9-2.7-5.1-2.8
	c-0.9-0.4-1.7-0.8-2.4-1.2c-1.6-0.9-1.3-2.6-0.9-3.2c1.3-1.9,3.6-1.9,5.4,0.3l0,0l-1.1-4.4l0,0c-4-1.8-9.8,3.6-9.2,7.8
	c0.1,1.1,0.7,3.2,4.6,5.2l0,0L16.2,48.4L16.2,48.4L16.2,48.4z"/>
<path fill-rule="evenodd" clip-rule="evenodd" fill="#119BD5" d="M41.8,16.1C41.9,16.1,41.8,16.1,41.8,16.1c0.1-0.1,0.5-0.3,0.7-0.2
	l0,0l0,0l0,0l0,0c0,0,0.2,0.2,0.2,1l0,0l0,0l0,0v0l0,0c0,0,0.2,3.5-1.8,5c0,0-1,0.9-2.6,0.8c0,0-1-0.1-1.3-0.1l0,0l0,0l0,0
	c0,0-0.9-0.3-1.6,0.4c-0.1,0.1-0.2,0.2-0.3,0.1l0,0l0,0l0,0l0,0c-0.1,0-0.3-0.2-0.3-1c0,0,0-0.5,0-1.1c0.5-0.2,0.9-0.1,0.9-0.1l0,0
	l0,0l0,0c0,0,0,0,0,0c0.3,0,1.3,0.1,1.3,0.1c1.7,0.1,2.7-0.8,2.8-0.9C41.3,19.2,41.7,17.3,41.8,16.1L41.8,16.1L41.8,16.1L41.8,16.1z
	"/>
<path fill-rule="evenodd" clip-rule="evenodd" fill="#119BD5" d="M41.5,16.3c-0.1,1.2-0.5,2.8-1.7,3.7c0,0-1,0.9-2.6,0.8
	c0,0-1-0.1-1.3-0.1l0,0l0,0l0,0c0,0-0.9-0.3-1.6,0.4c-0.1,0.1-0.2,0.2-0.3,0.1l0,0l0,0l0,0l0,0c-0.1,0-0.3-0.2-0.3-1
	c0,0-0.1-2,0.4-3.5c0-0.1,0.7-2,2.7-2.2c0,0,1.5-0.1,2.2,0c0.2,0,1.4,0.1,1.9-0.4l0,0l0,0l0,0c0.1-0.1,0.4-0.2,0.5-0.1l0,0l0,0l0,0
	l0,0c0,0,0.2,0.2,0.2,1l0,0l0,0l0,0l0,0l0,0C41.5,15,41.5,15.6,41.5,16.3L41.5,16.3z"/>
</svg>
