<?xml version="1.0" encoding="UTF-8" standalone="no"?>
<svg width="55px" height="78px" viewBox="0 0 55 78" version="1.1" xmlns="http://www.w3.org/2000/svg" xmlns:xlink="http://www.w3.org/1999/xlink">
    <!-- Generator: Sketch 3.8.3 (29802) - http://www.bohemiancoding.com/sketch -->
    <title>css3</title>
    <desc>Created with Sketch.</desc>
    <defs></defs>
    <g id="Hifidelity" stroke="none" stroke-width="1" fill="none" fill-rule="evenodd">
        <g id="Desktop-HD-Copy-13" transform="translate(-570.000000, -2804.000000)">
            <g id="Specialties" transform="translate(102.000000, 2149.000000)">
                <g id="css3" transform="translate(468.000000, 655.000000)">
                    <g id="Slice-1">
                        <g id="Page-1">
                            <g id="Layer_1">
                                <path d="M43.0350693,2.89483929 L38.4784062,2.89483929 L43.2170553,8.03783576 L43.2170553,10.4859235 L33.4566269,10.4859235 L33.4566269,7.61969846 L38.1943531,7.61969846 L33.4566269,2.47651738 L33.4566269,0.0249220907 L43.0350693,0.0249220907 L43.0350693,2.89483929 L43.0350693,2.89483929 L43.0350693,2.89483929 Z M31.5219646,2.89483929 L26.9653015,2.89483929 L31.703766,8.03783576 L31.703766,10.4859235 L21.9433376,10.4859235 L21.9433376,7.61969846 L26.6816175,7.61969846 L21.9433376,2.47651738 L21.9433376,0.0249220907 L31.5219646,0.0249220907 L31.5219646,2.89483929 L31.5219646,2.89483929 L31.5219646,2.89483929 Z M20.1214475,3.01132698 L15.2045039,3.01132698 L15.2045039,7.49970321 L20.1214475,7.49970321 L20.1214475,10.4859235 L11.7098563,10.4859235 L11.7098563,0.0249220907 L20.1214475,0.0249220907 L20.1214475,3.01132698 L20.1214475,3.01132698 L20.1214475,3.01132698 Z" id="Shape" fill="#FDC894"></path>
                                <polygon id="Shape" fill="#FDC894" points="5.00959776 71.3122548 0.0131044669 15.2615499 54.913438 15.2615499 49.9123305 71.303209 27.4296795 77.5374238"></polygon>
                                <polygon id="Shape" fill="#FCAE62" points="27.4636404 72.7723201 45.6303075 67.7347348 49.904394 19.8446301 27.4636404 19.8446301"></polygon>
                                <g id="Group" transform="translate(10.151348, 26.214347)" fill="#333333">
                                    <polygon id="Shape" points="17.3121082 13.9371715 26.4067928 13.9371715 27.0348844 6.89769626 17.3121082 6.89769626 17.3121082 0.0230760099 17.3359177 0.0230760099 34.5463279 0.0230760099 34.3815069 1.86749533 32.6923227 20.811238 17.3121082 20.811238"></polygon>
                                    <polygon id="Shape" points="17.3532673 31.7902496 17.3231824 31.7987416 9.66869717 29.7313157 9.17921764 24.248825 5.45994845 24.248825 2.28017724 24.248825 3.24289413 35.0423055 17.3215213 38.9515662 17.3532673 38.942705"></polygon>
                                    <polygon id="Shape" points="25.8226289 20.5202956 24.9950172 29.7267005 17.3294578 31.7961571 17.3294578 38.9482433 31.4193437 35.0423055 31.5227029 33.8811207 32.718347 20.5202956"></polygon>
                                    <polygon id="Shape" points="17.3359177 0.0230760099 17.3359177 4.29269166 17.3359177 6.88071232 17.3359177 6.89769626 0.756367681 6.89769626 0.734403857 6.89769626 0.596530099 5.35252664 0.283314883 1.86749533 0.119047622 0.0230760099"></polygon>
                                    <polygon id="Shape" points="17.3121082 13.93791 17.3121082 18.2077102 17.3121082 20.7953617 17.3121082 20.8123456 9.77648602 20.8123456 9.7545222 20.8123456 9.61683301 19.2673606 9.30343322 15.7823293 9.13916596 13.93791"></polygon>
                                </g>
                            </g>
                        </g>
                    </g>
                </g>
            </g>
        </g>
    </g>
</svg>