<?xml version="1.0" encoding="UTF-8" standalone="no"?>
<svg width="31px" height="50px" viewBox="0 0 31 50" version="1.1" xmlns="http://www.w3.org/2000/svg" xmlns:xlink="http://www.w3.org/1999/xlink">
    <!-- Generator: Sketch 39.1 (31720) - http://www.bohemiancoding.com/sketch -->
    <title>interactive-design</title>
    <desc>Created with Sketch.</desc>
    <defs></defs>
    <g id="Page-1" stroke="none" stroke-width="1" fill="none" fill-rule="evenodd">
        <g id="interactive-design" fill="#3972FF">
            <g id="Group">
                <path d="M22.5785904,32.3265957 C21.9768617,32.3265957 21.4526596,32.7025266 21.1735372,33.2593085 L21.1735372,33.1746011 C21.1735372,32.0083777 20.3462766,31.0632979 19.3256649,31.0632979 C18.6224734,31.0632979 18.0114362,31.5118351 17.6992021,32.1720745 C17.3868351,31.5118351 16.7755319,31.0632979 16.0724734,31.0632979 C15.5099734,31.0632979 15.006383,31.3515957 14.6674202,31.8051862 L14.6674202,25.2569149 C14.6674202,24.0906915 13.8400266,23.1456117 12.8194149,23.1456117 C11.7988032,23.1456117 10.9715426,24.0908245 10.9715426,25.2569149 L10.9715426,38.131383 L10.1105053,36.3367021 C9.77473404,35.6364362 9.1418883,35.2389628 8.48882979,35.2389628 C8.18843085,35.2389628 7.88351064,35.3232713 7.60146277,35.4993351 C6.70691489,36.0605053 6.3787234,37.3430851 6.87007979,38.3655585 C6.87007979,38.3655585 11.1797872,47.4136968 11.8445479,48.3889628 C12.4836436,49.3263298 13.2716755,49.9885638 14.3651596,49.9885638 L20.781516,49.9885638 C22.6682181,49.9885638 24.1986702,48.1761968 24.1986702,45.9417553 L24.1986702,34.1763298 C24.1981383,33.1547872 23.4730053,32.3265957 22.5785904,32.3265957 L22.5785904,32.3265957 Z" id="Shape"></path>
                <path d="M27.91875,0 L2.92074468,0 C1.36861702,0 0.106914894,1.26223404 0.106914894,2.81409574 L0.106914894,43.9011968 C0.106914894,45.4525266 1.36861702,46.7152926 2.92074468,46.7152926 L7.55797872,46.7152926 C7.55797872,46.7152926 8.45531915,46.7152926 8.12194149,45.9555851 C7.59082447,44.7449468 6.72912234,42.9825798 6.0893617,41.718484 C5.78470745,41.1164894 5.0087766,41.1409574 5.0087766,41.1409574 L3.19295213,41.1409574 C2.82593085,41.1409574 2.52513298,40.8337766 2.52513298,40.4583777 L2.52513298,6.3168883 C2.52513298,5.94148936 2.82606383,5.63444149 3.19295213,5.63444149 L27.6472074,5.63444149 C28.0142287,5.63444149 28.3148936,5.94148936 28.3148936,6.3168883 L28.3148936,40.4583777 C28.3148936,40.8337766 28.0140957,41.1409574 27.6472074,41.1409574 L26.9509309,41.1409574 C26.9509309,41.1409574 26.0831117,41.1605053 26.0831117,42.2054521 C26.0831117,43.0667553 26.0797872,45.599734 26.0797872,45.6506649 C26.0797872,46.7151596 27.0843085,46.7151596 27.0843085,46.7151596 L27.9191489,46.7151596 C29.4702128,46.7151596 30.7328457,45.4525266 30.7328457,43.9011968 L30.7328457,2.81422872 C30.7325798,1.26223404 29.4698138,0 27.91875,0 L27.91875,0 Z M18.5031915,3.93683511 L12.3364362,3.93683511 C12.0416223,3.93683511 11.8034574,3.69827128 11.8034574,3.4037234 C11.8034574,3.1087766 12.0416223,2.87021277 12.3364362,2.87021277 L18.5033245,2.87021277 C18.7976064,2.87021277 19.0365691,3.1087766 19.0365691,3.4037234 C19.0364362,3.69827128 18.7974734,3.93683511 18.5031915,3.93683511 L18.5031915,3.93683511 Z" id="Shape"></path>
            </g>
        </g>
    </g>
</svg>