<?xml version="1.0" encoding="UTF-8" standalone="no"?>
<svg width="67px" height="63px" viewBox="0 0 67 63" version="1.1" xmlns="http://www.w3.org/2000/svg" xmlns:xlink="http://www.w3.org/1999/xlink">
    <!-- Generator: Sketch 3.8.2 (29753) - http://www.bohemiancoding.com/sketch -->
    <title>interactive-design</title>
    <desc>Created with Sketch.</desc>
    <defs>
        <rect id="path-1" x="0" y="0" width="67" height="19.25" rx="2"></rect>
        <path d="M27.4310729,6.25 L2.00517692,6.25 C0.896468386,6.25 0,7.1462981 0,8.2519379 L0,40.9980621 C0,42.1097773 0.897748285,43 2.00517692,43 L64.9948231,43 C66.1035316,43 67,42.1037019 67,40.9980621 L67,8.2519379 C67,7.1402227 66.1022517,6.25 64.9948231,6.25 L37.9775931,6.25 L32.704333,0.9767399 L27.4310729,6.25 L27.4310729,6.25 Z" id="path-3"></path>
    </defs>
    <g id="Page-1" stroke="none" stroke-width="1" fill="none" fill-rule="evenodd">
        <g id="interactive-design">
            <g id="Hifidelity">
                <g id="Desktop-HD-Copy-13">
                    <g id="interactive-design">
                        <g id="Rectangle-25-Clipped">
                            <mask id="mask-2" fill="white">
                                <use xlink:href="#path-1"></use>
                            </mask>
                            <g id="path-1"></g>
                            <g id="Rectangle-25" mask="url(#mask-2)" fill="#E7ECEA">
                                <rect id="path-1" x="0" y="0" width="67" height="19.25" rx="2"></rect>
                            </g>
                        </g>
                        <g id="Combined-Shape-Clipped" transform="translate(0.000000, 20.000000)">
                            <mask id="mask-4" fill="white">
                                <use xlink:href="#path-3"></use>
                            </mask>
                            <g id="path-3"></g>
                            <g id="Combined-Shape" mask="url(#mask-4)" stroke="#E7ECEA" stroke-width="2" fill="#4B4B4B">
                                <path d="M27.4310729,6.25 L2.00517692,6.25 C0.896468386,6.25 0,7.1462981 0,8.2519379 L0,40.9980621 C0,42.1097773 0.897748285,43 2.00517692,43 L64.9948231,43 C66.1035316,43 67,42.1037019 67,40.9980621 L67,8.2519379 C67,7.1402227 66.1022517,6.25 64.9948231,6.25 L37.9775931,6.25 L32.704333,0.9767399 L27.4310729,6.25 L27.4310729,6.25 Z" id="path-3"></path>
                            </g>
                        </g>
                        <path d="M6.17105263,35.875 L60.8289474,35.875" id="Line" stroke="#E7ECEA"></path>
                        <path d="M6.17105263,9.625 L29.1598184,9.625" id="Line-Copy-3" stroke="#333333"></path>
                        <path d="M6.17105263,44.625 L46.7236842,44.625" id="Line-Copy" stroke="#E7ECEA"></path>
                        <path d="M6.17105263,53.375 L55.5394737,53.375" id="Line-Copy-2" stroke="#E7ECEA"></path>
                    </g>
                </g>
            </g>
        </g>
    </g>
</svg>