<?xml version="1.0" encoding="UTF-8" standalone="no"?>
<svg width="46px" height="33px" viewBox="0 0 46 33" version="1.1" xmlns="http://www.w3.org/2000/svg" xmlns:xlink="http://www.w3.org/1999/xlink">
    <!-- Generator: Sketch 39.1 (31720) - http://www.bohemiancoding.com/sketch -->
    <title>javascript</title>
    <desc>Created with Sketch.</desc>
    <defs></defs>
    <g id="Page-1" stroke="none" stroke-width="1" fill="none" fill-rule="evenodd">
        <g id="javascript" fill="#3972FF">
            <g id="Page-1">
                <g id="javascript">
                    <g id="Hifidelity">
                        <g id="Desktop-HD-Copy-13">
                            <g id="Specialties">
                                <g id="Unofficial_JavaScript_logo_2">
                                    <g id="Group">
                                        <path d="M28.4155723,22.7042172 C29.7852865,24.9406617 31.5673183,26.5845347 34.7190643,26.5845347 C37.3667469,26.5845347 39.0581119,25.2612331 39.0581119,23.4327886 C39.0581119,21.2416775 37.3203342,20.465614 34.4060485,19.1908839 L32.8085881,18.5054871 C28.1975405,16.5410426 25.1343024,14.0800902 25.1343024,8.8775505 C25.1343024,4.0851696 28.7857945,0.4369156 34.4923977,0.4369156 C38.5551278,0.4369156 41.4758897,1.8508839 43.5806516,5.5531061 L38.6047786,8.7480267 C37.5092231,6.7835823 36.3273183,6.0096775 34.4923977,6.0096775 C32.6207786,6.0096775 31.4345564,7.1969791 31.4345564,8.7480267 C31.4345564,10.6649791 32.621858,11.4410426 35.3634453,12.6283442 L36.9609056,13.3126617 C42.3901119,15.6408521 45.4555088,18.0143759 45.4555088,23.3507569 C45.4555088,29.1037728 40.9362072,32.2555188 34.8669373,32.2555188 C28.9325881,32.2555188 25.0986834,29.4275823 23.2227469,25.7210426 L28.4155723,22.7042172 L28.4155723,22.7042172 L28.4155723,22.7042172 Z M5.8428104,23.2579315 C6.8466199,25.0388839 7.7597627,26.5445982 9.9551913,26.5445982 C12.0545564,26.5445982 13.3789373,25.7232013 13.3789373,22.5293601 L13.3789373,0.801741 L19.7687786,0.801741 L19.7687786,22.6157093 C19.7687786,29.2322172 15.8895405,32.2436458 10.2271913,32.2436458 C5.1110008,32.2436458 2.1481437,29.5959632 0.64135,26.4069791 L5.8428104,23.2579315 L5.8428104,23.2579315 L5.8428104,23.2579315 Z" id="Shape"></path>
                                    </g>
                                </g>
                            </g>
                        </g>
                    </g>
                </g>
            </g>
        </g>
    </g>
</svg>