<?xml version="1.0" encoding="UTF-8" standalone="no"?>
<svg width="57px" height="50px" viewBox="0 0 57 50" version="1.1" xmlns="http://www.w3.org/2000/svg" xmlns:xlink="http://www.w3.org/1999/xlink">
    <!-- Generator: Sketch 39.1 (31720) - http://www.bohemiancoding.com/sketch -->
    <title>react</title>
    <desc>Created with Sketch.</desc>
    <defs></defs>
    <g id="Page-1" stroke="none" stroke-width="1" fill="none" fill-rule="evenodd">
        <g id="react" fill="#3972FF">
            <g id="Page-1">
                <g id="react">
                    <g id="Hifidelity">
                        <g id="Desktop-HD-Copy-13">
                            <g id="Specialties">
                                <g id="React.js_logo">
                                    <g id="Layer_2">
                                        <ellipse id="Oval" cx="28.3565795" cy="24.912974" rx="5.05299463" ry="5.00668663"></ellipse>
                                        <path d="M28.3565795,15.9309381 C34.8852297,15.9309381 41.0870662,16.8429493 45.8019696,18.4512423 C51.0384048,20.2374062 54.2325413,22.8782137 54.2325413,24.912974 C54.2325413,27.0803912 50.7829538,29.894217 45.1818136,31.733031 C40.7226749,33.1969172 34.7565994,33.9948104 28.3565795,33.9948104 C21.6331976,33.9948104 15.5998266,33.2124648 11.1924211,31.7197621 C8.43317524,30.7852915 6.15451665,29.5708643 4.5926614,28.245582 C3.18918455,27.0546887 2.48061777,25.8723208 2.48061777,24.912974 C2.48061777,22.8713695 5.55253727,20.2672426 10.6760397,18.4973121 C15.3929153,16.8679751 21.7465459,15.9309381 28.3565795,15.9309381 L28.3565795,15.9309381 L28.3565795,15.9309381 L28.3565795,15.9309381 Z M28.3565795,13.5357285 C21.4897462,13.5357285 14.8700059,14.5120115 9.88023848,16.2356128 C3.88925958,18.3052158 0.0632543433,21.5485961 0.0632543433,24.912974 C0.0632543433,28.3877709 4.17053979,31.8729291 10.4105607,33.98623 C15.1009666,35.5747794 21.3880205,36.3900199 28.3565795,36.3900199 C34.997901,36.3900199 41.2149632,35.5585602 45.942107,34.0066909 C52.4292058,31.8770231 56.6499047,28.4342022 56.6499047,24.912974 C56.6499047,21.5364348 52.7004727,18.2711737 46.5888493,16.1864804 C41.6051013,14.4864824 35.1398084,13.5357285 28.3565795,13.5357285 L28.3565795,13.5357285 L28.3565795,13.5357285 L28.3565795,13.5357285 Z" id="Shape"></path>
                                        <path d="M20.4600859,20.4507875 C23.7215777,14.8471288 27.6172201,9.97948884 31.3787637,6.73593988 C35.5563724,3.13367899 39.4608897,1.71130756 41.2398464,2.72778018 C43.1348041,3.81052351 43.8716117,8.17722018 42.6810507,13.9033645 C41.7331921,18.4621303 39.4502972,23.9816262 36.2530685,29.4749689 C32.8942588,35.2458949 29.1962164,40.0336124 25.6892719,43.0709666 C23.4938327,44.9725015 21.2937381,46.3216422 19.3548053,47.0001433 C17.6124973,47.6098384 16.2247746,47.6273365 15.3859807,47.1480655 C13.6010706,46.1281152 12.8589982,42.1905035 13.8711701,36.9086335 C14.8029616,32.0461391 17.1577875,26.124606 20.4600882,20.4507836 L20.4600859,20.4507875 L20.4600859,20.4507875 L20.4600859,20.4507875 Z M18.3659916,19.2542064 C14.9353976,25.1484551 12.4819385,31.3180148 11.4962382,36.4618291 C10.3126998,42.6379496 11.2369366,47.5421684 14.1783356,49.2229705 C17.2164174,50.958873 22.3152862,49.1745988 27.2802139,44.874328 C31.0123316,41.6419518 34.8658707,36.6529187 38.347168,30.6715411 C41.6649399,24.9710862 44.0438696,19.2194009 45.0486933,14.3866592 C46.427578,7.75474921 45.5260632,2.41191338 42.4474579,0.652855982 C39.4954182,-1.03390093 34.667652,0.724799659 29.7918193,4.92912374 C25.81579,8.35762201 21.7546639,13.4320354 18.3659938,19.2542026 L18.3659916,19.2542064 L18.3659916,19.2542064 L18.3659916,19.2542064 Z" id="Shape"></path>
                                        <path d="M20.4676419,29.4880071 C17.1967396,23.8897119 14.8861126,18.114614 13.9286162,13.2657475 C12.8651882,7.88059518 13.5714911,3.81845487 15.3487499,2.79903692 C17.2418895,1.71308586 21.4280256,3.26138924 25.8401499,7.14313311 C29.3528987,10.233472 33.0388363,14.949582 36.2454186,20.4377451 C39.6139615,26.2030644 41.9534385,31.7686496 42.8578788,36.2960163 C43.4241079,39.1302937 43.5050074,41.692693 43.129937,43.6959644 C42.7929028,45.4960818 42.115149,46.6960523 41.277173,47.1767171 C39.4939062,48.1996126 35.6802796,46.870131 31.567464,43.3633869 C27.7812238,40.1351053 23.7795577,35.1563293 20.467634,29.4879937 L20.4676419,29.4880071 L20.4676419,29.4880071 L20.4676419,29.4880071 Z M18.3755688,30.6880542 C21.8161505,36.5765872 25.9854154,41.7638855 29.9906973,45.1789299 C34.7998503,49.2793979 39.5496704,50.9352492 42.4883017,49.2496277 C45.5234143,47.5086807 46.5097511,42.2406027 45.2292313,35.8309217 C44.2667184,31.0128595 41.828873,25.2132573 38.3374932,19.2377005 C35.0100178,13.5426254 31.1690153,8.62811165 27.445167,5.35205818 C22.335146,0.856311506 17.2132149,-1.03810927 14.1376176,0.726128372 C11.1883892,2.41777638 10.3150713,7.4404653 11.5562376,13.7256763 C12.5683293,18.8510195 14.9771115,24.8714429 18.3755609,30.6880407 L18.3755688,30.6880542 L18.3755688,30.6880542 L18.3755688,30.6880542 Z" id="Shape"></path>
                                    </g>
                                </g>
                            </g>
                        </g>
                    </g>
                </g>
            </g>
        </g>
    </g>
</svg>