<?xml version="1.0" encoding="UTF-8" standalone="no"?>
<svg width="85px" height="90px" viewBox="0 0 85 90" version="1.1" xmlns="http://www.w3.org/2000/svg" xmlns:xlink="http://www.w3.org/1999/xlink">
    <!-- Generator: Sketch 3.8.2 (29753) - http://www.bohemiancoding.com/sketch -->
    <title>angular</title>
    <desc>Created with Sketch.</desc>
    <defs></defs>
    <g id="Page-1" stroke="none" stroke-width="1" fill="none" fill-rule="evenodd">
        <g id="angular">
            <g id="Page-1">
                <g id="angular">
                    <g id="Hifidelity">
                        <g id="Desktop-HD-Copy-13">
                            <g id="Specialties">
                                <g id="angular-icon-1">
                                    <g id="Group">
                                        <polygon id="Shape" fill="#E7ECEA" points="0.032994133 15.0261447 41.7045841 0.230159765 84.4979747 14.7631049 77.5692067 69.7055288 41.7045841 89.4992687 6.4008618 69.9685685"></polygon>
                                        <polygon id="Shape" fill="#C9CECC" points="84.4979747 14.7631049 41.7045841 0.230159765 41.7045841 89.4992687 77.5692067 69.7384088"></polygon>
                                        <path d="M41.7705724,10.6531092 L41.7705724,10.6531092 L15.8041897,68.2259304 L25.5044648,68.0615308 L30.7175378,55.0739438 L41.8035666,55.0739438 L41.8365607,55.0739438 L54.0113958,55.0739438 L59.7193808,68.2259304 L68.990732,68.3903301 L41.7705724,10.6531092 L41.7705724,10.6531092 L41.7705724,10.6531092 L41.7705724,10.6531092 L41.7705724,10.6531092 Z M41.8365607,29.0987703 L50.6130001,47.3800318 L42.1994963,47.3800318 L41.7705724,47.3800318 L34.1159334,47.3800318 L41.8365607,29.0987703 L41.8365607,29.0987703 L41.8365607,29.0987703 L41.8365607,29.0987703 L41.8365607,29.0987703 Z" id="Shape" fill="#333333"></path>
                                    </g>
                                </g>
                            </g>
                        </g>
                    </g>
                </g>
            </g>
        </g>
    </g>
</svg>