<?xml version="1.0" encoding="UTF-8" standalone="no"?>
<svg width="106px" height="79px" viewBox="0 0 106 79" version="1.1" xmlns="http://www.w3.org/2000/svg" xmlns:xlink="http://www.w3.org/1999/xlink">
    <!-- Generator: Sketch 3.8.2 (29753) - http://www.bohemiancoding.com/sketch -->
    <title>4as</title>
    <desc>Created with Sketch.</desc>
    <defs></defs>
    <g id="Page-1" stroke="none" stroke-width="1" fill="none" fill-rule="evenodd">
        <g id="Artboard-1-Copy-4" transform="translate(-117.000000, -73.000000)" fill="#808080">
            <g id="4as" transform="translate(117.000000, 73.000000)">
                <g id="Page-1">
                    <g>
                        <g id="4as">
                            <g id="Page-1">
                                <g id="4as">
                                    <g id="Page-1">
                                        <g id="4as">
                                            <path d="M45.796,78.2947368 L55.854,78.2947368 L55.854,0.705263158 L15.194,57.8315789 L45.796,57.8315789 L45.796,78.2947368 Z M46.01,32.2526316 L46.01,48.0263158 L35.524,48.0263158 L46.01,32.2526316 Z" id="Combined-Shape"></path>
                                            <polygon id="Shape" points="11.77 61.6684211 24.824 61.6684211 14.124 78.2947368 0.856 78.2947368 11.77 61.6684211"></polygon>
                                            <rect id="Rectangle-path" x="52.43" y="48.0263158" width="13.054" height="10.4447368"></rect>
                                            <polygon id="Shape" points="72.118 48.0263158 84.316 48.0263158 77.04 58.2578947 65.27 58.2578947 72.118 48.0263158"></polygon>
                                            <path d="M105.716,49.7315789 C105.716,49.7315789 102.72,48.0263158 96.086,48.0263158 C92.234,48.0263158 87.74,49.0921053 85.172,52.0763158 C82.604,55.0605263 83.032,60.1763158 85.814,62.7342105 C87.74,64.4394737 90.95,65.2921053 92.234,67.4236842 C92.448,67.85 92.662,68.2763158 92.448,68.7026316 C92.234,69.1289474 92.02,69.5552632 91.592,69.5552632 C89.666,70.4078947 87.74,69.5552632 86.028,68.9157895 C85.814,68.9157895 82.604,67.85 82.604,67.85 L77.682,74.6710526 C77.682,74.6710526 83.246,76.8026316 83.46,76.8026316 C87.312,77.8684211 91.592,78.2947368 95.444,76.8026316 C98.226,75.7368421 100.58,73.8184211 102.078,71.4736842 C103.148,69.9815789 103.79,67.85 103.576,65.9315789 C103.362,63.8 102.078,62.0947368 100.366,60.8157895 C98.868,59.75 93.304,57.6184211 94.374,55.0605263 C95.016,53.1421053 98.654,54.4210526 99.938,54.8473684 C99.938,54.8473684 101.65,55.7 101.436,55.9131579 C101.65,56.3394737 105.716,49.7315789 105.716,49.7315789 L105.716,49.7315789 L105.716,49.7315789 L105.716,49.7315789 Z" id="Shape"></path>
                                        </g>
                                    </g>
                                </g>
                            </g>
                        </g>
                    </g>
                </g>
            </g>
        </g>
    </g>
</svg>