<?xml version="1.0" encoding="UTF-8" standalone="no"?>
<svg width="139px" height="92px" viewBox="0 0 139 92" version="1.1" xmlns="http://www.w3.org/2000/svg" xmlns:xlink="http://www.w3.org/1999/xlink">
    <!-- Generator: Sketch 3.8.2 (29753) - http://www.bohemiancoding.com/sketch -->
    <title>fanta</title>
    <desc>Created with Sketch.</desc>
    <defs></defs>
    <g id="Page-1" stroke="none" stroke-width="1" fill="none" fill-rule="evenodd">
        <g id="Artboard-1-Copy-2" transform="translate(-101.000000, -66.000000)" fill="#808080">
            <g id="fanta" transform="translate(101.000000, 66.000000)">
                <g id="Page-1">
                    <g>
                        <g id="fanta">
                            <path d="M82.3927538,16.2554698 C82.3927538,16.2554698 75.9463769,12.8394653 68.8956521,19.2695914 C68.8956521,19.2695914 63.0536231,24.6950104 57.4130434,25.2978347 C57.4130434,25.2978347 58.0173914,24.4940689 58.0173914,22.0827716 C58.0173914,22.0827716 48.9521738,31.9289023 35.6565217,18.0639428 C35.6565217,18.0639428 39.6855072,20.4752401 46.937681,10.6291094 C46.937681,10.6291094 54.9956521,-0.221728487 61.8449276,3.19427602 C61.8449276,3.19427602 61.2405797,1.18486161 60.2333334,0.582037281 C60.2333334,0.782978723 78.3637683,-3.23585012 82.3927538,16.2554698 L82.3927538,16.2554698 L82.3927538,16.2554698 Z" id="Shape"></path>
                            <path d="M132.755072,36.7514969 C134.971014,29.7185464 133.762319,20.6761815 126.107246,17.260177 C124.294203,16.4564112 122.27971,16.0545283 120.265217,16.0545283 C117.646377,16.0545283 115.228986,16.8582941 113.214493,17.6620599 C113.013043,15.6526455 112.207246,14.0451139 110.394203,12.4375824 C109.185507,11.4328752 107.573913,10.8300508 105.76087,10.8300508 C104.350724,10.8300508 102.73913,11.0309923 100.926087,11.6338166 C100.12029,10.6291094 95.8898552,5.80651478 91.0550724,5.80651478 C89.242029,5.80651478 87.6304348,6.4093391 86.421739,7.61498775 C83.1985507,10.6291094 84.0043479,15.0498211 85.0115941,18.0639428 C84.4072462,18.2648842 83.8028986,18.4658256 83.1985507,18.4658256 C81.7884059,18.6667671 79.3710145,20.0733572 78.9681159,22.4846545 L78.9681159,23.4893617 L77.3565217,23.4893617 C75.7449276,23.4893617 74.1333334,23.6903031 72.521739,24.092186 C68.2913045,25.2978347 65.8739131,28.1110149 64.4637683,30.3213708 C63.657971,29.9194879 62.6507245,29.7185464 61.6434783,29.7185464 C60.6362317,29.7185464 59.8304348,29.9194879 59.0246376,30.5223122 C56.8086955,32.1298436 57.0101448,34.3401996 57.6144928,36.1486726 C56.6072462,34.9430239 55.6,33.9383169 54.3913045,33.3354922 C51.5710145,31.5270194 48.3478262,30.5223122 45.3260869,30.5223122 C41.7,30.5223122 38.4768117,31.7279608 35.857971,33.5364338 C36.6637683,32.1298436 37.2681159,30.5223122 37.6710145,29.1157221 C38.0739131,26.7044248 37.4695652,24.4940689 36.0594203,22.4846545 C34.4478262,20.4752401 31.8289855,19.4705329 28.4043478,19.4705329 C24.173913,19.4705329 19.3391304,20.877123 15.7130435,23.2884203 C15.3101449,23.4893617 15.1086957,23.6903031 14.7057971,23.8912446 C11.2811594,25.900659 6.6478261,28.7138392 2.82028986,34.5411412 C0.402898552,38.1580871 -0.201449276,41.7750329 0.402898552,49.008925 C0.402898552,50.817398 1.81304348,75.5331951 20.9507246,88.9962719 C22.7637681,90.2019205 24.9797101,91.6085107 27.3971014,91.6085107 C29.2101449,91.6085107 33.642029,90.8047448 33.642029,82.5661456 C33.642029,80.9586143 33.642029,79.3510825 33.4405797,77.7435511 C34.4478262,79.1501413 35.6565217,80.3557899 37.0666666,81.1595558 C39.2826086,82.3652044 41.4985507,83.16897 43.7144928,83.16897 C50.362319,83.16897 55.1971014,77.9444927 55.3985507,73.1218979 C55.3985507,71.9162492 55.3985507,70.7106006 54.9956521,69.7058935 C57.0101448,70.3087178 59.0246376,70.7106006 60.837681,70.7106006 L61.6434783,70.7106006 C64.4637683,70.7106006 65.6724638,69.3040104 66.0753624,68.2993034 C66.67971,67.2945963 66.478261,66.0889473 66.2768117,65.0842402 C67.4855072,65.6870646 68.6942028,66.0889473 70.1043479,66.0889473 L71.3130434,66.0889473 C74.1333334,65.6870646 76.3492755,64.2804744 77.557971,62.0701187 C78.162319,61.0654113 78.5652172,59.8597626 78.7666666,58.654114 C78.9681159,59.2569383 79.3710145,59.8597626 79.7739131,60.462587 C81.1840579,62.2710602 83.1985507,63.2757673 85.8173914,63.2757673 C86.6231883,63.2757673 87.6304348,63.0748258 88.637681,62.8738845 C93.4724638,61.6682356 96.0913045,57.4484654 97.3,52.6258709 C97.9043479,53.2286952 98.7101448,53.4296368 99.5159421,53.4296368 C101.328986,53.4296368 102.537681,52.2239878 103.746377,51.0183392 C103.947826,50.817398 105.962319,48.6070419 107.573913,44.5882133 C107.976812,45.3919788 108.581159,45.9948031 108.984058,46.3966862 C110.797101,48.0042176 113.214493,48.8079835 115.430435,48.8079835 C118.049276,48.8079835 120.265217,47.6023348 121.473913,45.5929204 C123.085507,46.9995105 125.1,48.0042176 127.718841,48.6070419 C128.121739,48.6070419 128.524638,48.8079835 128.927536,48.8079835 C130.53913,48.8079835 131.747826,48.0042176 132.553623,46.798569 C133.56087,44.990096 132.956522,42.9806816 132.150724,41.7750329 C131.949276,41.1722086 131.546377,40.5693843 132.755072,36.7514969 Z M108.581159,14.6479382 C106.566667,12.8394653 102.537681,14.2460554 99.9188407,15.2507626 C99.5159421,14.6479382 99.1130434,14.0451139 98.7101448,13.4422896 C98.7101448,13.4422896 92.4652172,5.80651478 88.4362317,9.62440217 C86.6231883,11.4328752 86.421739,14.4469968 88.8391303,19.8724158 C88.8391303,19.8724158 86.22029,20.877123 83.6014493,21.2790058 C82.7956521,21.4799473 79.9753624,23.0874788 83.4,25.0968933 C87.4289855,27.3072491 90.2492755,27.5081905 92.8681159,27.709132 C92.8681159,27.709132 99.5159421,36.9524384 98.5086955,47.2004517 C97.9043479,52.2239878 99.9188407,50.6164564 101.127536,49.2098662 C101.127536,49.2098662 109.789855,39.96656 104.552174,24.8959518 C105.55942,24.2931275 106.969565,23.4893617 107.976812,22.283713 C109.789855,20.6761815 112.005797,17.6620599 108.581159,14.6479382 Z M118.855072,29.3166635 C118.855072,29.3166635 118.855072,24.6950104 113.617391,25.2978347 C109.386957,25.6997176 110.998551,23.2884203 111.804348,22.283713 C113.415942,20.4752401 118.855072,17.260177 124.898551,19.8724158 C131.143478,22.4846545 131.546377,30.5223122 129.934783,35.947731 C128.524638,40.3684428 128.927536,41.9759745 129.733333,43.1816231 C130.53913,44.3872717 130.53913,46.3966862 128.323188,45.7938619 C126.308696,45.3919788 121.876812,44.1863302 120.869565,38.5599698 C119.862319,33.5364338 118.049276,32.5317267 116.034783,33.3354922 C114.423188,33.9383169 113.013043,37.3543212 116.236232,38.3590283 C119.66087,39.5646772 120.265217,41.5740914 119.257971,43.7844474 C117.847826,46.798569 113.818841,46.3966862 110.998551,44.1863302 C109.386957,42.9806816 106.566667,36.9524384 110.998551,32.3307851 C114.221739,28.5128978 117.847826,29.1157221 118.855072,29.3166635 Z M65.8739131,34.7420824 C65.8739131,34.7420824 62.8521738,31.5270194 61.0391303,32.9336095 C59.4275362,34.1392581 61.442029,36.9524384 62.2478262,38.3590283 C62.8521738,39.7656184 63.0536231,42.9806816 63.0536231,49.008925 C63.0536231,55.0371681 64.4637683,64.0795332 70.9101448,63.2757673 C77.3565217,62.2710602 76.5507245,55.0371681 75.1405797,51.0183392 C73.7304348,46.9995105 68.4927538,39.7656184 72.1188407,34.3401996 C74.737681,30.3213708 79.9753624,32.3307851 81.3855072,35.3449067 C83.4,39.7656184 82.3927538,45.5929204 81.1840579,50.2145736 C79.9753624,55.2381097 81.3855072,61.8691771 88.0333334,60.0607042 C94.6811593,58.2522313 95.6884059,49.6117493 94.6811593,43.3825647 C93.6739131,36.7514969 86.22029,23.4893617 73.7304348,26.9053662 C67.4855072,28.5128978 65.8739131,34.7420824 65.8739131,34.7420824 Z M43.5130434,50.2145736 C43.5130434,50.2145736 42.5057972,41.5740914 36.0594203,43.985389 C32.4333333,45.3919788 32.0304348,42.9806816 33.0376812,40.9712671 C35.0521738,36.3496141 43.7144928,30.3213708 53.1826086,35.947731 C57.4130434,38.5599698 59.8304348,44.1863302 60.2333334,55.4390509 C60.4347828,61.6682356 62.6507245,64.4814159 62.6507245,64.4814159 C62.6507245,64.4814159 65.6724638,68.2993034 61.2405797,67.8974206 C56.8086955,67.4955375 51.7724638,66.4908304 48.3478262,59.8597626 C45.7289855,54.6352854 41.0956521,56.6446995 40.0884059,58.8550556 C39.2826086,60.6635285 38.4768117,65.486123 44.1173914,65.8880061 C49.9594203,66.2898889 52.578261,67.8974206 52.3768117,72.7200151 C52.1753624,77.3416684 45.3260869,82.7670872 38.4768117,78.547317 C31.6275362,74.3275465 27.3971014,58.0512897 43.5130434,50.2145736 Z M33.4405797,48.8079835 C30.8217391,46.3966862 25.1811594,49.6117493 22.3608696,51.2192807 C21.5550724,49.4108078 20.5478261,47.4013933 19.3391304,45.3919788 C19.3391304,45.3919788 39.4840579,32.1298436 33.4405797,24.2931275 C30.8217391,20.877123 22.1594203,22.283713 16.7202899,25.6997176 C13.4971014,27.709132 8.66231883,30.3213708 4.63333334,36.1486726 C2.82028986,38.7609114 2.01449276,41.5740914 2.61884058,48.8079835 C2.61884058,48.8079835 3.42463769,73.7247222 21.957971,86.5849746 C23.7710145,87.7906232 30.015942,92.211335 30.2173913,82.3652044 C30.2173913,76.336961 29.2101449,69.504952 26.3898551,61.4672944 C30.8217391,57.8503485 36.0594203,51.2192807 33.4405797,48.8079835 Z" id="Combined-Shape"></path>
                            <path d="M135.978261,37.3543212 C137.791304,37.3543212 139,38.7609114 139,40.3684428 C139,41.9759745 137.589855,43.3825647 135.978261,43.3825647 C134.165217,43.3825647 132.956522,41.9759745 132.956522,40.3684428 C132.755072,38.5599698 134.165217,37.3543212 135.978261,37.3543212 L135.978261,37.3543212 L135.978261,37.3543212 L135.978261,37.3543212 Z M135.978261,37.9571455 C134.568116,37.9571455 133.762319,38.9618529 133.762319,40.3684428 C133.762319,41.7750329 134.769565,42.77974 136.17971,42.77974 C137.589855,42.77974 138.395652,41.7750329 138.395652,40.3684428 C138.194203,38.9618529 137.186957,37.9571455 135.978261,37.9571455 L135.978261,37.9571455 L135.978261,37.9571455 L135.978261,37.9571455 Z M135.373913,41.7750329 L134.769565,41.7750329 L134.769565,38.7609114 C134.971014,38.7609114 135.373913,38.5599698 135.978261,38.5599698 C136.582609,38.5599698 136.784058,38.5599698 136.985507,38.7609114 C137.186957,38.9618529 137.186957,39.1627941 137.186957,39.3637357 C137.186957,39.7656184 136.985507,39.96656 136.582609,40.1675015 L136.582609,40.1675015 C136.784058,40.1675015 136.985507,40.5693843 137.186957,40.9712671 C137.186957,41.3731502 137.388406,41.5740914 137.388406,41.7750329 L136.582609,41.7750329 C136.582609,41.5740914 136.381159,41.3731502 136.381159,40.9712671 C136.381159,40.5693843 136.17971,40.5693843 135.776812,40.5693843 L135.373913,40.5693843 L135.373913,41.7750329 L135.373913,41.7750329 L135.373913,41.7750329 Z M135.373913,40.1675015 L135.776812,40.1675015 C136.17971,40.1675015 136.381159,39.96656 136.381159,39.7656184 C136.381159,39.5646772 136.17971,39.3637357 135.776812,39.3637357 L135.373913,39.3637357 L135.373913,40.1675015 L135.373913,40.1675015 L135.373913,40.1675015 Z" id="Shape"></path>
                        </g>
                    </g>
                </g>
            </g>
        </g>
    </g>
</svg>