<?xml version="1.0" encoding="UTF-8" standalone="no"?>
<svg width="103px" height="101px" viewBox="0 0 103 101" version="1.1" xmlns="http://www.w3.org/2000/svg" xmlns:xlink="http://www.w3.org/1999/xlink">
    <!-- Generator: Sketch 3.8.2 (29753) - http://www.bohemiancoding.com/sketch -->
    <title>sprite</title>
    <desc>Created with Sketch.</desc>
    <defs></defs>
    <g id="Page-1" stroke="none" stroke-width="1" fill="none" fill-rule="evenodd">
        <g id="Artboard-1-Copy-5" transform="translate(-119.000000, -62.000000)" fill="#808080">
            <g id="sprite" transform="translate(119.000000, 62.000000)">
                <g id="Artboard-1">
                    <g id="Page-1">
                        <g id="Artboard-1">
                            <g id="sprite">
                                <g id="Page-1">
                                    <g id="sprite">
                                        <path d="M86.1836736,35.0159395 L77.3551022,42.773962 L70.2081632,22.854715 L68.3163264,24.5321252 L67.0551022,21.1773047 C67.0551022,21.1773047 72.9408165,16.7741028 69.9979593,7.75802254 L69.9979593,7.75802254 L72.5204082,5.66125969 L75.253061,14.048311 L78.1959182,11.5321957 L79.246939,15.0966925 L76.5142857,17.6128079 L81.9795918,32.2901478 C82.8204082,33.967558 83.6612247,35.435292 86.1836736,35.0159395 L86.1836736,35.0159395 L86.1836736,35.0159395 L86.1836736,35.0159395 Z" id="Shape"></path>
                                        <path d="M58.646939,28.5159747 L65.3734692,22.4353624 L70.4183676,36.903026 C71.6795918,40.2578466 72.5204082,43.8223434 75.6734692,43.8223434 L75.6734692,43.8223434 L66.6346939,51.5803657 L58.646939,28.5159747 L58.646939,28.5159747 L58.646939,28.5159747 Z" id="Shape"></path>
                                        <path d="M47.2959184,44.4513723 C45.8244898,41.306228 44.5632653,41.7255806 43.722449,41.9352569 L43.722449,41.9352569 L50.6591835,35.8546446 L52.3408165,40.2578466 C50.4489797,33.7578818 56.7551022,29.5643561 56.7551022,29.5643561 L56.7551022,29.5643561 L59.6979593,37.5320549 C58.4367346,36.4836735 54.653061,39.838494 55.7040818,43.6126671 L55.7040818,43.6126671 L57.5959182,49.483603 C58.8571429,52.8384236 59.9081632,55.9835677 63.4816324,55.1448629 L63.4816324,55.1448629 L53.812245,63.5319142 L47.2959184,44.4513723 L47.2959184,44.4513723 L47.2959184,44.4513723 Z" id="Shape"></path>
                                        <path d="M99.846939,22.854715 C97.9551022,25.5805067 93.9612247,29.1450035 90.5979593,28.7256509 C87.6551022,28.5159747 84.9224489,26.4192118 83.4510203,22.854715 L83.4510203,22.854715 L80.9285714,16.3547502 C79.6673467,12.1612245 80.7183676,8.17737508 85.3428571,3.9838494 C88.0755104,1.46773399 91.8591835,-0.838705135 94.8020407,0.838705135 C97.1142857,2.09676285 98.3755104,7.12899368 98.3755104,7.12899368 L98.3755104,7.12899368 L99.0061225,8.80640394 L89.546939,16.7741028 C90.5979593,19.7095707 92.2795918,21.1773047 94.3816324,20.7579521 C97.1142857,19.919247 99.4265308,17.1934553 100.477551,12.5805771 L100.477551,12.5805771 L102.159184,17.1934553 C101.738775,19.4998945 100.897959,20.9676285 99.846939,22.854715 L99.846939,22.854715 L99.846939,22.854715 L99.846939,22.854715 Z M88.2857143,7.12899368 C86.1836736,9.22575653 87.4448978,11.1128431 88.2857143,13.8386348 L88.2857143,13.8386348 L91.8591835,10.6934905 C92.2795918,10.0644617 91.8591835,9.64510907 91.6489797,9.22575653 C91.6489797,9.22575653 90.5979593,5.2419071 88.2857143,7.12899368 L88.2857143,7.12899368 L88.2857143,7.12899368 L88.2857143,7.12899368 Z" id="Shape"></path>
                                        <path d="M49.8183676,58.7093596 C52.5510203,66.8867348 45.4040816,72.1286416 44.1428571,72.1286416 C42.8816326,72.3383182 42.4612245,72.3383182 41.6204082,72.1286416 L44.5632653,79.6769881 C45.6142857,81.7737508 48.1367347,82.1931034 48.5571429,81.7737508 L48.5571429,81.7737508 L39.0979592,89.951126 C35.5244898,79.4673115 32.7918368,71.7092894 28.7979592,61.4351515 C27.7469388,59.1287122 25.855102,58.4996835 24.5938775,58.7093596 L24.5938775,58.7093596 L36.155102,48.4352217 C39.3081632,45.70943 43.9326531,45.70943 46.244898,50.1126317 L46.244898,50.1126317 L49.8183676,58.7093596 L49.8183676,58.7093596 L49.8183676,58.7093596 Z M35.7346939,55.354539 L40.1489796,67.5157635 C41.4102041,69.4028502 44.1428571,67.3060875 42.8816326,64.5802956 L42.8816326,64.5802956 L39.9387755,55.7738916 C38.4673469,51.5803657 35.5244898,54.3061576 35.7346939,55.354539 L35.7346939,55.354539 L35.7346939,55.354539 L35.7346939,55.354539 Z" id="Shape"></path>
                                        <path d="M10.9306123,76.3221675 C10.9306123,76.3221675 14.7142857,78.6286068 18.9183674,80.9350455 C25.0142857,84.0801901 25.2244898,89.1124208 21.6510204,91.8382127 C17.6571429,94.9833567 13.2428571,94.354328 10.0897959,89.1124208 L10.0897959,89.1124208 L10.7204082,98.9672061 C18.4979592,104.418789 31.3204082,95.822062 33.422449,85.9672767 C34.0530612,82.4027795 34.0530612,76.1124914 28.7979592,72.7576708 C23.9632653,69.6125263 18.4979592,67.0964109 18.077551,66.8867348 C16.1857143,66.0480296 14.5040816,65.2093243 13.0326531,64.3706195 C9.66938775,62.4835329 10.3,58.9190357 11.1408163,57.6609783 C13.8734694,53.6771289 18.7081632,53.6771289 22.4918368,58.290007 L22.4918368,58.290007 L20.1795918,49.0642504 C11.7714286,45.2900774 -0.420408163,56.6125969 0.840816324,65.4190008 C1.05102041,67.7254396 2.3122449,72.1286416 10.5102041,76.3221675 L10.5102041,76.3221675 L10.9306123,76.3221675 L10.9306123,76.3221675 L10.9306123,76.3221675 Z" id="Shape"></path>
                                        <path d="M64.7428571,8.59672767 L64.7428571,8.59672767 C64.953061,8.38705135 65.7938775,7.96769881 66.2142857,8.17737508 L66.2142857,8.17737508 C66.2142857,8.17737508 66.6346939,8.59672767 66.6346939,10.2741379 L66.6346939,10.2741379 C66.6346939,10.2741379 67.0551022,17.6128079 62.8510203,20.7579521 C62.8510203,20.7579521 60.7489797,22.6450387 57.3857143,22.4353624 C57.3857143,22.4353624 55.2836736,22.2256861 54.653061,22.2256861 L54.653061,22.2256861 C54.653061,22.2256861 52.7612247,21.5966573 51.2897961,23.0643913 C51.0795918,23.2740676 50.8693879,23.4837438 50.6591835,23.2740676 L50.6591835,23.2740676 C50.4489797,23.2740676 50.0285714,22.854715 50.0285714,21.1773047 L50.0285714,18.8708656 C51.0795918,18.451513 51.9204082,18.6611893 51.9204082,18.6611893 L51.9204082,18.6611893 C52.5510203,18.6611893 54.653061,18.8708656 54.653061,18.8708656 C58.2265308,19.0805419 60.3285714,17.1934553 60.5387753,16.983779 C63.6918368,15.0966925 64.5326533,11.1128431 64.7428571,8.59672767 L64.7428571,8.59672767 L64.7428571,8.59672767 L64.7428571,8.59672767 Z" id="Shape"></path>
                                        <path d="M64.112245,9.01608021 C63.9020407,11.5321957 63.0612247,14.8870162 60.5387753,16.7741028 C60.5387753,16.7741028 58.4367346,18.6611893 55.0734692,18.451513 C55.0734692,18.451513 52.9714286,18.2418367 52.3408165,18.2418367 L52.3408165,18.2418367 C52.3408165,18.2418367 50.4489797,17.6128079 48.977551,19.0805419 C48.7673469,19.2902181 48.5571429,19.4998945 48.3469388,19.2902181 L48.3469388,19.2902181 C48.1367347,19.2902181 47.7163265,18.8708656 47.7163265,17.1934553 C47.7163265,17.1934553 47.5061225,12.9999296 48.5571429,9.85478534 C48.5571429,9.64510907 50.0285714,5.66125969 54.2326533,5.2419071 C54.2326533,5.2419071 57.3857143,5.03223083 58.8571429,5.2419071 C59.2775511,5.2419071 61.8,5.45158337 62.8510203,4.40320197 L62.8510203,4.40320197 C63.0612247,4.19352569 63.6918368,3.9838494 63.9020407,4.19352569 L63.9020407,4.19352569 C63.9020407,4.19352569 64.3224489,4.61287826 64.3224489,6.29028855 L64.3224489,6.29028855 C64.112245,6.29028855 64.112245,7.54834622 64.112245,9.01608021 L64.112245,9.01608021 L64.112245,9.01608021 L64.112245,9.01608021 Z" id="Shape"></path>
                                    </g>
                                </g>
                            </g>
                        </g>
                    </g>
                </g>
            </g>
        </g>
    </g>
</svg>