<?xml version="1.0" encoding="utf-8"?>
<!-- Generator: Adobe Illustrator 18.1.1, SVG Export Plug-In . SVG Version: 6.00 Build 0)  -->
<!DOCTYPE svg PUBLIC "-//W3C//DTD SVG 1.1//EN" "http://www.w3.org/Graphics/SVG/1.1/DTD/svg11.dtd">
<svg version="1.1" id="Layer_1" xmlns="http://www.w3.org/2000/svg" xmlns:xlink="http://www.w3.org/1999/xlink" x="0px" y="0px"
	 viewBox="333.5 438.2 150 150" enable-background="new 333.5 438.2 150 150" xml:space="preserve">
<g>
	<path fill="#F24040" d="M22.4,404.6c4.6,0,4.9-4.9,4.9-4.9v-7.9H5.4c-4.9,0-4.9,4.9-4.9,4.9v7.9h23.6H22.4z"/>
</g>
<g>
	<path fill="#F24040" d="M22.4,418.6c4.6,0,4.9-4.6,4.9-4.6v-7.9H5.4c-4.9,0-4.9,4.6-4.9,4.6v7.9h24.6H22.4z"/>
</g>
<g>
	<path fill="#F24040" d="M43.3,413.7c0,4.6,4.9,4.9,4.9,4.9H56l0-21.8c0-4.9-4.9-4.9-4.9-4.9h-7.9l0,23.6V413.7z"/>
</g>
<g>
	<path fill="#F24040" d="M29.3,413.7c0,4.6,4.6,4.9,4.6,4.9h7.9l0-21.8c0-4.9-4.6-4.9-4.6-4.9l-7.9,0l0,24.6V413.7z"/>
</g>
<g>
	<path d="M408.4,440.5c-40.1,0-72.5,32.5-72.5,72.5s32.5,72.5,72.5,72.5s72.5-32.5,72.5-72.5S448.4,440.5,408.4,440.5z M406.4,530
		c0,0-0.5,8.9-9.4,8.9h5.4H397h-42.4v-15.3c0,0,0-8.9,9.4-8.9h42.4V530z M406.4,502.4c0,0-0.5,9.4-9.4,9.4h3.5H397h-42.4v-15.3
		c0,0,0-9.4,9.4-9.4h42.4V502.4z M434.6,538.9h-15.3c0,0-8.9-0.5-8.9-9.4v5.4v-5.4v-42.4h15.3c0,0,8.9,0,8.9,9.4V538.9z
		 M446.9,538.9c0,0-9.4-0.5-9.4-9.4v3.5v-3.5v-42.4h15.3c0,0,9.4,0,9.4,9.4v42.4H446.9z"/>
	
		<line fill="none" stroke="#FFFFFF" stroke-width="0" stroke-linecap="round" stroke-linejoin="round" x1="397" y1="511.8" x2="400.5" y2="511.8"/>
	
		<line fill="none" stroke="#FFFFFF" stroke-width="0" stroke-linecap="round" stroke-linejoin="round" x1="402.4" y1="538.9" x2="397" y2="538.9"/>
	
		<line fill="none" stroke="#FFFFFF" stroke-width="0" stroke-linecap="round" stroke-linejoin="round" x1="437.5" y1="529.5" x2="437.5" y2="533"/>
	
		<line fill="none" stroke="#FFFFFF" stroke-width="0" stroke-linecap="round" stroke-linejoin="round" x1="410.4" y1="529.5" x2="410.4" y2="535"/>
</g>
</svg>
