<?xml version="1.0" encoding="UTF-8" standalone="no"?>
<svg width="60px" height="50px" viewBox="0 0 60 50" version="1.1" xmlns="http://www.w3.org/2000/svg" xmlns:xlink="http://www.w3.org/1999/xlink">
    <!-- Generator: Sketch 39.1 (31720) - http://www.bohemiancoding.com/sketch -->
    <title>css3</title>
    <desc>Created with Sketch.</desc>
    <defs></defs>
    <g id="Page-1" stroke="none" stroke-width="1" fill="none" fill-rule="evenodd">
        <g id="css3" fill="#3972FF">
            <g id="Group">
                <path d="M17.8612121,29.6165152 C17.5743939,29.3124242 17.5743939,28.814697 17.8612121,28.5104545 L22.9378788,23.1254545 C23.224697,22.8213636 23.2610606,22.2936364 23.0189394,21.9528788 L22.5078788,21.2333333 C22.2657576,20.8925758 21.8310606,20.8607576 21.5422727,21.1627273 L14.5024242,28.5145455 C14.2133333,28.8162121 14.2133333,29.310303 14.5024242,29.6124242 L21.5422727,36.9637879 C21.8313636,37.2657576 22.2657576,37.2337879 22.5078788,36.8931818 L23.0192424,36.1734848 C23.2613636,35.8325758 23.2245455,35.3051515 22.9378788,35.0010606 L17.8612121,29.6165152 L17.8612121,29.6165152 Z" id="Shape"></path>
                <path d="M33.1545455,20.4766667 L32.2098485,20.4766667 C31.7918182,20.4766667 31.3372727,20.799697 31.2001515,21.1945455 L25.7266667,36.9318182 C25.5893939,37.3265152 25.8192424,37.649697 26.2371212,37.649697 L27.1813636,37.649697 C27.5992424,37.649697 28.0537879,37.3265152 28.1910606,36.9318182 L33.664697,21.194697 C33.8022727,20.799697 33.5724242,20.4766667 33.1545455,20.4766667 L33.1545455,20.4766667 Z" id="Shape"></path>
                <path d="M37.85,21.1627273 C37.5609091,20.8607576 37.1266667,20.8925758 36.8843939,21.2333333 L36.3733333,21.9528788 C36.1312121,22.2936364 36.1678788,22.8213636 36.4543939,23.1254545 L41.5313636,28.5104545 C41.8183333,28.814697 41.8183333,29.3124242 41.5313636,29.6165152 L36.4543939,35.0010606 C36.1675758,35.3051515 36.1312121,35.8325758 36.3733333,36.1734848 L36.8843939,36.8931818 C37.1266667,37.2337879 37.5609091,37.2657576 37.85,36.9636364 L44.8898485,29.6122727 C45.1789394,29.310303 45.1786364,28.8162121 44.8898485,28.5145455 L37.85,21.1627273 L37.85,21.1627273 Z" id="Shape"></path>
                <path d="M55.8637879,0.127121212 L3.52772727,0.127121212 C1.58257576,0.127121212 0,1.70969697 0,3.655 L0,46.3425758 C0,48.2878788 1.58257576,49.8704545 3.52772727,49.8704545 L55.8637879,49.8704545 C57.8092424,49.8704545 59.3915152,48.2878788 59.3915152,46.3425758 L59.3915152,3.655 C59.3918182,1.70984848 57.8092424,0.127121212 55.8637879,0.127121212 L55.8637879,0.127121212 Z M24.4171212,4.56818182 C24.4171212,4.12530303 24.779697,3.76287879 25.2222727,3.76287879 L30.0510606,3.76287879 C30.4939394,3.76287879 30.8560606,4.12530303 30.8560606,4.56818182 L30.8560606,6.08242424 C30.8560606,6.52530303 30.4936364,6.88772727 30.0510606,6.88772727 L25.2222727,6.88772727 C24.7795455,6.88772727 24.4171212,6.52530303 24.4171212,6.08242424 L24.4171212,4.56818182 L24.4171212,4.56818182 Z M14.5027273,4.56818182 C14.5027273,4.12530303 14.8651515,3.76287879 15.3078788,3.76287879 L20.1365152,3.76287879 C20.5793939,3.76287879 20.9416667,4.12530303 20.9416667,4.56818182 L20.9416667,6.08242424 C20.9416667,6.52530303 20.5792424,6.88772727 20.1365152,6.88772727 L15.3078788,6.88772727 C14.865,6.88772727 14.5027273,6.52530303 14.5027273,6.08242424 L14.5027273,4.56818182 L14.5027273,4.56818182 Z M4.83924242,4.56818182 C4.83924242,4.12530303 5.20166667,3.76287879 5.64439394,3.76287879 L10.4730303,3.76287879 C10.9159091,3.76287879 11.2781818,4.12530303 11.2781818,4.56818182 L11.2781818,6.08242424 C11.2781818,6.52530303 10.9157576,6.88772727 10.4730303,6.88772727 L5.64439394,6.88772727 C5.20151515,6.88772727 4.83924242,6.52530303 4.83924242,6.08242424 L4.83924242,4.56818182 L4.83924242,4.56818182 Z M56.5692424,45.8783333 C56.5692424,46.3427273 56.1856061,46.7227273 55.7169697,46.7227273 L3.67484848,46.7227273 C3.20606061,46.7227273 2.82257576,46.3427273 2.82257576,45.8783333 L2.82257576,10.7074242 C2.82257576,10.2430303 3.20606061,9.8630303 3.67484848,9.8630303 L55.7171212,9.8630303 C56.1857576,9.8630303 56.5693939,10.2430303 56.5693939,10.7074242 L56.5693939,45.8783333 L56.5692424,45.8783333 L56.5692424,45.8783333 Z" id="Shape"></path>
            </g>
        </g>
    </g>
</svg>