<?xml version="1.0" encoding="UTF-8" standalone="no"?>
<svg width="55px" height="78px" viewBox="0 0 55 78" version="1.1" xmlns="http://www.w3.org/2000/svg" xmlns:xlink="http://www.w3.org/1999/xlink">
    <!-- Generator: Sketch 3.8.3 (29802) - http://www.bohemiancoding.com/sketch -->
    <title>html5</title>
    <desc>Created with Sketch.</desc>
    <defs></defs>
    <g id="Hifidelity" stroke="none" stroke-width="1" fill="none" fill-rule="evenodd">
        <g id="Desktop-HD-Copy-13" transform="translate(-289.000000, -2804.000000)">
            <g id="Specialties" transform="translate(102.000000, 2149.000000)">
                <g id="html5" transform="translate(187.000000, 655.000000)">
                    <g id="Slice-1">
                        <g id="Page-1">
                            <g id="Group">
                                <polygon id="Shape" fill="#FDC894" points="5.0539094 71.7351143 0.0577684564 15.3485429 54.9562584 15.3485429 49.9549497 71.7260143 27.4734228 77.9974"></polygon>
                                <polygon id="Shape" fill="#FCAE62" points="27.5070134 73.2039286 45.6730705 68.1361571 49.947198 19.9589 27.5070134 19.9589"></polygon>
                                <polygon id="Shape" fill="#333333" points="27.5070134 40.872 18.4126342 40.872 17.7843792 33.7903429 27.5070134 33.7903429 27.5070134 26.8745286 27.4832047 26.8745286 10.2733725 26.8745286 10.4380034 28.73 12.1271309 47.7872571 27.5070134 47.7872571"></polygon>
                                <polygon id="Shape" fill="#333333" points="27.5070134 58.8320571 27.4769295 58.8406 19.8227013 56.7607857 19.3332383 51.2454429 15.614094 51.2454429 12.434245 51.2454429 13.3971141 62.1036 27.4752685 66.0362857 27.5070134 66.0273714"></polygon>
                                <polygon id="Shape" fill="#FDC894" points="5.16557047 0.0250714286 8.65825503 0.0250714286 8.65825503 3.49718571 11.8532383 3.49718571 11.8532383 0.0250714286 15.3461074 0.0250714286 15.3461074 10.5398429 11.8534228 10.5398429 11.8534228 7.01907143 8.65862416 7.01907143 8.65862416 10.5398429 5.16557047 10.5398429 5.16557047 0.0250714286"></polygon>
                                <polygon id="Shape" fill="#FDC894" points="19.9387919 3.51185714 16.8639597 3.51185714 16.8639597 0.0250714286 26.5077852 0.0250714286 26.5077852 3.51185714 23.4316611 3.51185714 23.4316611 10.5398429 19.9389765 10.5398429 19.9389765 3.51185714 19.9387919 3.51185714"></polygon>
                                <polygon id="Shape" fill="#FDC894" points="28.0383725 0.0250714286 31.6803691 0.0250714286 33.9204195 3.71967143 36.1586242 0.0250714286 39.8017282 0.0250714286 39.8017282 10.5398429 36.3234396 10.5398429 36.3234396 5.32814286 33.9202349 9.06657143 33.8602517 9.06657143 31.455755 5.32814286 31.455755 10.5398429 28.0381879 10.5398429 28.0381879 0.0250714286"></polygon>
                                <polygon id="Shape" fill="#FDC894" points="41.5399497 0.0250714286 45.033557 0.0250714286 45.033557 7.0642 49.9451678 7.0642 49.9451678 10.5396571 41.5397651 10.5396571 41.5397651 0.0250714286"></polygon>
                                <polygon id="Shape" fill="#333333" points="27.4832047 40.872 27.4832047 47.7872571 35.9461913 47.7872571 35.1485067 56.7561429 27.4832047 58.838 27.4832047 66.0329429 41.572802 62.1036 41.6759732 60.9354571 43.2910906 42.7289571 43.4586745 40.872 41.6067617 40.872"></polygon>
                                <polygon id="Shape" fill="#333333" points="27.4832047 26.8745286 27.4832047 31.1697286 27.4832047 33.7732571 27.4832047 33.7903429 44.0620134 33.7903429 44.0841611 33.7903429 44.2220302 32.2359143 44.5350503 28.73 44.6994966 26.8745286"></polygon>
                            </g>
                        </g>
                    </g>
                </g>
            </g>
        </g>
    </g>
</svg>