<?xml version="1.0" encoding="UTF-8" standalone="no"?>
<svg width="67px" height="63px" viewBox="0 0 67 63" version="1.1" xmlns="http://www.w3.org/2000/svg" xmlns:xlink="http://www.w3.org/1999/xlink">
    <!-- Generator: Sketch 3.8.3 (29802) - http://www.bohemiancoding.com/sketch -->
    <title>Group 3</title>
    <desc>Created with Sketch.</desc>
    <defs>
        <rect id="path-1" x="0" y="0" width="67" height="19.25" rx="2"></rect>
        <mask id="mask-2" maskContentUnits="userSpaceOnUse" maskUnits="objectBoundingBox" x="0" y="0" width="67" height="19.25" fill="white">
            <use xlink:href="#path-1"></use>
        </mask>
        <path d="M27.4310729,26.25 L2.00517692,26.25 C0.896468386,26.25 0,27.1462981 0,28.2519379 L0,60.9980621 C0,62.1097773 0.897748285,63 2.00517692,63 L64.9948231,63 C66.1035316,63 67,62.1037019 67,60.9980621 L67,28.2519379 C67,27.1402227 66.1022517,26.25 64.9948231,26.25 L37.9775931,26.25 L32.704333,20.9767399 L27.4310729,26.25 Z" id="path-3"></path>
        <mask id="mask-4" maskContentUnits="userSpaceOnUse" maskUnits="objectBoundingBox" x="0" y="0" width="67" height="42.0232601" fill="white">
            <use xlink:href="#path-3"></use>
        </mask>
    </defs>
    <g id="Hifidelity" stroke="none" stroke-width="1" fill="none" fill-rule="evenodd">
        <g id="Desktop-HD-Copy-13" transform="translate(-571.000000, -2203.000000)">
            <g id="Group-3" transform="translate(571.000000, 2203.000000)">
                <use id="Rectangle-25" stroke="#FDC894" mask="url(#mask-2)" stroke-width="2" fill="#4B4B4B" xlink:href="#path-1"></use>
                <use id="Combined-Shape" stroke="#FDC894" mask="url(#mask-4)" stroke-width="2" fill="#4B4B4B" xlink:href="#path-3"></use>
                <path d="M6.17105263,35.875 L60.8289474,35.875" id="Line" stroke="#FCAE62" stroke-linecap="square"></path>
                <path d="M6.17105263,9.625 L29.1598184,9.625" id="Line-Copy-3" stroke="#FCAE62" stroke-linecap="square"></path>
                <path d="M6.17105263,44.625 L46.7236842,44.625" id="Line-Copy" stroke="#FCAE62" stroke-linecap="square"></path>
                <path d="M6.17105263,53.375 L55.5394737,53.375" id="Line-Copy-2" stroke="#FCAE62" stroke-linecap="square"></path>
            </g>
        </g>
    </g>
</svg>