<?xml version="1.0" encoding="UTF-8" standalone="no"?>
<svg width="68px" height="68px" viewBox="0 0 68 68" version="1.1" xmlns="http://www.w3.org/2000/svg" xmlns:xlink="http://www.w3.org/1999/xlink">
    <!-- Generator: Sketch 3.8.3 (29802) - http://www.bohemiancoding.com/sketch -->
    <title>Unofficial_JavaScript_logo_2</title>
    <desc>Created with Sketch.</desc>
    <defs></defs>
    <g id="Hifidelity" stroke="none" stroke-width="1" fill="none" fill-rule="evenodd">
        <g id="Desktop-HD-Copy-13" transform="translate(-879.000000, -2813.000000)">
            <g id="Specialties" transform="translate(102.000000, 2149.000000)">
                <g id="Unofficial_JavaScript_logo_2" transform="translate(777.000000, 664.000000)">
                    <g id="Group">
                        <rect id="Rectangle-path" fill="#FDC894" x="0" y="0" width="68" height="68"></rect>
                        <path d="M39.4155723,56.7042172 C40.7852865,58.9406617 42.5673183,60.5845347 45.7190643,60.5845347 C48.3667469,60.5845347 50.0581119,59.2612331 50.0581119,57.4327886 C50.0581119,55.2416775 48.3203342,54.465614 45.4060485,53.1908839 L43.8085881,52.5054871 C39.1975405,50.5410426 36.1343024,48.0800902 36.1343024,42.8775505 C36.1343024,38.0851696 39.7857945,34.4369156 45.4923977,34.4369156 C49.5551278,34.4369156 52.4758897,35.8508839 54.5806516,39.5531061 L49.6047786,42.7480267 C48.5092231,40.7835823 47.3273183,40.0096775 45.4923977,40.0096775 C43.6207786,40.0096775 42.4345564,41.1969791 42.4345564,42.7480267 C42.4345564,44.6649791 43.621858,45.4410426 46.3634453,46.6283442 L47.9609056,47.3126617 C53.3901119,49.6408521 56.4555088,52.0143759 56.4555088,57.3507569 C56.4555088,63.1037728 51.9362072,66.2555188 45.8669373,66.2555188 C39.9325881,66.2555188 36.0986834,63.4275823 34.2227469,59.7210426 L39.4155723,56.7042172 Z M16.8428104,57.2579315 C17.8466199,59.0388839 18.7597627,60.5445982 20.9551913,60.5445982 C23.0545564,60.5445982 24.3789373,59.7232013 24.3789373,56.5293601 L24.3789373,34.801741 L30.7687786,34.801741 L30.7687786,56.6157093 C30.7687786,63.2322172 26.8895405,66.2436458 21.2271913,66.2436458 C16.1110008,66.2436458 13.1481437,63.5959632 11.64135,60.4069791 L16.8428104,57.2579315 Z" id="Shape" fill="#333333"></path>
                    </g>
                </g>
            </g>
        </g>
    </g>
</svg>