<?xml version="1.0" encoding="UTF-8" standalone="no"?>
<svg width="57px" height="50px" viewBox="0 0 57 50" version="1.1" xmlns="http://www.w3.org/2000/svg" xmlns:xlink="http://www.w3.org/1999/xlink">
    <!-- Generator: Sketch 39.1 (31720) - http://www.bohemiancoding.com/sketch -->
    <title>prototyping</title>
    <desc>Created with Sketch.</desc>
    <defs></defs>
    <g id="Page-1" stroke="none" stroke-width="1" fill="none" fill-rule="evenodd">
        <g id="prototyping" fill="#3972FF">
            <g id="Page-1">
                <g id="prototyping">
                    <g id="Group">
                        <path d="M38.012069,29.1748563 C37.3079023,29.1748563 36.6948276,29.6149425 36.3683908,30.2662356 L36.3683908,30.1670977 C36.3683908,28.8030172 35.4007184,27.6974138 34.2063218,27.6974138 C33.3840517,27.6974138 32.6692529,28.2221264 32.303592,28.9943966 C31.937931,28.2221264 31.2232759,27.6974138 30.4008621,27.6974138 C29.7425287,27.6974138 29.153592,28.0350575 28.7573276,28.5655172 L28.7573276,20.9051724 C28.7573276,19.541092 27.7895115,18.4353448 26.595546,18.4353448 C25.4012931,18.4353448 24.4331897,19.541092 24.4331897,20.9051724 L24.4331897,35.9909483 L23.4262931,33.8916667 C23.033477,33.0724138 22.2929598,32.6074713 21.529023,32.6074713 C21.1778736,32.6074713 20.8211207,32.7063218 20.491523,32.912069 C19.4446839,33.5683908 19.0609195,35.0692529 19.6352011,36.2646552 L24.6193966,46.6556034 C24.6227011,46.6675287 25.154454,47.5073276 25.4221264,47.9087644 C26.153592,49.016092 27.1242816,49.8616379 28.4033046,49.8616379 L35.9093391,49.8616379 C38.1163793,49.8616379 39.9067529,47.7418103 39.9067529,45.1277299 L39.9067529,31.3397989 C39.9066092,30.1436782 39.0583333,29.1748563 38.012069,29.1748563 L38.012069,29.1748563 L38.012069,29.1748563 Z" id="Shape"></path>
                        <path d="M52.8965517,0.104022989 L3.3908046,0.104022989 C1.52097701,0.104022989 0,1.62543103 0,3.49425287 L0.000143678161,36.4895115 C0.000143678161,38.3596264 1.52097701,39.8798851 3.39094828,39.8798851 L18.0780172,39.8798851 C18.0780172,39.8798851 19.0007184,39.8798851 18.791092,39.2126437 C18.6442529,38.7451149 17.9752874,37.5021552 17.945546,37.4439655 C17.6718391,36.9096264 16.9528736,36.9659483 16.9528736,36.9659483 L6.17356322,36.9659483 C5.72126437,36.9659483 5.35114943,36.6034483 5.35114943,36.1612069 L5.35114943,3.82183908 C5.35114943,3.3795977 5.72112069,3.01724138 6.17356322,3.01724138 L48.7481322,3.01724138 C49.200431,3.01724138 49.5706897,3.3795977 49.5706897,3.82183908 L49.5706897,36.1617816 C49.5706897,36.604023 49.2005747,36.966523 48.7481322,36.966523 L43.0857759,36.966523 C43.0857759,36.966523 41.9431034,36.8502874 41.9431034,37.8291667 L41.9431034,39.0176724 C41.9431034,39.8801724 43.1567529,39.8801724 43.1567529,39.8801724 L52.8965517,39.8801724 C54.7658046,39.8801724 56.287069,38.3599138 56.287069,36.4896552 L56.287069,3.49425287 C56.287069,1.62543103 54.7658046,0.104022989 52.8965517,0.104022989 L52.8965517,0.104022989 L52.8965517,0.104022989 Z M52.2181034,21.6149425 C51.3054598,21.6149425 50.5658046,20.8751437 50.5658046,19.9626437 C50.5658046,19.05 51.3054598,18.3103448 52.2181034,18.3103448 C53.1304598,18.3103448 53.8704023,19.05 53.8704023,19.9626437 C53.8704023,20.8752874 53.1303161,21.6149425 52.2181034,21.6149425 L52.2181034,21.6149425 L52.2181034,21.6149425 Z" id="Shape"></path>
                    </g>
                </g>
            </g>
        </g>
    </g>
</svg>