<?xml version="1.0" encoding="UTF-8" standalone="no"?>
<svg width="93px" height="82px" viewBox="0 0 93 82" version="1.1" xmlns="http://www.w3.org/2000/svg" xmlns:xlink="http://www.w3.org/1999/xlink">
    <!-- Generator: Sketch 3.8.3 (29802) - http://www.bohemiancoding.com/sketch -->
    <title>React.js_logo</title>
    <desc>Created with Sketch.</desc>
    <defs></defs>
    <g id="Hifidelity" stroke="none" stroke-width="1" fill="none" fill-rule="evenodd">
        <g id="Desktop-HD-Copy-13" transform="translate(-570.000000, -2507.000000)" fill="#FDC894">
            <g id="Specialties" transform="translate(102.000000, 2149.000000)">
                <g id="React.js_logo" transform="translate(468.000000, 358.000000)">
                    <g id="Layer_2">
                        <ellipse id="Oval" cx="46.5047904" cy="40.8572774" rx="8.28691119" ry="8.21096607"></ellipse>
                        <path d="M46.5047904,26.1267385 C57.2117767,26.1267385 67.3827886,27.6224369 75.1152302,30.2600373 C83.7029839,33.1893461 88.9413677,37.5202705 88.9413677,40.8572774 C88.9413677,44.4118415 83.2840442,49.0265159 74.0981743,52.0421708 C66.7851869,54.4429442 57.000823,55.751489 46.5047904,55.751489 C35.4784441,55.751489 25.5837156,54.4684422 18.3555706,52.0204099 C13.8304074,50.487878 10.0934073,48.4962175 7.5319647,46.3227545 C5.23026267,44.3696894 4.06821314,42.4306061 4.06821314,40.8572774 C4.06821314,37.5090459 9.10616113,33.2382778 17.5087051,30.3355919 C25.2443811,27.6634791 35.6643352,26.1267385 46.5047904,26.1267385 L46.5047904,26.1267385 Z M46.5047904,22.1985948 C35.2431837,22.1985948 24.3868097,23.7996989 16.2035911,26.626405 C6.37838571,30.0205539 0.103737123,35.3396976 0.103737123,40.8572774 C0.103737123,46.5559442 6.83968526,52.2716037 17.0733196,55.7374172 C24.7655852,58.3426382 35.0763536,59.6796327 46.5047904,59.6796327 C57.3965576,59.6796327 67.5925396,58.3160388 75.3450554,55.770973 C85.9838975,52.2783179 92.9058437,46.6320916 92.9058437,40.8572774 C92.9058437,35.3197531 86.4287753,29.9647248 76.4057129,26.5458279 C68.2323661,23.7578311 57.6292857,22.1985948 46.5047904,22.1985948 L46.5047904,22.1985948 Z" id="Shape"></path>
                        <path d="M33.5545409,33.5392915 C38.9033874,24.3492913 45.2922409,16.3663617 51.4611724,11.0469414 C58.3124508,5.13923355 64.7158591,2.8065444 67.6333481,4.47355949 C70.7410787,6.24925856 71.9494432,13.4106411 69.9969232,22.8015177 C68.4424351,30.2778937 64.6984874,39.329867 59.4550324,48.338949 C53.9465844,57.8032676 47.8817949,65.6551243 42.1304059,70.6363853 C38.5298856,73.7549025 34.9217305,75.9674932 31.7418807,77.080235 C28.8844955,78.080135 26.6086304,78.1088318 25.2330084,77.3228274 C22.3057558,75.650109 21.088757,69.1924258 22.748719,60.5301589 C24.2768571,52.5556682 28.1387715,42.8443539 33.5545446,33.5392851 L33.5545409,33.5392915 Z M30.1202263,31.5768985 C24.494052,41.2434664 20.4703792,51.3615443 18.8538306,59.7973997 C16.9128277,69.9262373 18.428576,77.9691561 23.2524704,80.7256716 C28.2349245,83.5725518 36.5970693,80.646342 44.7395508,73.593898 C50.8602239,68.292801 57.1800279,60.1107866 62.8893555,50.3013274 C68.3305014,40.9525814 72.2319462,31.5198175 73.879857,23.5941211 C76.141228,12.7177887 74.6627436,3.95553794 69.613831,1.07068381 C64.7724859,-1.69559753 56.8549493,1.18867144 48.8585837,8.08376293 C42.3378956,13.7065001 35.6776488,22.0285381 30.1202299,31.5768922 L30.1202263,31.5768985 Z" id="Shape"></path>
                        <path d="M33.5669327,48.3603317 C28.2026529,39.1791275 24.4132246,29.7079669 22.8429306,21.7558259 C21.0989087,12.9241761 22.2572454,6.26226598 25.1719499,4.59042055 C28.2766988,2.80946081 35.141962,5.34867835 42.3778458,11.7147383 C48.1387539,16.782894 54.1836915,24.5173145 59.4424865,33.517902 C64.9668969,42.9730256 68.8036392,52.1005853 70.2869212,59.5254668 C71.215537,64.1736817 71.3482121,68.3760166 70.7330966,71.6613816 C70.1803606,74.6135742 69.0688444,76.5815257 67.6945637,77.369816 C64.7700061,79.0473647 58.5156585,76.8670149 51.770641,71.1159545 C45.561207,65.8215727 38.9984746,57.65638 33.5669198,48.3603097 L33.5669327,48.3603317 Z M30.1359328,50.3284089 C35.7784868,59.985603 42.6160812,68.4927723 49.1847436,74.093445 C57.0717545,80.8182126 64.8614595,83.5338087 69.6808148,80.7693894 C74.6583995,77.9142363 76.2759918,69.2745885 74.1759394,58.7627116 C72.5974181,50.8610895 68.5993517,41.3497419 62.8734889,31.5498289 C57.4164292,22.2099056 51.1171851,14.1501031 45.0100739,8.77737542 C36.6296394,1.40435087 28.2296724,-1.7024992 23.1856929,1.19085053 C18.3489583,3.96515327 16.916717,12.2023631 18.9522297,22.5101092 C20.61206,30.9156719 24.5624628,40.7891663 30.1359199,50.3283868 L30.1359328,50.3284089 Z" id="Shape"></path>
                    </g>
                </g>
            </g>
        </g>
    </g>
</svg>