<?xml version="1.0" encoding="UTF-8" standalone="no"?>
<svg width="65px" height="50px" viewBox="0 0 65 50" version="1.1" xmlns="http://www.w3.org/2000/svg" xmlns:xlink="http://www.w3.org/1999/xlink">
    <!-- Generator: Sketch 39.1 (31720) - http://www.bohemiancoding.com/sketch -->
    <title>ui-design</title>
    <desc>Created with Sketch.</desc>
    <defs></defs>
    <g id="Page-1" stroke="none" stroke-width="1" fill="none" fill-rule="evenodd">
        <g id="ui-design" fill="#3972FF">
            <g id="Group">
                <path d="M49.904918,46.705082 L42.8198361,46.705082 C42.5640984,46.705082 42.3552459,46.4963934 42.3552459,46.2404918 L42.3552459,44.5159016 C42.3552459,44.2603279 42.1462295,44.0513115 41.8906557,44.0513115 L31.9767213,44.0513115 C31.7209836,44.0513115 31.5119672,44.2603279 31.5119672,44.5159016 L31.5119672,46.2404918 C31.5119672,46.4963934 31.3029508,46.705082 31.0472131,46.705082 L25.7208197,46.705082 C25.465082,46.705082 25.2560656,46.9140984 25.2560656,47.1696721 L25.2560656,49.1647541 C25.2560656,49.4203279 25.465082,49.6293443 25.7208197,49.6293443 L49.9045902,49.6293443 C50.1601639,49.6293443 50.3691803,49.4203279 50.3691803,49.1647541 L50.3691803,47.1696721 C50.3695082,46.9145902 50.1604918,46.705082 49.904918,46.705082 L49.904918,46.705082 Z" id="Shape"></path>
                <g id="Shape">
                    <path d="M61.8085246,0.0603278689 L11.2511475,0.0603278689 C9.49213115,0.0603278689 8.06114754,1.49147541 8.06114754,3.25081967 L8.06114754,11.5722951 C8.06114754,12.672459 7.9795082,12.8280328 8.71754098,12.8280328 L9.98311475,12.8280328 C10.602459,12.8280328 10.4754098,12.672459 10.4754098,11.5518033 L10.4754098,3.25081967 C10.4754098,2.83032787 10.8308197,2.47491803 11.2511475,2.47491803 L61.8085246,2.47491803 C62.2286885,2.47491803 62.5840984,2.83032787 62.5840984,3.25081967 L62.5840984,34.3981967 L26.5398361,34.3981967 C26.5398361,34.3981967 25.2695082,34.3959016 25.2695082,36.0385246 L25.2695082,39.9345902 C25.2695082,41.574918 26.5809836,41.574918 26.5809836,41.574918 L61.8085246,41.574918 C63.567377,41.574918 64.9988525,40.1439344 64.9988525,38.384918 L64.9988525,3.25081967 C64.9988525,1.49163934 63.5677049,0.0603278689 61.8085246,0.0603278689 L61.8085246,0.0603278689 Z M36.53,38.8203279 C35.7357377,38.8203279 35.0921311,38.1767213 35.0921311,37.3829508 C35.0921311,36.5891803 35.7357377,35.9452459 36.53,35.9452459 C37.3234426,35.9452459 37.9672131,36.5891803 37.9672131,37.3829508 C37.9672131,38.1767213 37.3234426,38.8203279 36.53,38.8203279 L36.53,38.8203279 Z"></path>
                    <path d="M20.3483607,15.677541 L2.05885246,15.677541 C0.923278689,15.677541 0,16.6009836 0,17.7365574 L0,47.797541 C0,48.9329508 0.923278689,49.8567213 2.05885246,49.8567213 L20.3483607,49.8567213 C21.4832787,49.8567213 22.4072131,48.9329508 22.4072131,47.797541 L22.4072131,17.7365574 C22.4072131,16.6009836 21.4832787,15.677541 20.3483607,15.677541 L20.3483607,15.677541 Z M8.94754098,17.777541 L13.4595082,17.777541 C13.6747541,17.777541 13.8496721,17.9519672 13.8496721,18.1678689 C13.8496721,18.3832787 13.674918,18.5578689 13.4595082,18.5578689 L8.94754098,18.5578689 C8.73196721,18.5578689 8.55754098,18.3832787 8.55754098,18.1678689 C8.55754098,17.9519672 8.73196721,17.777541 8.94754098,17.777541 L8.94754098,17.777541 Z M11.1762295,48.4104918 C10.5877049,48.4104918 10.1106557,47.9334426 10.1106557,47.344918 C10.1106557,46.7563934 10.5877049,46.2793443 11.1762295,46.2793443 C11.7647541,46.2793443 12.2418033,46.7563934 12.2418033,47.344918 C12.2418033,47.9334426 11.7647541,48.4104918 11.1762295,48.4104918 L11.1762295,48.4104918 Z M20.6381967,45.2786885 C20.6381967,45.5534426 20.4181967,45.7781967 20.1496721,45.7781967 L2.25803279,45.7781967 C1.98934426,45.7781967 1.7695082,45.5534426 1.7695082,45.2786885 L1.7695082,20.2991803 C1.7695082,20.0244262 1.9895082,19.7998361 2.25803279,19.7998361 L20.1496721,19.7998361 C20.4183607,19.7998361 20.6381967,20.0245902 20.6381967,20.2991803 L20.6381967,45.2786885 L20.6381967,45.2786885 Z"></path>
                </g>
            </g>
        </g>
    </g>
</svg>