<?xml version="1.0" encoding="UTF-8" standalone="no"?>
<svg width="60px" height="51px" viewBox="0 0 60 51" version="1.1" xmlns="http://www.w3.org/2000/svg" xmlns:xlink="http://www.w3.org/1999/xlink">
    <!-- Generator: Sketch 39.1 (31720) - http://www.bohemiancoding.com/sketch -->
    <title>ui-design</title>
    <desc>Created with Sketch.</desc>
    <defs></defs>
    <g id="Page-1" stroke="none" stroke-width="1" fill="none" fill-rule="evenodd">
        <g id="ui-design" fill="#3972FF">
            <g id="Group">
                <path d="M46.9578061,27.1535377 L34.7272959,27.1535377 C34.3692857,27.1535377 34.0764796,27.4460058 34.0764796,27.8032631 L34.0764796,29.1387756 C34.0764796,29.4960329 34.3692857,29.788501 34.7272959,29.788501 L46.9578061,29.788501 C47.3159694,29.788501 47.6086224,29.4960329 47.6086224,29.1387756 L47.6086224,27.8032631 C47.6086224,27.4460058 47.3159694,27.1535377 46.9578061,27.1535377 L46.9578061,27.1535377 Z" id="Shape"></path>
                <path d="M36.1296429,19.4586015 L36.1296429,18.1232418 C36.1296429,17.7658317 35.8369898,17.4735164 35.4788265,17.4735164 L6.44357143,17.4735164 C6.08556122,17.4735164 5.7927551,17.7658317 5.7927551,18.1232418 L5.7927551,19.4586015 C5.7927551,19.8160116 6.08556122,20.1083269 6.44357143,20.1083269 L35.4788265,20.1083269 C35.8369898,20.1083269 36.1296429,19.8158588 36.1296429,19.4586015 L36.1296429,19.4586015 Z" id="Shape"></path>
                <path d="M46.9578061,36.8337118 L17.922551,36.8337118 C17.5645408,36.8337118 17.2717347,37.1260271 17.2717347,37.4834371 L17.2717347,38.8187969 C17.2717347,39.176207 17.5645408,39.4685222 17.922551,39.4685222 L46.9578061,39.4685222 C47.3159694,39.4685222 47.6086224,39.176207 47.6086224,38.8187969 L47.6086224,37.4834371 C47.6086224,37.1260271 47.3159694,36.8337118 46.9578061,36.8337118 L46.9578061,36.8337118 Z" id="Shape"></path>
                <path d="M56.4338265,0.128203095 L3.56372449,0.128203095 C1.59872449,0.128203095 0,1.72424758 0,3.68610638 L0,46.7369807 C0,48.6989923 1.59872449,50.2948839 3.56372449,50.2948839 L56.4338265,50.2948839 C58.3991327,50.2948839 59.997551,48.6989923 59.997551,46.7369807 L59.997551,3.68610638 C59.997551,1.72424758 58.3991327,0.128203095 56.4338265,0.128203095 L56.4338265,0.128203095 Z M24.6661224,4.60690716 C24.6661224,4.16025919 25.032398,3.79475048 25.4794898,3.79475048 L30.3577041,3.79475048 C30.805102,3.79475048 31.1709184,4.16025919 31.1709184,4.60690716 L31.1709184,6.13403675 C31.1709184,6.58068472 30.8046429,6.94619342 30.3577041,6.94619342 L25.4794898,6.94619342 C25.0322449,6.94619342 24.6661224,6.58068472 24.6661224,6.13403675 L24.6661224,4.60690716 L24.6661224,4.60690716 Z M14.6504082,4.60690716 C14.6504082,4.16025919 15.0166837,3.79475048 15.4637755,3.79475048 L20.3416837,3.79475048 C20.7892347,3.79475048 21.155051,4.16025919 21.155051,4.60690716 L21.155051,6.13403675 C21.155051,6.58068472 20.7890816,6.94619342 20.3416837,6.94619342 L15.4637755,6.94619342 C15.0165306,6.94619342 14.6504082,6.58068472 14.6504082,6.13403675 L14.6504082,4.60690716 L14.6504082,4.60690716 Z M4.88831633,4.60690716 C4.88831633,4.16025919 5.25459184,3.79475048 5.70168367,3.79475048 L10.5795918,3.79475048 C11.0271429,3.79475048 11.3929592,4.16025919 11.3929592,4.60690716 L11.3929592,6.13403675 C11.3929592,6.58068472 11.0269898,6.94619342 10.5795918,6.94619342 L5.70168367,6.94619342 C5.25443878,6.94619342 4.88831633,6.58068472 4.88831633,6.13403675 L4.88831633,4.60690716 L4.88831633,4.60690716 Z M57.1464796,46.2686344 C57.1464796,46.7368279 56.7587755,47.1200619 56.2855102,47.1200619 L3.71219388,47.1200619 C3.23862245,47.1200619 2.85122449,46.7368279 2.85122449,46.2686344 L2.85122449,10.7983985 C2.85122449,10.3300522 3.23862245,9.94681818 3.71219388,9.94681818 L56.2855102,9.94681818 C56.7587755,9.94681818 57.1464796,10.3300522 57.1464796,10.7983985 L57.1464796,46.2686344 L57.1464796,46.2686344 Z" id="Shape"></path>
            </g>
        </g>
    </g>
</svg>