<?xml version="1.0" encoding="utf-8"?>
<!-- Generator: Adobe Illustrator 18.1.1, SVG Export Plug-In . SVG Version: 6.00 Build 0)  -->
<!DOCTYPE svg PUBLIC "-//W3C//DTD SVG 1.1//EN" "http://www.w3.org/Graphics/SVG/1.1/DTD/svg11.dtd">
<svg version="1.1" id="Layer_1" xmlns="http://www.w3.org/2000/svg" xmlns:xlink="http://www.w3.org/1999/xlink" x="0px" y="0px"
	 viewBox="0 0 72 72" enable-background="new 0 0 72 72" xml:space="preserve">
<g>
	<polygon fill="#070756" points="63.3,26.5 63.2,24.2 59,18.6 61.3,14.2 56.2,15 53.2,10.9 54.8,6 50.2,7 35.7,1.7 21.2,7 16.7,6 
		18.2,10.9 15.2,15 10.1,14.2 12.5,18.6 8.3,24.2 8.1,26.5 5.1,28.3 9.4,39.9 12,40.3 13.2,50.7 21.6,57.5 24.8,69.7 27.6,70.7 
		29.1,70 26.5,42.3 19.9,39.8 17.4,32.1 32.2,36 31.2,49.6 35.7,52.8 40.2,49.6 39.3,36 54,32.1 51.5,39.8 45,42.3 42.3,70 
		43.8,70.7 46.6,69.7 49.8,57.5 58.3,50.7 59.4,40.3 62.1,39.9 66.4,28.3 	"/>
	<g>
		<path fill="#070756" d="M54,67.3V70h-0.5v-2.7h-1v-0.5H55v0.5H54z"/>
		<path fill="#070756" d="M56,70h-0.5v-3.2h0.8l1,2l1-2h0.8V70h-0.5v-2.5l-1.1,2.2h-0.3L56,67.6V70z"/>
	</g>
</g>
</svg>
