<?xml version="1.0" encoding="UTF-8" standalone="no"?>
<svg width="140px" height="74px" viewBox="0 0 140 74" version="1.1" xmlns="http://www.w3.org/2000/svg" xmlns:xlink="http://www.w3.org/1999/xlink">
    <!-- Generator: Sketch 3.8.2 (29753) - http://www.bohemiancoding.com/sketch -->
    <title>blizzard</title>
    <desc>Created with Sketch.</desc>
    <defs></defs>
    <g id="Page-1" stroke="none" stroke-width="1" fill="none" fill-rule="evenodd">
        <g id="Artboard-1-Copy" transform="translate(-100.000000, -75.000000)" fill="#808080">
            <g id="blizzard" transform="translate(100.000000, 75.000000)">
                <g id="Page-1">
                    <g>
                        <g id="blizzard">
                            <g id="Page-1">
                                <g id="blizzard">
                                    <g id="GQulL7.tif">
                                        <g id="Group">
                                            <path d="M18.2,23.3 C18.9,23.6 19.5,23.9 20.1,24 C21.2,24.3 21.3,24.6 20.9,25.6 C20.6,26.3 20.4,26.6 21.4,27.1 C22.1,27.5 22.8,28.3 22.5,29.5 C22.2,30.7 22.3,32 22.4,33.3 C22.4,33.8 22.9,34.4 23.2,34.9 C23.3,35.2 23.5,35.5 23.6,35.8 C23.7,37.6 23.6,39.4 23.7,41.3 C23.8,42.7 23.8,44.1 23.1,45.4 C22.9,45.8 23,46.5 23.1,47.1 C23.5,49 23.1,50.7 22.1,52.2 C21.1,53.7 20.5,55.3 20.3,57.1 C20.3,57.4 20,57.8 19.7,58 C18.1,59.2 16.4,60.4 14.8,61.5 C14.6,61.6 14.4,61.7 14.2,61.7 C13.2,62 12.3,62.2 11.3,62.4 C11.1,62.5 10.8,62.3 10.5,62.2 C10.1,62.1 9.6,62 9.4,62.1 C8.6,62.9 7.7,62.8 6.7,62.8 C5.2,62.7 3.7,62.6 2.3,62.5 C1.9,62.5 1.6,62.3 1.2,62.1 C3.8,61 3.6,58.5 3.8,56.5 C4.3,52.2 3.9,48 3.5,43.7 C3.2,40.7 3.4,37.7 3.7,34.7 C3.8,33.9 4.4,33 4.3,32.1 C4.1,30.7 4,29.3 3.9,27.8 C3.9,27.2 4.2,26.6 4.2,26 C4.3,25.2 4.2,24.5 4.2,23.7 C4.1,23.1 3.8,22.6 3.8,22 L3.8,11.7 C3.8,11.2 4,10.7 4.2,10.2 C4.6,9.4 4.3,8.8 3.4,8.6 C3.1,8.5 2.9,8.2 2.7,8 C2.1,7.4 1.5,7 1.1,6.3 C0.8,5.8 0.7,5 0.8,4.5 C0.9,4.2 1.6,4 2.1,3.9 C3.2,3.7 4.3,3.5 5.4,3.5 C7.7,3.4 10.1,3.3 12.4,3.3 L17,3.3 C17.2,3.3 17.5,3.3 17.6,3.4 C18.2,4.6 19.4,4.7 20.5,5.2 C21.8,5.8 22.5,7.1 22.7,8.4 C23.1,10.4 23.2,12.4 23.4,14.4 C23.4,14.7 23.3,15 23.2,15.3 L18.7,22.5 C18.5,22.7 18.5,22.9 18.2,23.3 L18.2,23.3 L18.2,23.3 L18.2,23.3 Z M10,56.8 C10.6,56.7 10.9,56.7 11.1,56.6 C11.8,56.2 12.4,55.8 13,55.3 C14.3,54.1 15.7,53.1 15.7,51 C15.7,50 16,49 16.2,48.1 C16.7,46 17.1,43.9 16.3,41.7 C16.1,41.2 16.4,40.5 16.5,39.9 C16.5,39.5 16.8,39.1 16.6,38.9 C15.7,37.6 15.9,36.2 16.4,34.9 C16.5,34.8 16.4,34.6 16.3,34.4 C16.1,33.3 16,32.2 15.8,31.1 C15.7,30.7 15.7,30.2 15.4,30 C14.3,29 13.1,28.1 11.9,27 C11.8,29.4 11.6,31.7 11.6,34 C11.6,35.4 11.7,36.7 10.9,37.9 C10.8,38 10.9,38.3 10.9,38.5 C11,39.1 11.3,39.7 11.3,40.2 L11.3,47 C11.3,47.3 11.3,47.6 11.2,47.9 C11,48.8 10.8,49.7 10.7,50.7 C10.5,52.7 11.3,54.7 10,56.8 L10,56.8 L10,56.8 L10,56.8 Z M12.2,10.3 C11.3,13.6 12,17.1 11.8,20.5 C12.9,21 13.5,20.6 13.8,19.6 C14,19.1 14.4,18.4 14.9,18.3 C16.3,17.9 16.4,17 16.3,15.8 C16.3,15.4 16.4,15 16.4,14.7 C16.4,14.1 16.5,13.6 16.5,13 L16.5,11.2 C16.2,11 15.5,10.9 15.2,10.5 C14.8,10 14.4,10 13.8,10.1 C13.4,10.2 12.9,10.2 12.2,10.3 L12.2,10.3 L12.2,10.3 L12.2,10.3 Z" id="Shape"></path>
                                            <path d="M101.1,7.4 C100.5,7.5 99.8,7.6 99.2,7.6 C98.9,7.6 98.3,7.5 98.2,7.3 C97.1,5.2 95.5,3.9 93.3,3.2 C93.2,3.2 93.2,3.2 93.1,3.1 C93.1,3.1 93,3 92.8,2.7 L97.7,2.7 C98.6,2.7 99.5,2.5 100.5,2.4 C100.7,2.4 101,2.3 101.2,2.4 C103.3,2.9 105.3,3.4 107.3,3.8 C108,4 108.6,4.1 109.3,4.2 C111,4.5 112.2,5.6 113.1,6.9 C113.7,7.8 114,9 114.6,10 C115.6,11.8 115.7,13.6 115,15.6 C114.9,15.9 114.8,16.3 114.8,16.7 C114.9,18.8 114.1,20.5 113,22.2 C112.2,23.4 111.1,24.3 109.6,24.5 C108.4,24.7 109.3,25.6 108.8,26.2 C110.4,25.7 111.3,26.6 112.1,27.6 C112.4,27.9 112.5,28.3 112.7,28.7 C112.8,28.9 112.8,29.2 112.9,29.3 C114.6,30.3 114.1,32.1 114.5,33.5 C114.8,35 114.8,36.6 115.1,38.1 C115.2,38.6 115.8,38.9 116,39.4 C116.2,40.1 116.3,40.9 116.4,41.6 C116.6,43.1 117,44.6 116.6,46.1 C116.5,46.3 116.8,46.6 116.9,46.8 C117.2,47.4 117.6,48 117.7,48.6 C117.7,50.1 117.4,51.6 117.5,53.1 C117.7,56 116.7,58.6 116.3,61.4 C116.3,61.5 116.2,61.6 116,61.9 C115.2,61.4 114.3,61 113.5,60.5 C113,60.2 112.6,59.5 112,59.2 C111,58.7 109.9,58.3 108.8,57.8 C108.7,57.9 108.6,58 108.5,58 C108.6,57.5 108.6,57 108.8,56.6 C110.2,53.4 110.7,50.1 110.3,46.7 C110,44 109.5,41.2 108.5,38.7 C108,37.3 107.7,36.2 108,34.8 C108.1,34.2 107.9,33.4 107.6,32.9 C107,31.7 106.2,30.5 105.4,29.3 C104.9,30.5 104.5,31.4 104.2,32.3 C104.1,32.7 104,33.2 104,33.7 C104.4,37.4 104.9,41.2 105.1,44.9 C105.2,47.3 105.7,49.7 105.1,52.2 C104.8,53.3 105.4,54.6 105.3,55.8 C105.2,58 104.9,60.2 104.7,62.4 L104.4,62.4 C104.3,62.2 104.2,62.1 104.1,61.9 C103,59.1 101.1,57 98.6,55.5 C97.6,54.9 97.3,54.3 97.8,53.2 C98.6,51.4 99.3,49.5 99.9,47.6 C100.1,47 100,46.3 99.9,45.6 C99.8,44.9 99.5,44.3 99.5,43.7 C99.5,40 99.6,36.3 99.4,32.6 C99.3,30.9 98.9,29.3 98.6,27.6 C98.4,26.3 98.2,25.1 98.1,23.8 C97.9,21.9 97.7,20.1 97.5,18.2 C97.4,17.8 97.2,17.3 97,17 C96,15.4 96.6,13.7 96.5,12.1 C96.5,11.8 97,11.5 97.3,11.2 C98.3,10.4 99.2,9.7 100.2,8.9 C100.5,8.6 100.8,8.2 101,7.9 C101.2,7.7 101.1,7.6 101.1,7.4 L101.1,7.4 L101.1,7.4 L101.1,7.4 Z M104.5,9 C104.4,9.3 104.3,9.4 104.3,9.4 L104.3,23 C104.3,23.7 104.7,23.7 105.2,23.7 C106.4,23.5 107.4,23 107.8,21.8 C108.3,20.1 108.9,18.5 109.2,16.8 C109.4,15.7 109.3,14.3 108.8,13.4 C108,12 106.8,10.9 105.7,9.7 C105.4,9.4 105,9.2 104.5,9 L104.5,9 L104.5,9 L104.5,9 Z" id="Shape"></path>
                                            <path d="M114.4,1.3 C115.3,1.6 116.3,1.9 117.3,2 C119.2,2.2 120.7,3.2 122.3,4 C123.3,4.5 124.6,4.7 125.7,5 C126.8,5.3 127.9,5.6 129,6 L129.2,6 C132.1,5.9 133.2,8.1 134.4,10.2 C135.6,12.3 135.8,14.6 135.6,17 C135.6,17.4 135.5,17.8 135.7,18.1 C136.6,20.7 136.3,23.4 136.3,26.1 C136.3,26.3 136.3,26.5 136.2,26.6 C135.2,27.9 135.5,29.5 135.4,31 C135.4,31.5 135.2,32.1 134.9,32.6 C133.4,34.9 133.3,37.4 133.4,39.9 C133.5,42.2 133.7,44.6 133.5,46.9 C133.2,49.9 132.7,52.9 132.2,56 C132,57.4 131.4,58.8 130.3,59.7 C129.5,60.3 128.6,60.6 127.7,61 C126.8,61.3 125.9,61.6 125,61.8 C124.8,61.9 124.5,62 124.4,61.9 C123.1,61 121.9,62.2 120.6,62.1 L119.1,62.1 C119.3,61.8 119.4,61.5 119.6,61.3 C120.7,59.8 121,58.1 120.4,56.3 C120.1,55.6 120.3,55.2 121,55 C121.5,54.8 121.9,54.5 122.4,54.2 C120.5,51.7 120.1,49 120.7,46 C121,44.5 121.1,43 121.2,41.5 C121.2,41.2 121.1,40.9 121,40.6 C119.9,38.7 119.1,36.8 119,34.5 C119,32.7 118.7,30.8 118.5,29 C117.8,24 117.7,18.9 118,13.9 C118.1,12.4 118.4,10.8 118.5,9.3 C118.5,8.9 118.8,8.5 118.9,8.1 C119.2,6.6 118.7,5.4 117.4,4.4 C116.4,3.6 115.5,2.5 114.6,1.6 C114.3,1.6 114.4,1.5 114.4,1.3 L114.4,1.3 L114.4,1.3 L114.4,1.3 Z M124.8,52.9 C126.2,51.6 126.9,50.1 127.3,48.3 C127.5,47.3 127.9,46.3 128.1,45.2 C128.3,44.4 128.5,43.7 128.6,42.9 C128.7,40.1 128.7,37.4 128.8,34.6 C128.8,33.5 129,32.5 129.3,31.4 C129.5,30.5 130,29.6 130.3,28.8 C130.5,28.4 130.6,28 130.7,27.6 C131.4,25.8 131.3,23.9 130.9,22.1 C130.5,20.5 130.3,18.6 128.6,17.6 C128.5,17.5 128.5,17.4 128.4,17.3 C127.7,16 125.2,15 123.8,15.5 C123.6,15.6 123.5,15.8 123.4,15.9 C123.3,16.4 123.2,16.9 123.2,17.3 C123.3,19.8 123.4,22.4 123.5,24.9 C123.5,25.3 123.6,25.7 123.7,26.1 C124.2,28.5 125.2,30.7 124.9,33.2 C124.7,34.6 124.8,36 124.8,37.3 L124.8,49.5 L124.8,52.9 L124.8,52.9 L124.8,52.9 Z" id="Shape"></path>
                                            <path d="M90.9,63.6 C91.2,61.1 90,58.9 89.7,56.6 C89.5,54.7 88.8,53.4 87.6,52.1 C86.9,51.3 86.8,50.5 87.6,49.5 C88.9,47.8 89.7,45.9 90.1,43.8 C90.3,42.9 90.1,42.3 89.3,41.8 C87.7,40.9 86,39.9 84.4,38.9 C84.2,38.8 83.8,38.8 83.7,38.8 C83.7,40 83.6,41.1 83.8,42.1 C83.9,42.6 84.5,43 84.9,43.5 C85.1,43.7 85.4,44.1 85.4,44.3 C85.1,44.7 84.7,45.1 84.3,45.5 L84.2,45.5 C81.4,45 78.9,46 76.4,47 C76.1,47.1 75.4,47.1 75.4,47 C75.2,46.4 75,45.8 75.1,45.2 C75.2,44.8 75.7,44.4 76,44 C76.2,43.7 76.4,43.5 76.5,43.1 C77,41.4 77,41.4 78.2,40.4 C78.2,39.7 78.1,39.1 78.1,38.5 C78.1,37.5 78.2,36.5 78.2,35.5 C78.2,35.1 78.3,34.8 78.4,34.4 C78.5,34 78.7,33.5 78.8,33.1 C78.9,32.6 79,32.1 79.2,31.6 C79.2,31.5 79.3,31.3 79.3,31.2 C79.2,30.2 78.9,29.2 78.9,28.2 C78.9,27.6 79.2,27 79.5,26.4 C79.8,25.6 80.1,24.8 80.4,24 C81.1,21.5 81.7,19 82.5,16.5 C82.7,15.7 83.2,15.1 83.2,14.1 C83.2,13.2 84,12.2 84.4,11.2 C84.7,10.5 85.2,9.9 85.5,9.2 C85.7,8.7 85.7,8.1 85.8,7.6 C86,7 86.2,6.2 86.6,5.9 C87.4,5.4 87.5,4.8 87.5,4 C87.5,3.6 87.6,3.1 87.8,2.7 C88.2,2.1 89.4,2.4 89.6,3.3 C90,5.1 90.5,6.7 91.7,8.2 C91.8,8.3 91.8,8.5 91.8,8.7 C92.2,10.5 92.5,12.3 93,14 C93.6,16.3 94.3,18.6 94.9,20.9 C95.4,22.8 96,24.7 96.6,26.6 C96.6,26.8 96.6,26.9 96.7,27.1 C96.9,30 97.2,33 97.3,35.9 C97.4,39.4 97.5,42.9 97.2,46.3 C97,48.2 95.9,50 95.2,51.9 C95.1,52.2 94.8,52.5 94.9,52.7 C95.1,54.8 94.1,56.6 93.5,58.5 C93.1,59.6 93,60.9 92.9,62.1 C92.5,63.4 92.3,63.7 90.9,63.6 L90.9,63.6 L90.9,63.6 L90.9,63.6 Z M90.8,36.5 C90.9,32.8 91.1,29.5 90.4,26.1 C90.3,25.6 90,25 89.6,24.9 C88.5,24.5 87.6,24 87.2,22.9 C86.9,23.9 86.6,24.9 86.2,25.9 C86,26.3 85.5,26.7 85.4,27.1 C85,29.3 84.7,31.4 84.9,33.7 C85,34.3 85.1,34.7 85.8,34.6 C87.1,34.5 88.2,34.9 89.3,35.7 C89.7,36 90.2,36.2 90.8,36.5 L90.8,36.5 L90.8,36.5 L90.8,36.5 Z" id="Shape"></path>
                                            <path d="M32.7,57 C33.5,57.1 34.2,57.2 34.9,57.2 C35.7,57.2 36.5,57.2 37.1,56.5 C37.6,55.9 38.2,55.8 39,56 C40.4,56.3 41.8,56.4 43.2,56.5 C43.5,56.5 43.8,56.4 44,56.3 C45.5,55.2 47.2,55.3 48.9,55.3 C52.7,55.2 56.5,55.3 60.3,55.3 C61.9,55.3 61.9,55.4 61.9,57 L61.9,59 C61.9,59.8 61.8,60.5 61.9,61.3 C62,62 62.4,62.7 62.7,63.5 C62.5,63.5 62.2,63.6 62,63.6 L58.5,63.6 C56.6,63.7 54.8,63 53,62.4 C52.6,62.2 52.1,62.1 51.6,62.1 L48.4,62.1 C48.1,62.1 47.6,62.1 47.4,61.9 C46.5,61.1 45.5,61.3 44.5,61.3 L35.3,61.3 C34.9,61.3 34.4,61.1 34,60.9 C32.7,60.3 31.4,60.2 30.2,61.1 C29.5,61.7 28.9,62.3 28.1,62.8 C27.9,63 27.5,63 27.2,63 C26,63 24.9,63 23.7,62.9 C23.4,62.9 23.1,62.7 22.7,62.6 C22.7,62.5 22.6,62.3 22.6,62.2 C23.2,61.7 23.7,61.2 24.3,60.7 C25.5,59.9 26.6,59.2 26.5,57.3 C26.5,56.4 26.4,55.5 26.4,54.6 C26.3,52.6 26.6,50.8 27.3,48.9 C27.4,48.6 27.1,48 26.9,47.6 C26.7,47.2 26.4,46.8 26.4,46.3 C26.3,44.7 26.3,43.1 26.4,41.4 C26.5,39.8 26.4,38.2 26.9,36.8 C27.6,35 27.1,33.3 27.4,31.6 C27.7,30.2 27.7,28.9 27.4,27.5 C27.2,26.6 27.4,25.5 27.3,24.5 C27.2,22.2 26.9,19.8 26.8,17.5 C26.8,17.1 26.9,16.6 27.2,16.3 C27.8,15.5 28.1,13.1 27.7,12.1 C27.6,11.8 27.5,11.3 27.7,11 C28.3,9.8 28.3,8.6 27.8,7.4 C27.5,6.7 27.2,6 26.2,6.1 C26.1,6.1 25.9,6 25.8,5.9 C25.1,5 24.4,4.2 23.6,3.2 C23.9,2.5 24.1,2 25.3,2.7 C25.9,3.3 27,3 28,3 C28.6,3 29.2,3 29.5,3.6 C29.6,3.8 29.8,4 30,4 C31.7,4 32,5.6 33,6.4 C33.2,6.5 33.2,6.9 33.2,7.2 L33.2,10.8 C33.2,11 33.2,11.3 33.1,11.4 C32.5,12 33,12.4 33.3,13 C33.6,13.7 33.5,14.7 33.5,15.5 C33.5,15.9 33.2,16.3 33.2,16.7 L33.2,25.4 C33.2,25.8 33.5,26.2 33.7,26.6 C33.9,27.1 34.3,27.6 34.3,28.2 C34.3,31.2 34.4,34.3 34.1,37.3 C34,38.6 33.6,39.9 33.7,41.2 C33.8,42.2 34.2,43.2 34.1,44.2 C33.9,45.5 33.4,46.6 33.5,48.1 C33.6,49.9 33,51.7 32.7,53.4 C32.6,53.9 32.4,54.4 32.4,55 C32.4,55.7 32.6,56.4 32.7,57 L32.7,57 L32.7,57 L32.7,57 Z" id="Shape"></path>
                                            <path d="M70.1,53.7 C71.2,53.6 72.2,53.6 73.2,53.4 C73.5,53.3 73.9,53 74,52.7 C74.2,51.7 74.8,51.3 75.7,50.9 C77,50.4 78.4,49.8 79.6,49.1 C80.3,48.7 80.8,48.1 81.3,47.7 C82.1,47.8 82.8,47.9 83.5,48 C84.9,48 85.4,48.8 84.9,50.1 C84.7,50.5 84.8,51 84.8,51.5 C84.9,53.2 85.1,55 85.1,56.7 C85.1,57.4 84.7,58 83.7,57.9 C82.8,57.8 81.8,57.8 80.9,57.9 C79,58.2 77.2,57.5 75.3,57.2 C75,57.2 74.6,57.1 74.5,57.2 C73.2,58.5 71.5,58.2 69.9,58.4 C68.8,58.5 67.8,58.8 66.7,59.1 C65.6,59.4 65.2,59.2 65.2,58 C65.3,56.9 64.8,55.6 65.8,54.7 C65.9,54.6 65.9,54.3 65.9,54.1 C65.9,53.9 65.8,53.6 65.9,53.5 C66.7,52.6 66.9,51.5 67.1,50.3 C67.1,50.2 67.4,50 67.4,49.9 C67.4,47.5 68.6,45.1 67.4,42.5 C66.4,40.5 66.6,38.1 67.2,36 C67.9,33.2 69,30.5 69.9,27.8 C70.1,27.2 70.5,26.6 69.9,26 C69.8,25.9 69.8,25.6 69.8,25.5 C70.3,24.2 70.8,22.9 71.2,21.6 C71.5,20.6 71.7,19.6 72,18.7 C72.2,17.9 72.3,17.1 72.7,16.4 C73.5,14.9 74.4,13.4 75.2,11.9 C75.3,11.6 75.4,11.3 75.5,11.1 C75.6,10.5 75.7,9.9 75.8,9.1 C75.4,9.1 74.8,9 74.3,9 C73.7,9 73.2,9 72.6,8.5 C71.9,7.8 69.9,8.3 69.5,9.4 C69,10.5 68.8,11.8 68.4,13 C68.2,13.6 68.2,14.1 68,14.7 C67.7,15.8 66.9,16.5 65.9,16.5 C65.7,16.5 65.3,16 65.3,15.6 C65.2,15.1 65.2,14.5 65.2,14 C65.2,13.7 65.1,13.2 65.3,13 C66,12.3 65.9,11.5 65.9,10.7 L65.9,4.4 C65.9,3.6 66.1,3.3 66.9,3.3 L81.7,3.3 C82.1,3.3 82.6,3.5 83,3.8 C83.2,3.9 83.4,4.4 83.3,4.6 C83.1,5.2 82.9,5.8 82.5,6.4 C81.9,7.5 81.1,8.5 81.3,9.9 C80.1,11.1 80.2,13 79.2,14.3 C78.9,14.8 78.9,15.5 78.7,16.1 C78.4,17.3 78,18.4 77.9,19.6 C77.7,21.2 77.6,22.8 77.5,24.4 C77.4,26.4 76.6,28.2 76,30 C76,30.1 75.9,30.1 75.9,30.2 C75.8,32.7 73.5,34.6 74,37.4 C74.4,39.3 73.8,41.2 73.1,43 C72.8,43.8 72.8,44.7 72.6,45.5 C72.3,46.7 72.1,48 71.7,49.2 C71.2,50.7 70.6,52.1 70,53.6 C70.1,53.5 70.1,53.7 70.1,53.7 L70.1,53.7 L70.1,53.7 L70.1,53.7 Z" id="Shape"></path>
                                            <path d="M60.7,41.5 C61.7,41.9 62.1,41.7 62.6,40.5 C63,39.3 63,39.3 64.3,39.5 C64.4,40.4 64.6,41.3 64.6,42.2 C64.6,42.6 64.2,42.9 64,43.3 C63.1,44.9 63.5,46.7 63.5,48.4 C63.5,49.4 63.6,50.4 63.6,51.3 C61.4,53.3 58.9,52.6 56.5,52.7 C56.3,52.7 56.1,52.6 56,52.5 C55.3,51.9 54.7,52.2 54.1,52.7 C53.7,53 53.1,53.3 52.8,53.1 C51.4,52.3 50,52.6 48.6,52.5 C48.2,52.5 47.9,52.3 47.6,52 C47.5,51.9 47.4,51.5 47.5,51.4 C48.3,50.6 47.9,49.7 48.1,48.8 C48.2,48.3 48.5,47.7 48.5,47.2 C48.5,46.7 48.4,46.2 48.2,45.8 C48,45.3 47.7,44.8 47.9,44.2 C48,43.7 47.6,43.1 47.7,42.6 C47.9,40.8 48.3,39 48.5,37.2 C48.7,35.3 50,33.8 50.7,32.1 C51.9,29.5 53.6,27.1 53.9,24.1 C54,22.9 54.6,21.9 55.7,21.1 C56.5,20.5 57.1,19.4 57.7,18.5 C57.9,18.3 57.8,17.8 57.8,17.5 C57.6,16.3 57.8,15.4 58.6,14.5 C59.6,13.5 60.4,12.4 61.1,11.2 C61.4,10.7 61.3,9.9 61.3,9.2 L61.3,7.6 C59.5,7.6 57.8,7.5 56.1,7.6 C54.7,7.7 53.3,9.3 53,10.7 C52.9,11 52.6,11.4 52.2,11.6 C51.3,12 50.8,12.6 50.9,13.6 C51,14.4 50.9,15.2 50.9,16 C50.9,17.2 50.7,17.6 49.7,18.8 C49.4,18.1 49.1,17.5 48.9,16.8 C48.7,15.7 48.5,14.5 48.6,13.4 C48.7,12.2 49.1,11.1 48,10.2 C47.9,10.1 47.9,10 47.9,9.8 C48,7.9 47.4,5.9 48.5,4.2 L62.7,4.2 C62.8,4.3 62.8,4.4 62.9,4.5 C63.4,8.2 63.7,12 63.5,15.8 C63.5,16.4 63.2,16.9 63.1,17.5 C63,17.9 62.8,18.3 62.8,18.6 C63,19.7 62.4,20.5 62,21.5 C61,23.6 59.8,25.6 59.8,28.1 C59.8,28.3 59.5,28.7 59.3,28.8 C57.9,29.5 57.1,30.5 57.3,32.2 C57.3,32.4 57.2,32.8 57,33 C54.9,35.6 53.7,38.7 53.1,42 C52.8,43.5 52.2,44.9 51.6,46.4 C51.3,47.3 50.9,48.3 50.5,49.2 C50.2,49.9 50.5,50.2 51.2,50.1 C51.4,50.1 51.6,49.9 51.9,49.8 C52.9,49.5 53.8,49.1 54.8,48.8 C55.6,48.6 56.2,48.2 56.7,47.5 C57.5,46.1 58.3,44.7 60.1,44.2 C60.3,44.1 60.4,43.8 60.5,43.6 C60.2,42.4 60.4,41.9 60.7,41.5 L60.7,41.5 L60.7,41.5 L60.7,41.5 Z" id="Shape"></path>
                                            <path d="M34.5,4.3 C35,4.2 35.4,3.9 35.9,3.9 L43.9,3.9 C44.6,3.9 45,4.3 45.2,4.8 C45.4,5.4 45.1,5.7 44.5,5.9 C44,6.1 43.5,6.5 43.1,6.9 C42.8,7.2 42.5,7.8 42.6,8 C43.7,9.6 42,11 42.3,12.6 C42.6,14.2 42.5,15.8 42.5,17.5 C42.5,19.8 42.4,22.1 42.4,24.4 C42.4,24.9 42.6,25.5 42.7,26 C42.9,26.9 43.1,27.6 42.5,28.6 C42,29.3 42.3,30.5 42.3,31.5 C42.3,32.5 42.5,33.5 42.6,34.5 C42.7,35.3 42.7,36.1 42,36.7 C41.8,36.9 41.6,37.4 41.6,37.7 C41.8,39 41.9,40.3 42.3,41.4 C42.8,42.9 42.6,44.2 42.5,45.7 C42.5,45.9 42.4,46.1 42.3,46.3 C41.5,47.4 41.9,49.1 43,49.8 C43.5,50.1 44.1,50.4 44.6,50.8 C45.5,51.4 45.6,51.5 45.5,52.9 L39.5,52.9 C38.6,52.9 37.7,53 36.9,53.7 C36.3,54.4 35.9,53.7 35.4,53.2 C36.1,52.5 36.7,51.9 37.3,51.1 C37.6,50.7 37.9,50.2 37.9,49.8 C38,48.4 38,46.9 38.2,45.5 C38.3,44.9 38.5,44.3 38.6,43.7 C38.6,43.3 38.5,43 38.5,42.6 C38.5,41.8 38.4,41 38.5,40.2 C38.5,39.5 38.8,38.9 38.8,38.2 L38.8,20.5 C38.8,19.7 39,18.9 39,18 C39,17.2 38.7,16.4 38.6,15.6 C38.4,13 38.3,10.4 38.1,7.7 C38.1,6.9 37.7,6.6 37,6.3 C36.1,5.9 35.3,5.4 34.5,4.9 L34.5,4.3 L34.5,4.3 L34.5,4.3 L34.5,4.3 Z" id="Shape"></path>
                                            <path d="M91.2,67.9 C92.8,67.3 93.1,69.1 94,69.6 C94.9,69 95.2,67.4 96.8,67.9 L96.8,73 L95.5,73 L95.5,70.3 C95.4,70.3 95.3,70.2 95.3,70.2 C94.9,70.6 94.5,71.1 94,71.6 C93.5,71.1 93.1,70.6 92.5,70 L92.5,73.1 L91.2,73.1 L91.2,67.9 L91.2,67.9 L91.2,67.9 Z" id="Shape"></path>
                                            <path d="M81.3,70 L81.3,73 L80,73 L80,67.8 C82.2,67.6 82.4,69.9 84,70.6 L84,67.8 L85.3,67.8 L85.3,73 C83.1,73.1 82.8,70.9 81.3,70 L81.3,70 L81.3,70 L81.3,70 Z" id="Shape"></path>
                                            <path d="M17.2,73 C16.1,73.5 15.7,72.5 15.1,71.9 C14.5,71.3 14,70.7 13.3,69.8 L13.3,73 L11.9,73 L11.9,67.8 C14.1,67.5 14.4,69.9 15.9,70.6 L15.9,67.8 L17.2,67.8 L17.2,73 L17.2,73 L17.2,73 Z" id="Shape"></path>
                                            <path d="M112.3,67.8 C114.4,67.6 114.7,69.9 116.2,70.6 L116.2,67.8 L117.5,67.8 L117.5,72.9 C116.4,73.4 116,72.5 115.4,71.8 C114.9,71.2 114.3,70.6 113.6,69.8 L113.6,73 L112.3,73 L112.3,67.8 L112.3,67.8 L112.3,67.8 Z" id="Shape"></path>
                                            <path d="M44.4,71 L44.4,72.9 L43,72.9 L43,67.8 C44,67.8 45,67.7 45.9,67.8 C47.2,68 47.4,69.3 46.4,70.5 C46.8,71.3 47.2,72 47.5,72.9 C46.5,73.2 45.9,73 45.5,72 C45.4,71.6 44.9,71.2 44.6,70.8 C44.6,70.9 44.5,71 44.4,71 L44.4,71 L44.4,71 L44.4,71 Z M44.4,69.8 C44.5,69.9 44.6,70 44.7,70.1 C45,69.8 45.3,69.5 45.6,69.3 C45.2,69.1 44.9,68.9 44.4,68.7 L44.4,69.8 L44.4,69.8 L44.4,69.8 Z" id="Shape"></path>
                                            <path d="M67.4,73 C66.5,73.2 66.1,73 65.5,72.4 C65.1,72 63.8,72 63.2,72.4 C62.4,72.9 62.6,73.1 61.4,73 C62,71.4 62.7,69.8 63.3,68.2 C63.4,68 63.9,67.8 64.2,67.8 C64.5,67.8 65.1,68 65.2,68.3 C66,69.8 66.7,71.4 67.4,73 L67.4,73 L67.4,73 L67.4,73 Z M65.1,71 C64.8,70.4 64.6,69.9 64.3,69.2 C64,70 63.8,70.5 63.6,71 L65.1,71 L65.1,71 L65.1,71 Z" id="Shape"></path>
                                            <path d="M34.8,70.8 L34.8,71.9 C35.6,72 36.4,72.1 37.2,72.2 C37.3,72.2 37.2,72.6 37.3,73 L33.4,73 L33.4,67.8 L36.7,67.8 C36.9,67.8 37.1,68.1 37.1,68.3 C37.1,68.5 36.8,68.8 36.6,68.8 C36.2,68.9 35.7,68.8 35.3,68.9 C35.1,68.9 34.9,69.2 34.7,69.4 C34.9,69.6 35.1,69.8 35.4,69.9 C35.7,70 36,69.9 36.3,69.9 C37,69.8 37.2,70.1 37,70.9 C36.3,70.8 35.6,70.8 34.8,70.8 L34.8,70.8 L34.8,70.8 L34.8,70.8 Z" id="Shape"></path>
                                            <path d="M2.4,67.8 L5.7,67.8 C5.9,67.8 6.1,68.2 6.3,68.5 C6.2,68.6 6.2,68.7 6.1,68.7 L3.8,68.7 L3.8,69.6 C4.4,70.3 5.9,69 6.1,70.8 L3.8,70.8 L3.8,72 L6.1,72 C6.1,72.3 6.2,72.6 6.2,73 L2.3,73 C2.4,71.3 2.4,69.5 2.4,67.8 L2.4,67.8 L2.4,67.8 L2.4,67.8 Z" id="Shape"></path>
                                            <path d="M106.6,73 L102.8,73 L102.8,67.9 L106.6,67.9 C106.6,68.1 106.6,68.4 106.7,68.8 L104.2,68.8 C104.2,69.2 104.2,69.5 104.1,69.9 L106.3,69.9 C106.6,70.7 106.3,70.9 105.6,70.9 L104.1,70.9 L104.1,72 C104.9,72.1 105.7,72.2 106.5,72.3 C106.6,72.3 106.5,72.8 106.6,73 L106.6,73 L106.6,73 L106.6,73 Z" id="Shape"></path>
                                            <path d="M52.1,67.8 L57.2,67.8 L57.2,68.7 C56.6,68.7 56,68.8 55.3,68.8 L55.3,72.9 L53.9,72.9 L53.9,68.9 C53.2,68.7 52.6,68.6 52,68.5 C52,68.5 52.1,68.1 52.1,67.8 L52.1,67.8 L52.1,67.8 L52.1,67.8 Z" id="Shape"></path>
                                            <path d="M125,68.9 L123.2,68.9 C123.2,68.6 123.1,68.3 123.1,67.9 L128.2,67.9 C128.3,68.7 128.3,68.7 126.4,69 L126.4,73 L125,73 L125,68.9 L125,68.9 L125,68.9 L125,68.9 Z" id="Shape"></path>
                                            <path d="M27.8,68.7 C27.2,68.7 26.6,68.8 26,68.8 L26,73 L24.7,73 L24.7,68.8 C24,68.8 23.4,68.7 22.8,68.7 C22.6,68 22.7,67.8 23.4,67.8 L27.1,67.8 C27.9,67.7 28,68 27.8,68.7 L27.8,68.7 L27.8,68.7 L27.8,68.7 Z" id="Shape"></path>
                                            <path d="M139.4,3.6 C139.4,5.3 138,6.7 136.3,6.7 C134.6,6.7 133.3,5.3 133.3,3.6 C133.3,1.9 134.6,0.6 136.3,0.6 C138,0.6 139.4,1.9 139.4,3.6 L139.4,3.6 L139.4,3.6 L139.4,3.6 Z M136.4,6.2 C137.8,6.2 138.9,5.1 138.9,3.7 C138.9,2.3 137.8,1.1 136.3,1.1 C134.9,1.1 133.9,2.2 133.8,3.6 C133.8,5.1 134.9,6.2 136.4,6.2 L136.4,6.2 L136.4,6.2 L136.4,6.2 Z" id="Shape"></path>
                                            <path d="M72.8,67.8 L74,67.8 L74,73 C73.6,73 73.3,73 72.8,73.1 L72.8,67.8 L72.8,67.8 L72.8,67.8 Z" id="Shape"></path>
                                            <path d="M137,4.1 C137.2,4.5 137.4,4.9 137.6,5.2 L137.4,5.4 C136.9,4.9 136.5,4.3 135.9,3.6 C135.7,4.4 135.6,4.9 135.5,5.3 L135.3,5.3 L135.3,1.8 C136.1,2 136.9,2.1 137.5,2.5 C137.6,2.6 137.3,3.5 137.2,4.1 C137.2,4 137.1,4.1 137,4.1 L137,4.1 L137,4.1 L137,4.1 Z M135.8,3.6 C136.3,3.4 136.7,3.3 137.1,3.1 C137.2,3.1 137.1,2.6 137.1,2.6 C136.7,2.5 136.3,2.4 135.8,2.3 L135.8,3.6 L135.8,3.6 L135.8,3.6 Z" id="Shape"></path>
                                        </g>
                                    </g>
                                </g>
                            </g>
                        </g>
                    </g>
                </g>
            </g>
        </g>
    </g>
</svg>