<?xml version="1.0" encoding="UTF-8" standalone="no"?>
<svg width="188px" height="63px" viewBox="0 0 188 63" version="1.1" xmlns="http://www.w3.org/2000/svg" xmlns:xlink="http://www.w3.org/1999/xlink">
    <!-- Generator: Sketch 3.8.2 (29753) - http://www.bohemiancoding.com/sketch -->
    <title>twitch</title>
    <desc>Created with Sketch.</desc>
    <defs></defs>
    <g id="Page-1" stroke="none" stroke-width="1" fill="none" fill-rule="evenodd">
        <g id="Artboard-1-Copy-3" transform="translate(-77.000000, -82.000000)" fill="#808080">
            <g id="twitch" transform="translate(77.000000, 82.000000)">
                <g id="Shape">
                    <g id="Page-1">
                        <g id="twitch">
                            <g id="Page-1">
                                <g id="twitch">
                                    <path d="M187.314706,20.0434783 L187.314706,52.2608696 L171.023529,63 L160.35,63 L160.35,57.6304348 L152.766176,63 L143.216176,63 L143.216176,57.6304348 L137.879412,63 L120.745588,63 L115.408824,57.6304348 L114.285294,63 L99.1176471,63 L92.9382353,57.6304348 L92.9382353,63 L76.0852941,63 L75.5235294,57.6304348 L70.7485294,63 L44.9073529,63 L39.5705882,60.7391304 L39.5705882,63 L25.8073529,63 L9.79705882,53.3913043 L0.247058824,43.7826087 L0.247058824,0.543478261 L20.4705882,0.543478261 L30.0205882,10.1521739 L73.8382353,10.1521739 L73.8382353,0.543478261 L110.352941,0.543478261 L110.352941,10.1521739 L119.902941,10.1521739 L119.902941,15.5217391 L125.239706,10.1521739 L135.913235,10.1521739 L145.463235,0.543478261 L165.686765,0.543478261 L165.686765,10.1521739 L177.764706,10.1521739 L187.314706,20.0434783 L187.314706,20.0434783 L187.314706,20.0434783 Z M25.5264706,14.673913 L15.6955882,14.673913 L15.6955882,5.06521739 L4.17941176,5.06521739 L4.17941176,41.8043478 L11.7632353,49.4347826 L25.8073529,49.4347826 L25.8073529,37.5652174 L15.9764706,37.5652174 L15.9764706,26.826087 L25.5264706,26.826087 L25.5264706,14.673913 L25.5264706,14.673913 L25.5264706,14.673913 Z M73.5573529,14.673913 L61.7602941,14.673913 L61.7602941,37.2826087 L57.5470588,37.2826087 L57.5470588,14.673913 L45.75,14.673913 L45.75,37.2826087 L41.5367647,37.2826087 L41.5367647,14.673913 L29.7397059,14.673913 L29.7397059,49.1521739 L66.2544118,49.1521739 L73.8382353,41.5217391 L73.8382353,14.673913 L73.5573529,14.673913 L73.5573529,14.673913 L73.5573529,14.673913 Z M89.8485294,14.673913 L78.0514706,14.673913 L78.0514706,49.1521739 L89.8485294,49.1521739 L89.8485294,14.673913 L89.8485294,14.673913 L89.8485294,14.673913 Z M89.8485294,5.06521739 L78.0514706,5.06521739 L78.0514706,10.4347826 L89.8485294,10.4347826 L89.8485294,5.06521739 L89.8485294,5.06521739 L89.8485294,5.06521739 Z M115.408824,14.673913 L105.858824,14.673913 L105.858824,5.06521739 L94.0617647,5.06521739 L94.0617647,41.8043478 L101.645588,49.4347826 L115.689706,49.4347826 L115.689706,37.5652174 L106.139706,37.5652174 L106.139706,26.826087 L115.689706,26.826087 L115.689706,14.673913 L115.408824,14.673913 L115.408824,14.673913 L115.408824,14.673913 Z M145.463235,14.673913 L127.205882,14.673913 L119.622059,22.3043478 L119.622059,41.8043478 L127.205882,49.4347826 L145.463235,49.4347826 L145.463235,37.5652174 L131.7,37.5652174 L131.7,26.826087 L145.744118,26.826087 L145.463235,14.673913 L145.463235,14.673913 L145.463235,14.673913 Z M182.820588,22.3043478 L175.236765,14.673913 L161.192647,14.673913 L161.192647,5.06521739 L149.676471,5.06521739 L149.676471,49.1521739 L161.473529,49.1521739 L161.473529,26.5434783 L171.023529,26.5434783 L171.023529,49.1521739 L182.820588,49.1521739 L182.820588,22.3043478 L182.820588,22.3043478 L182.820588,22.3043478 Z" id="Shape"></path>
                                </g>
                            </g>
                        </g>
                    </g>
                </g>
            </g>
        </g>
    </g>
</svg>