<?xml version="1.0" encoding="utf-8"?>
<!-- Generator: Adobe Illustrator 18.1.1, SVG Export Plug-In . SVG Version: 6.00 Build 0)  -->
<!DOCTYPE svg PUBLIC "-//W3C//DTD SVG 1.1//EN" "http://www.w3.org/Graphics/SVG/1.1/DTD/svg11.dtd">
<svg version="1.1" id="Layer_1" xmlns="http://www.w3.org/2000/svg" xmlns:xlink="http://www.w3.org/1999/xlink" x="0px" y="0px"
	 viewBox="0 0 72 72" enable-background="new 0 0 72 72" xml:space="preserve">
<polygon fill="#119BD5" points="32.4,53.2 37.1,53.2 37.1,16.8 18.1,43.6 32.4,43.6 "/>
<polygon fill="#FFFFFF" points="32.5,31.6 32.5,39 27.6,39 "/>
<polygon fill="#119BD5" points="16.5,45.4 22.6,45.4 17.6,53.2 11.4,53.2 "/>
<rect x="35.5" y="39" fill="#119BD5" width="6.1" height="4.9"/>
<polygon fill="#119BD5" points="44.7,39 50.4,39 47,43.8 41.5,43.8 "/>
<path fill="#119BD5" d="M60.4,39.8c0,0-1.4-0.8-4.5-0.8c-1.8,0-3.9,0.5-5.1,1.9c-1.2,1.4-1,3.8,0.3,5c0.9,0.8,2.4,1.2,3,2.2
	c0.1,0.2,0.2,0.4,0.1,0.6c-0.1,0.2-0.2,0.4-0.4,0.4c-0.9,0.4-1.8,0-2.6-0.3c-0.1,0-1.6-0.5-1.6-0.5c0,0-2.3,3.2-2.3,3.2
	c0,0,2.6,1,2.7,1c1.8,0.5,3.8,0.7,5.6,0c1.3-0.5,2.4-1.4,3.1-2.5c0.5-0.7,0.8-1.7,0.7-2.6c-0.1-1-0.7-1.8-1.5-2.4
	c-0.7-0.5-3.3-1.5-2.8-2.7c0.3-0.9,2-0.3,2.6-0.1c0,0,0.8,0.4,0.7,0.5C58.5,42.9,60.4,39.8,60.4,39.8z"/>
</svg>
