<?xml version="1.0" encoding="UTF-8" standalone="no"?>
<svg width="50px" height="38px" viewBox="0 0 50 38" version="1.1" xmlns="http://www.w3.org/2000/svg" xmlns:xlink="http://www.w3.org/1999/xlink" xmlns:sketch="http://www.bohemiancoding.com/sketch/ns">
    <!-- Generator: Sketch 3.3.3 (12081) - http://www.bohemiancoding.com/sketch -->
    <title>4as</title>
    <desc>Created with Sketch.</desc>
    <defs></defs>
    <g id="Page-1" stroke="none" stroke-width="1" fill="none" fill-rule="evenodd" sketch:type="MSPage">
        <g id="4as" sketch:type="MSLayerGroup">
            <g id="Page-1" sketch:type="MSShapeGroup">
                <g id="4as">
                    <g id="Page-1">
                        <g id="4as">
                            <path d="M21.4,37.2 L26.1,37.2 L26.1,0.8 L7.1,27.6 L21.4,27.6 L21.4,37.2 L21.4,37.2 Z" id="Shape" fill="#808080"></path>
                            <path d="M21.5,15.6 L21.5,23 L16.6,23 L21.5,15.6 L21.5,15.6 Z" id="Shape" fill="#FFFFFF"></path>
                            <path d="M5.5,29.4 L11.6,29.4 L6.6,37.2 L0.4,37.2 L5.5,29.4 L5.5,29.4 Z" id="Shape" fill="#808080"></path>
                            <rect id="Rectangle-path" fill="#808080" x="24.5" y="23" width="6.1" height="4.9"></rect>
                            <path d="M33.7,23 L39.4,23 L36,27.8 L30.5,27.8 L33.7,23 L33.7,23 Z" id="Shape" fill="#808080"></path>
                            <path d="M49.4,23.8 C49.4,23.8 48,23 44.9,23 C43.1,23 41,23.5 39.8,24.9 C38.6,26.3 38.8,28.7 40.1,29.9 C41,30.7 42.5,31.1 43.1,32.1 C43.2,32.3 43.3,32.5 43.2,32.7 C43.1,32.9 43,33.1 42.8,33.1 C41.9,33.5 41,33.1 40.2,32.8 C40.1,32.8 38.6,32.3 38.6,32.3 L36.3,35.5 C36.3,35.5 38.9,36.5 39,36.5 C40.8,37 42.8,37.2 44.6,36.5 C45.9,36 47,35.1 47.7,34 C48.2,33.3 48.5,32.3 48.4,31.4 C48.3,30.4 47.7,29.6 46.9,29 C46.2,28.5 43.6,27.5 44.1,26.3 C44.4,25.4 46.1,26 46.7,26.2 C46.7,26.2 47.5,26.6 47.4,26.7 C47.5,26.9 49.4,23.8 49.4,23.8 L49.4,23.8 L49.4,23.8 Z" id="Shape" fill="#808080"></path>
                        </g>
                    </g>
                </g>
            </g>
        </g>
    </g>
</svg>