<?xml version="1.0" encoding="utf-8"?>
<!-- Generator: Adobe Illustrator 18.1.1, SVG Export Plug-In . SVG Version: 6.00 Build 0)  -->
<!DOCTYPE svg PUBLIC "-//W3C//DTD SVG 1.1//EN" "http://www.w3.org/Graphics/SVG/1.1/DTD/svg11.dtd">
<svg version="1.1" id="Layer_1" xmlns="http://www.w3.org/2000/svg" xmlns:xlink="http://www.w3.org/1999/xlink" x="0px" y="0px"
	 viewBox="0 0 192 72" enable-background="new 0 0 192 72" xml:space="preserve">
<g id="GQulL7.tif">
	<g>
		<path fill="#119BD5" d="M45.2,21.3c0.7,0.3,1.3,0.6,1.9,0.7c1.1,0.3,1.2,0.6,0.8,1.6c-0.3,0.7-0.5,1,0.5,1.5
			c0.7,0.4,1.4,1.2,1.1,2.4c-0.3,1.2-0.2,2.5-0.1,3.8c0,0.5,0.5,1.1,0.8,1.6c0.1,0.3,0.3,0.6,0.4,0.9c0.1,1.8,0,3.6,0.1,5.5
			c0.1,1.4,0.1,2.8-0.6,4.1c-0.2,0.4-0.1,1.1,0,1.7c0.4,1.9,0,3.6-1,5.1c-1,1.5-1.6,3.1-1.8,4.9c0,0.3-0.3,0.7-0.6,0.9
			c-1.6,1.2-3.3,2.4-4.9,3.5c-0.2,0.1-0.4,0.2-0.6,0.2c-1,0.3-1.9,0.5-2.9,0.7c-0.2,0.1-0.5-0.1-0.8-0.2c-0.4-0.1-0.9-0.2-1.1-0.1
			c-0.8,0.8-1.7,0.7-2.7,0.7c-1.5-0.1-3-0.2-4.4-0.3c-0.4,0-0.7-0.2-1.1-0.4c2.6-1.1,2.4-3.6,2.6-5.6c0.5-4.3,0.1-8.5-0.3-12.8
			c-0.3-3-0.1-6,0.2-9c0.1-0.8,0.7-1.7,0.6-2.6c-0.2-1.4-0.3-2.8-0.4-4.3c0-0.6,0.3-1.2,0.3-1.8c0.1-0.8,0-1.5,0-2.3
			c-0.1-0.6-0.4-1.1-0.4-1.7c0-3.4,0-6.8,0-10.3c0-0.5,0.2-1,0.4-1.5c0.4-0.8,0.1-1.4-0.8-1.6c-0.3-0.1-0.5-0.4-0.7-0.6
			c-0.6-0.6-1.2-1-1.6-1.7c-0.3-0.5-0.4-1.3-0.3-1.8c0.1-0.3,0.8-0.5,1.3-0.6c1.1-0.2,2.2-0.4,3.3-0.4c2.3-0.1,4.7-0.2,7-0.2
			c1.5,0,3.1,0,4.6,0c0.2,0,0.5,0,0.6,0.1c0.6,1.2,1.8,1.3,2.9,1.8c1.3,0.6,2,1.9,2.2,3.2c0.4,2,0.5,4,0.7,6c0,0.3-0.1,0.6-0.2,0.9
			c-1.5,2.4-3,4.8-4.5,7.2C45.5,20.7,45.5,20.9,45.2,21.3z M37,54.8c0.6-0.1,0.9-0.1,1.1-0.2c0.7-0.4,1.3-0.8,1.9-1.3
			c1.3-1.2,2.7-2.2,2.7-4.3c0-1,0.3-2,0.5-2.9c0.5-2.1,0.9-4.2,0.1-6.4c-0.2-0.5,0.1-1.2,0.2-1.8c0-0.4,0.3-0.8,0.1-1
			c-0.9-1.3-0.7-2.7-0.2-4c0.1-0.1,0-0.3-0.1-0.5c-0.2-1.1-0.3-2.2-0.5-3.3c-0.1-0.4-0.1-0.9-0.4-1.1c-1.1-1-2.3-1.9-3.5-3
			c-0.1,2.4-0.3,4.7-0.3,7c0,1.4,0.1,2.7-0.7,3.9c-0.1,0.1,0,0.4,0,0.6c0.1,0.6,0.4,1.2,0.4,1.7c0,2.3,0,4.6,0,6.8
			c0,0.3,0,0.6-0.1,0.9c-0.2,0.9-0.4,1.8-0.5,2.8C37.5,50.7,38.3,52.7,37,54.8z M39.2,8.3c-0.9,3.3-0.2,6.8-0.4,10.2
			c1.1,0.5,1.7,0.1,2-0.9c0.2-0.5,0.6-1.2,1.1-1.3c1.4-0.4,1.5-1.3,1.4-2.5c0-0.4,0.1-0.8,0.1-1.1c0-0.6,0.1-1.1,0.1-1.7
			c0-0.6,0-1.2,0-1.8c-0.3-0.2-1-0.3-1.3-0.7c-0.4-0.5-0.8-0.5-1.4-0.4C40.4,8.2,39.9,8.2,39.2,8.3z"/>
		<path fill="#119BD5" d="M128.1,5.4c-0.6,0.1-1.3,0.2-1.9,0.2c-0.3,0-0.9-0.1-1-0.3c-1.1-2.1-2.7-3.4-4.9-4.1c-0.1,0-0.1,0-0.2-0.1
			c0,0-0.1-0.1-0.3-0.4c1.8,0,3.4,0,4.9,0c0.9,0,1.8-0.2,2.8-0.3c0.2,0,0.5-0.1,0.7,0c2.1,0.5,4.1,1,6.1,1.4c0.7,0.2,1.3,0.3,2,0.4
			c1.7,0.3,2.9,1.4,3.8,2.7c0.6,0.9,0.9,2.1,1.5,3.1c1,1.8,1.1,3.6,0.4,5.6c-0.1,0.3-0.2,0.7-0.2,1.1c0.1,2.1-0.7,3.8-1.8,5.5
			c-0.8,1.2-1.9,2.1-3.4,2.3c-1.2,0.2-0.3,1.1-0.8,1.7c1.6-0.5,2.5,0.4,3.3,1.4c0.3,0.3,0.4,0.7,0.6,1.1c0.1,0.2,0.1,0.5,0.2,0.6
			c1.7,1,1.2,2.8,1.6,4.2c0.3,1.5,0.3,3.1,0.6,4.6c0.1,0.5,0.7,0.8,0.9,1.3c0.2,0.7,0.3,1.5,0.4,2.2c0.2,1.5,0.6,3,0.2,4.5
			c-0.1,0.2,0.2,0.5,0.3,0.7c0.3,0.6,0.7,1.2,0.8,1.8c0,1.5-0.3,3-0.2,4.5c0.2,2.9-0.8,5.5-1.2,8.3c0,0.1-0.1,0.2-0.3,0.5
			c-0.8-0.5-1.7-0.9-2.5-1.4c-0.5-0.3-0.9-1-1.5-1.3c-1-0.5-2.1-0.9-3.2-1.4c-0.1,0.1-0.2,0.2-0.3,0.2c0.1-0.5,0.1-1,0.3-1.4
			c1.4-3.2,1.9-6.5,1.5-9.9c-0.3-2.7-0.8-5.5-1.8-8c-0.5-1.4-0.8-2.5-0.5-3.9c0.1-0.6-0.1-1.4-0.4-1.9c-0.6-1.2-1.4-2.4-2.2-3.6
			c-0.5,1.2-0.9,2.1-1.2,3c-0.1,0.4-0.2,0.9-0.2,1.4c0.4,3.7,0.9,7.5,1.1,11.2c0.1,2.4,0.6,4.8,0,7.3c-0.3,1.1,0.3,2.4,0.2,3.6
			c-0.1,2.2-0.4,4.4-0.6,6.6c-0.1,0-0.2,0-0.3,0c-0.1-0.2-0.2-0.3-0.3-0.5c-1.1-2.8-3-4.9-5.5-6.4c-1-0.6-1.3-1.2-0.8-2.3
			c0.8-1.8,1.5-3.7,2.1-5.6c0.2-0.6,0.1-1.3,0-2c-0.1-0.7-0.4-1.3-0.4-1.9c0-3.7,0.1-7.4-0.1-11.1c-0.1-1.7-0.5-3.3-0.8-5
			c-0.2-1.3-0.4-2.5-0.5-3.8c-0.2-1.9-0.4-3.7-0.6-5.6c-0.1-0.4-0.3-0.9-0.5-1.2c-1-1.6-0.4-3.3-0.5-4.9c0-0.3,0.5-0.6,0.8-0.9
			c1-0.8,1.9-1.5,2.9-2.3c0.3-0.3,0.6-0.7,0.8-1C128.2,5.7,128.1,5.6,128.1,5.4z M131.5,7c-0.1,0.3-0.2,0.4-0.2,0.4
			c0,4.5,0,9,0,13.6c0,0.7,0.4,0.7,0.9,0.7c1.2-0.2,2.2-0.7,2.6-1.9c0.5-1.7,1.1-3.3,1.4-5c0.2-1.1,0.1-2.5-0.4-3.4
			c-0.8-1.4-2-2.5-3.1-3.7C132.4,7.4,132,7.2,131.5,7z"/>
		<path fill="#119BD5" d="M141.4-0.7c0.9,0.3,1.9,0.6,2.9,0.7c1.9,0.2,3.4,1.2,5,2c1,0.5,2.3,0.7,3.4,1c1.1,0.3,2.2,0.6,3.3,1
			c0.1,0,0.1,0,0.2,0c2.9-0.1,4,2.1,5.2,4.2c1.2,2.1,1.4,4.4,1.2,6.8c0,0.4-0.1,0.8,0.1,1.1c0.9,2.6,0.6,5.3,0.6,8
			c0,0.2,0,0.4-0.1,0.5c-1,1.3-0.7,2.9-0.8,4.4c0,0.5-0.2,1.1-0.5,1.6c-1.5,2.3-1.6,4.8-1.5,7.3c0.1,2.3,0.3,4.7,0.1,7
			c-0.3,3-0.8,6-1.3,9.1c-0.2,1.4-0.8,2.8-1.9,3.7c-0.8,0.6-1.7,0.9-2.6,1.3c-0.9,0.3-1.8,0.6-2.7,0.8c-0.2,0.1-0.5,0.2-0.6,0.1
			c-1.3-0.9-2.5,0.3-3.8,0.2c-0.5,0-0.9,0-1.5,0c0.2-0.3,0.3-0.6,0.5-0.8c1.1-1.5,1.4-3.2,0.8-5c-0.3-0.7-0.1-1.1,0.6-1.3
			c0.5-0.2,0.9-0.5,1.4-0.8c-1.9-2.5-2.3-5.2-1.7-8.2c0.3-1.5,0.4-3,0.5-4.5c0-0.3-0.1-0.6-0.2-0.9c-1.1-1.9-1.9-3.8-2-6.1
			c0-1.8-0.3-3.7-0.5-5.5c-0.7-5-0.8-10.1-0.5-15.1c0.1-1.5,0.4-3.1,0.5-4.6c0-0.4,0.3-0.8,0.4-1.2c0.3-1.5-0.2-2.7-1.5-3.7
			c-1-0.8-1.9-1.9-2.8-2.8C141.3-0.4,141.4-0.5,141.4-0.7z M151.8,50.9c1.4-1.3,2.1-2.8,2.5-4.6c0.2-1,0.6-2,0.8-3.1
			c0.2-0.8,0.4-1.5,0.5-2.3c0.1-2.8,0.1-5.5,0.2-8.3c0-1.1,0.2-2.1,0.5-3.2c0.2-0.9,0.7-1.8,1-2.6c0.2-0.4,0.3-0.8,0.4-1.2
			c0.7-1.8,0.6-3.7,0.2-5.5c-0.4-1.6-0.6-3.5-2.3-4.5c-0.1-0.1-0.1-0.2-0.2-0.3c-0.7-1.3-3.2-2.3-4.6-1.8c-0.2,0.1-0.3,0.3-0.4,0.4
			c-0.1,0.5-0.2,1-0.2,1.4c0.1,2.5,0.2,5.1,0.3,7.6c0,0.4,0.1,0.8,0.2,1.2c0.5,2.4,1.5,4.6,1.2,7.1c-0.2,1.4-0.1,2.8-0.1,4.1
			c0,4.1,0,8.2,0,12.2C151.8,48.8,151.8,49.9,151.8,50.9z"/>
		<path fill="#119BD5" d="M117.9,61.6c0.3-2.5-0.9-4.7-1.2-7c-0.2-1.9-0.9-3.2-2.1-4.5c-0.7-0.8-0.8-1.6,0-2.6
			c1.3-1.7,2.1-3.6,2.5-5.7c0.2-0.9,0-1.5-0.8-2c-1.6-0.9-3.3-1.9-4.9-2.9c-0.2-0.1-0.6-0.1-0.7-0.1c0,1.2-0.1,2.3,0.1,3.3
			c0.1,0.5,0.7,0.9,1.1,1.4c0.2,0.2,0.5,0.6,0.5,0.8c-0.3,0.4-0.7,0.8-1.1,1.2c0,0-0.1,0-0.1,0c-2.8-0.5-5.3,0.5-7.8,1.5
			c-0.3,0.1-1,0.1-1,0c-0.2-0.6-0.4-1.2-0.3-1.8c0.1-0.4,0.6-0.8,0.9-1.2c0.2-0.3,0.4-0.5,0.5-0.9c0.5-1.7,0.5-1.7,1.7-2.7
			c0-0.7-0.1-1.3-0.1-1.9c0-1,0.1-2,0.1-3c0-0.4,0.1-0.7,0.2-1.1c0.1-0.4,0.3-0.9,0.4-1.3c0.1-0.5,0.2-1,0.4-1.5
			c0-0.1,0.1-0.3,0.1-0.4c-0.1-1-0.4-2-0.4-3c0-0.6,0.3-1.2,0.6-1.8c0.3-0.8,0.6-1.6,0.9-2.4c0.7-2.5,1.3-5,2.1-7.5
			c0.2-0.8,0.7-1.4,0.7-2.4c0-0.9,0.8-1.9,1.2-2.9c0.3-0.7,0.8-1.3,1.1-2c0.2-0.5,0.2-1.1,0.3-1.6c0.2-0.6,0.4-1.4,0.8-1.7
			c0.8-0.5,0.9-1.1,0.9-1.9c0-0.4,0.1-0.9,0.3-1.3c0.4-0.6,1.6-0.3,1.8,0.6c0.4,1.8,0.9,3.4,2.1,4.9c0.1,0.1,0.1,0.3,0.1,0.5
			c0.4,1.8,0.7,3.6,1.2,5.3c0.6,2.3,1.3,4.6,1.9,6.9c0.5,1.9,1.1,3.8,1.7,5.7c0,0.2,0,0.3,0.1,0.5c0.2,2.9,0.5,5.9,0.6,8.8
			c0.1,3.5,0.2,7-0.1,10.4c-0.2,1.9-1.3,3.7-2,5.6c-0.1,0.3-0.4,0.6-0.3,0.8c0.2,2.1-0.8,3.9-1.4,5.8c-0.4,1.1-0.5,2.4-0.6,3.6
			C119.5,61.4,119.3,61.7,117.9,61.6z M117.8,34.5c0.1-3.7,0.3-7-0.4-10.4c-0.1-0.5-0.4-1.1-0.8-1.2c-1.1-0.4-2-0.9-2.4-2
			c-0.3,1-0.6,2-1,3c-0.2,0.4-0.7,0.8-0.8,1.2c-0.4,2.2-0.7,4.3-0.5,6.6c0.1,0.6,0.2,1,0.9,0.9c1.3-0.1,2.4,0.3,3.5,1.1
			C116.7,34,117.2,34.2,117.8,34.5z"/>
		<path fill="#119BD5" d="M59.7,55c0.8,0.1,1.5,0.2,2.2,0.2c0.8,0,1.6,0,2.2-0.7c0.5-0.6,1.1-0.7,1.9-0.5c1.4,0.3,2.8,0.4,4.2,0.5
			c0.3,0,0.6-0.1,0.8-0.2c1.5-1.1,3.2-1,4.9-1c3.8-0.1,7.6,0,11.4,0c1.6,0,1.6,0.1,1.6,1.7c0,0.7,0,1.3,0,2c0,0.8-0.1,1.5,0,2.3
			c0.1,0.7,0.5,1.4,0.8,2.2c-0.2,0-0.5,0.1-0.7,0.1c-1.2,0-2.4,0-3.5,0c-1.9,0.1-3.7-0.6-5.5-1.2c-0.4-0.2-0.9-0.3-1.4-0.3
			c-1.1,0-2.1,0-3.2,0c-0.3,0-0.8,0-1-0.2c-0.9-0.8-1.9-0.6-2.9-0.6c-3.1,0-6.1,0-9.2,0c-0.4,0-0.9-0.2-1.3-0.4
			c-1.3-0.6-2.6-0.7-3.8,0.2c-0.7,0.6-1.3,1.2-2.1,1.7c-0.2,0.2-0.6,0.2-0.9,0.2c-1.2,0-2.3,0-3.5-0.1c-0.3,0-0.6-0.2-1-0.3
			c0-0.1-0.1-0.3-0.1-0.4c0.6-0.5,1.1-1,1.7-1.5c1.2-0.8,2.3-1.5,2.2-3.4c0-0.9-0.1-1.8-0.1-2.7c-0.1-2,0.2-3.8,0.9-5.7
			c0.1-0.3-0.2-0.9-0.4-1.3c-0.2-0.4-0.5-0.8-0.5-1.3c-0.1-1.6-0.1-3.2,0-4.9c0.1-1.6,0-3.2,0.5-4.6c0.7-1.8,0.2-3.5,0.5-5.2
			c0.3-1.4,0.3-2.7,0-4.1c-0.2-0.9,0-2-0.1-3c-0.1-2.3-0.4-4.7-0.5-7c0-0.4,0.1-0.9,0.4-1.2c0.6-0.8,0.9-3.2,0.5-4.2
			c-0.1-0.3-0.2-0.8,0-1.1c0.6-1.2,0.6-2.4,0.1-3.6c-0.3-0.7-0.6-1.4-1.6-1.3c-0.1,0-0.3-0.1-0.4-0.2c-0.7-0.9-1.4-1.7-2.2-2.7
			c0.3-0.7,0.5-1.2,1.7-0.5C52.9,1.3,54,1,55,1c0.6,0,1.2,0,1.5,0.6C56.6,1.8,56.8,2,57,2c1.7,0,2,1.6,3,2.4
			c0.2,0.1,0.2,0.5,0.2,0.8c0,1.2,0,2.4,0,3.6c0,0.2,0,0.5-0.1,0.6C59.5,10,60,10.4,60.3,11c0.3,0.7,0.2,1.7,0.2,2.5
			c0,0.4-0.3,0.8-0.3,1.2c0,2.9,0,5.8,0,8.7c0,0.4,0.3,0.8,0.5,1.2c0.2,0.5,0.6,1,0.6,1.6c0,3,0.1,6.1-0.2,9.1
			c-0.1,1.3-0.5,2.6-0.4,3.9c0.1,1,0.5,2,0.4,3c-0.2,1.3-0.7,2.4-0.6,3.9c0.1,1.8-0.5,3.6-0.8,5.3c-0.1,0.5-0.3,1-0.3,1.6
			C59.4,53.7,59.6,54.4,59.7,55z"/>
		<path fill="#119BD5" d="M97.1,51.7c1.1-0.1,2.1-0.1,3.1-0.3c0.3-0.1,0.7-0.4,0.8-0.7c0.2-1,0.8-1.4,1.7-1.8
			c1.3-0.5,2.7-1.1,3.9-1.8c0.7-0.4,1.2-1,1.7-1.4c0.8,0.1,1.5,0.2,2.2,0.3c1.4,0,1.9,0.8,1.4,2.1c-0.2,0.4-0.1,0.9-0.1,1.4
			c0.1,1.7,0.3,3.5,0.3,5.2c0,0.7-0.4,1.3-1.4,1.2c-0.9-0.1-1.9-0.1-2.8,0c-1.9,0.3-3.7-0.4-5.6-0.7c-0.3,0-0.7-0.1-0.8,0
			c-1.3,1.3-3,1-4.6,1.2c-1.1,0.1-2.1,0.4-3.2,0.7c-1.1,0.3-1.5,0.1-1.5-1.1c0.1-1.1-0.4-2.4,0.6-3.3c0.1-0.1,0.1-0.4,0.1-0.6
			c0-0.2-0.1-0.5,0-0.6c0.8-0.9,1-2,1.2-3.2c0-0.1,0.3-0.3,0.3-0.4c0-2.4,1.2-4.8,0-7.4c-1-2-0.8-4.4-0.2-6.5
			c0.7-2.8,1.8-5.5,2.7-8.2c0.2-0.6,0.6-1.2,0-1.8c-0.1-0.1-0.1-0.4-0.1-0.5c0.5-1.3,1-2.6,1.4-3.9c0.3-1,0.5-2,0.8-2.9
			c0.2-0.8,0.3-1.6,0.7-2.3c0.8-1.5,1.7-3,2.5-4.5c0.1-0.3,0.2-0.6,0.3-0.8c0.1-0.6,0.2-1.2,0.3-2c-0.4,0-1-0.1-1.5-0.1
			c-0.6,0-1.1,0-1.7-0.5c-0.7-0.7-2.7-0.2-3.1,0.9c-0.5,1.1-0.7,2.4-1.1,3.6c-0.2,0.6-0.2,1.1-0.4,1.7c-0.3,1.1-1.1,1.8-2.1,1.8
			c-0.2,0-0.6-0.5-0.6-0.9c-0.1-0.5-0.1-1.1-0.1-1.6c0-0.3-0.1-0.8,0.1-1c0.7-0.7,0.6-1.5,0.6-2.3c0-2.1,0-4.2,0-6.3
			c0-0.8,0.2-1.1,1-1.1c4.9,0,9.9,0,14.8,0c0.4,0,0.9,0.2,1.3,0.5c0.2,0.1,0.4,0.6,0.3,0.8c-0.2,0.6-0.4,1.2-0.8,1.8
			c-0.6,1.1-1.4,2.1-1.2,3.5c-1.2,1.2-1.1,3.1-2.1,4.4c-0.3,0.5-0.3,1.2-0.5,1.8c-0.3,1.2-0.7,2.3-0.8,3.5c-0.2,1.6-0.3,3.2-0.4,4.8
			c-0.1,2-0.9,3.8-1.5,5.6c0,0.1-0.1,0.1-0.1,0.2c-0.1,2.5-2.4,4.4-1.9,7.2c0.4,1.9-0.2,3.8-0.9,5.6c-0.3,0.8-0.3,1.7-0.5,2.5
			c-0.3,1.2-0.5,2.5-0.9,3.7c-0.5,1.5-1.1,2.9-1.7,4.4C97.1,51.5,97.1,51.7,97.1,51.7z"/>
		<path fill="#119BD5" d="M87.7,39.5c1,0.4,1.4,0.2,1.9-1c0.4-1.2,0.4-1.2,1.7-1c0.1,0.9,0.3,1.8,0.3,2.7c0,0.4-0.4,0.7-0.6,1.1
			c-0.9,1.6-0.5,3.4-0.5,5.1c0,1,0.1,2,0.1,2.9c-2.2,2-4.7,1.3-7.1,1.4c-0.2,0-0.4-0.1-0.5-0.2c-0.7-0.6-1.3-0.3-1.9,0.2
			c-0.4,0.3-1,0.6-1.3,0.4c-1.4-0.8-2.8-0.5-4.2-0.6c-0.4,0-0.7-0.2-1-0.5c-0.1-0.1-0.2-0.5-0.1-0.6c0.8-0.8,0.4-1.7,0.6-2.6
			c0.1-0.5,0.4-1.1,0.4-1.6c0-0.5-0.1-1-0.3-1.4c-0.2-0.5-0.5-1-0.3-1.6c0.1-0.5-0.3-1.1-0.2-1.6c0.2-1.8,0.6-3.6,0.8-5.4
			c0.2-1.9,1.5-3.4,2.2-5.1c1.2-2.6,2.9-5,3.2-8c0.1-1.2,0.7-2.2,1.8-3c0.8-0.6,1.4-1.7,2-2.6c0.2-0.2,0.1-0.7,0.1-1
			c-0.2-1.2,0-2.1,0.8-3c1-1,1.8-2.1,2.5-3.3c0.3-0.5,0.2-1.3,0.2-2c0-0.5,0-1,0-1.6c-1.8,0-3.5-0.1-5.2,0c-1.4,0.1-2.8,1.7-3.1,3.1
			c-0.1,0.3-0.4,0.7-0.8,0.9c-0.9,0.4-1.4,1-1.3,2c0.1,0.8,0,1.6,0,2.4c0,1.2-0.2,1.6-1.2,2.8c-0.3-0.7-0.6-1.3-0.8-2
			c-0.2-1.1-0.4-2.3-0.3-3.4c0.1-1.2,0.5-2.3-0.6-3.2c-0.1-0.1-0.1-0.2-0.1-0.4c0.1-1.9-0.5-3.9,0.6-5.6c4.8,0,9.5,0,14.2,0
			c0.1,0.1,0.1,0.2,0.2,0.3c0.5,3.7,0.8,7.5,0.6,11.3c0,0.6-0.3,1.1-0.4,1.7c-0.1,0.4-0.3,0.8-0.3,1.1c0.2,1.1-0.4,1.9-0.8,2.9
			c-1,2.1-2.2,4.1-2.2,6.6c0,0.2-0.3,0.6-0.5,0.7c-1.4,0.7-2.2,1.7-2,3.4c0,0.2-0.1,0.6-0.3,0.8c-2.1,2.6-3.3,5.7-3.9,9
			c-0.3,1.5-0.9,2.9-1.5,4.4c-0.3,0.9-0.7,1.9-1.1,2.8c-0.3,0.7,0,1,0.7,0.9c0.2,0,0.4-0.2,0.7-0.3c1-0.3,1.9-0.7,2.9-1
			c0.8-0.2,1.4-0.6,1.9-1.3c0.8-1.4,1.6-2.8,3.4-3.3c0.2-0.1,0.3-0.4,0.4-0.6C87.2,40.4,87.4,39.9,87.7,39.5z"/>
		<path fill="#119BD5" d="M61.5,2.3c0.5-0.1,0.9-0.4,1.4-0.4c2.7,0,5.3,0,8,0c0.7,0,1.1,0.4,1.3,0.9c0.2,0.6-0.1,0.9-0.7,1.1
			c-0.5,0.2-1,0.6-1.4,1c-0.3,0.3-0.6,0.9-0.5,1.1c1.1,1.6-0.6,3-0.3,4.6c0.3,1.6,0.2,3.2,0.2,4.9c0,2.3-0.1,4.6-0.1,6.9
			c0,0.5,0.2,1.1,0.3,1.6c0.2,0.9,0.4,1.6-0.2,2.6c-0.5,0.7-0.2,1.9-0.2,2.9c0,1,0.2,2,0.3,3c0.1,0.8,0.1,1.6-0.6,2.2
			c-0.2,0.2-0.4,0.7-0.4,1c0.2,1.3,0.3,2.6,0.7,3.7c0.5,1.5,0.3,2.8,0.2,4.3c0,0.2-0.1,0.4-0.2,0.6c-0.8,1.1-0.4,2.8,0.7,3.5
			c0.5,0.3,1.1,0.6,1.6,1c0.9,0.6,1,0.7,0.9,2.1c-2,0-4,0-6,0c-0.9,0-1.8,0.1-2.6,0.8c-0.6,0.7-1,0-1.5-0.5c0.7-0.7,1.3-1.3,1.9-2.1
			c0.3-0.4,0.6-0.9,0.6-1.3c0.1-1.4,0.1-2.9,0.3-4.3c0.1-0.6,0.3-1.2,0.4-1.8c0-0.4-0.1-0.7-0.1-1.1c0-0.8-0.1-1.6,0-2.4
			c0-0.7,0.3-1.3,0.3-2c0-5.9,0-11.8,0-17.7c0-0.8,0.2-1.6,0.2-2.5c0-0.8-0.3-1.6-0.4-2.4c-0.2-2.6-0.3-5.2-0.5-7.9
			c0-0.8-0.4-1.1-1.1-1.4c-0.9-0.4-1.7-0.9-2.5-1.4C61.5,2.6,61.5,2.4,61.5,2.3z"/>
		<path fill="#119BD5" d="M118.2,65.9c1.6-0.6,1.9,1.2,2.8,1.7c0.9-0.6,1.2-2.2,2.8-1.7c0,1.7,0,3.4,0,5.1c-0.4,0-0.8,0-1.3,0
			c0-0.9,0-1.8,0-2.7c-0.1,0-0.2-0.1-0.2-0.1c-0.4,0.4-0.8,0.9-1.3,1.4c-0.5-0.5-0.9-1-1.5-1.6c0,1.1,0,2.1,0,3.1
			c-0.5,0-0.9,0-1.3,0C118.2,69.3,118.2,67.7,118.2,65.9z"/>
		<path fill="#119BD5" d="M108.3,68c0,1.1,0,2,0,3c-0.5,0-0.8,0-1.3,0c0-1.7,0-3.4,0-5.2c2.2-0.2,2.4,2.1,4,2.8c0-1,0-1.9,0-2.8
			c0.5,0,0.8,0,1.3,0c0,1.7,0,3.4,0,5.2C110.1,71.1,109.8,68.9,108.3,68z"/>
		<path fill="#119BD5" d="M44.2,71c-1.1,0.5-1.5-0.5-2.1-1.1c-0.6-0.6-1.1-1.2-1.8-2.1c0,1.2,0,2.2,0,3.2c-0.5,0-0.9,0-1.4,0
			c0-1.7,0-3.4,0-5.2c2.2-0.3,2.5,2.1,4,2.8c0-0.9,0-1.8,0-2.8c0.5,0,0.8,0,1.3,0C44.2,67.6,44.2,69.3,44.2,71z"/>
		<path fill="#119BD5" d="M139.3,65.8c2.1-0.2,2.4,2.1,3.9,2.8c0-0.9,0-1.9,0-2.8c0.5,0,0.8,0,1.3,0c0,1.7,0,3.4,0,5.1
			c-1.1,0.5-1.5-0.4-2.1-1.1c-0.5-0.6-1.1-1.2-1.8-2c0,1.2,0,2.1,0,3.2c-0.5,0-0.9,0-1.3,0C139.3,69.3,139.3,67.7,139.3,65.8z"/>
		<path fill="#119BD5" d="M71.4,69c0,0.6,0,1.2,0,1.9c-0.5,0-0.9,0-1.4,0c0-1.7,0-3.3,0-5.1c1,0,2-0.1,2.9,0
			c1.3,0.2,1.5,1.5,0.5,2.7c0.4,0.8,0.8,1.5,1.1,2.4c-1,0.3-1.6,0.1-2-0.9c-0.1-0.4-0.6-0.8-0.9-1.2C71.6,68.9,71.5,69,71.4,69z
			 M71.4,67.8c0.1,0.1,0.2,0.2,0.3,0.3c0.3-0.3,0.6-0.6,0.9-0.8c-0.4-0.2-0.7-0.4-1.2-0.6C71.4,67.2,71.4,67.5,71.4,67.8z"/>
		<path fill="#119BD5" d="M94.4,71c-0.9,0.2-1.3,0-1.9-0.6c-0.4-0.4-1.7-0.4-2.3,0c-0.8,0.5-0.6,0.7-1.8,0.6
			c0.6-1.6,1.3-3.2,1.9-4.8c0.1-0.2,0.6-0.4,0.9-0.4c0.3,0,0.9,0.2,1,0.5C93,67.8,93.7,69.4,94.4,71z M92.1,69
			c-0.3-0.6-0.5-1.1-0.8-1.8c-0.3,0.8-0.5,1.3-0.7,1.8C91.1,69,91.5,69,92.1,69z"/>
		<path fill="#119BD5" d="M61.8,68.8c0,0.5,0,0.8,0,1.1c0.8,0.1,1.6,0.2,2.4,0.3c0.1,0,0,0.4,0.1,0.8c-1.3,0-2.6,0-3.9,0
			c0-1.7,0-3.4,0-5.2c1.1,0,2.2,0,3.3,0c0.2,0,0.4,0.3,0.4,0.5c0,0.2-0.3,0.5-0.5,0.5c-0.4,0.1-0.9,0-1.3,0.1
			c-0.2,0-0.4,0.3-0.6,0.5c0.2,0.2,0.4,0.4,0.7,0.5c0.3,0.1,0.6,0,0.9,0c0.7-0.1,0.9,0.2,0.7,1C63.3,68.8,62.6,68.8,61.8,68.8z"/>
		<path fill="#119BD5" d="M29.4,65.8c1.1,0,2.2,0,3.3,0c0.2,0,0.4,0.4,0.6,0.7c-0.1,0.1-0.1,0.2-0.2,0.2c-0.7,0-1.5,0-2.3,0
			c0,0.4,0,0.7,0,0.9c0.6,0.7,2.1-0.6,2.3,1.2c-0.8,0-1.5,0-2.3,0c0,0.5,0,0.8,0,1.2c0.8,0,1.5,0,2.3,0c0,0.3,0.1,0.6,0.1,1
			c-1.3,0-2.6,0-3.9,0C29.4,69.3,29.4,67.5,29.4,65.8z"/>
		<path fill="#119BD5" d="M133.6,71c-1.3,0-2.5,0-3.8,0c0-1.7,0-3.4,0-5.1c1.2,0,2.4,0,3.8,0c0,0.2,0,0.5,0.1,0.9
			c-0.8,0-1.6,0-2.5,0c0,0.4,0,0.7-0.1,1.1c0.8,0,1.5,0,2.2,0c0.3,0.8,0,1-0.7,1c-0.5,0-0.9,0-1.5,0c0,0.4,0,0.8,0,1.1
			c0.8,0.1,1.6,0.2,2.4,0.3C133.6,70.3,133.5,70.8,133.6,71z"/>
		<path fill="#119BD5" d="M79.1,65.8c1.8,0,3.4,0,5.1,0c0,0.3,0,0.6,0,0.9c-0.6,0-1.2,0.1-1.9,0.1c0,1.4,0,2.7,0,4.1
			c-0.5,0-0.9,0-1.4,0c0-1.3,0-2.7,0-4c-0.7-0.2-1.3-0.3-1.9-0.4C79,66.5,79.1,66.1,79.1,65.8z"/>
		<path fill="#119BD5" d="M152,66.9c-0.7,0-1.2,0-1.8,0c0-0.3-0.1-0.6-0.1-1c1.8,0,3.4,0,5.1,0c0.1,0.8,0.1,0.8-1.8,1.1
			c0,1.3,0,2.6,0,4c-0.5,0-0.9,0-1.4,0C152,69.7,152,68.3,152,66.9z"/>
		<path fill="#119BD5" d="M54.8,66.7c-0.6,0-1.2,0.1-1.8,0.1c0,1.4,0,2.8,0,4.2c-0.5,0-0.8,0-1.3,0c0-1.4,0-2.7,0-4.2
			c-0.7,0-1.3-0.1-1.9-0.1c-0.2-0.7-0.1-0.9,0.6-0.9c1.2,0,2.5,0,3.7,0C54.9,65.7,55,66,54.8,66.7z"/>
		<path fill="#119BD5" d="M166.4,1.6c0,1.7-1.4,3.1-3.1,3.1c-1.7,0-3-1.4-3-3.1c0-1.7,1.3-3,3-3C165-1.4,166.4-0.1,166.4,1.6z
			 M163.4,4.2c1.4,0,2.5-1.1,2.5-2.5c0-1.4-1.1-2.6-2.6-2.6c-1.4,0-2.4,1.1-2.5,2.5C160.8,3.1,161.9,4.2,163.4,4.2z"/>
		<path fill="#119BD5" d="M99.8,65.8c0.4,0,0.8,0,1.2,0c0,1.7,0,3.4,0,5.2c-0.4,0-0.7,0-1.2,0.1C99.8,69.3,99.8,67.6,99.8,65.8z"/>
		<path fill="#119BD5" d="M164,2.1c0.2,0.4,0.4,0.8,0.6,1.1c-0.1,0.1-0.1,0.1-0.2,0.2c-0.5-0.5-0.9-1.1-1.5-1.8
			c-0.2,0.8-0.3,1.3-0.4,1.7c-0.1,0-0.2,0-0.2,0c0-1.1,0-2.2,0-3.5c0.8,0.2,1.6,0.3,2.2,0.7c0.1,0.1-0.2,1-0.3,1.6
			C164.2,2,164.1,2.1,164,2.1z M162.8,1.6c0.5-0.2,0.9-0.3,1.3-0.5c0.1,0,0-0.5,0-0.5c-0.4-0.1-0.8-0.2-1.3-0.3
			C162.8,0.7,162.8,1,162.8,1.6z"/>
	</g>
</g>
</svg>
