<?xml version="1.0" encoding="utf-8"?>
<!-- Generator: Adobe Illustrator 18.1.1, SVG Export Plug-In . SVG Version: 6.00 Build 0)  -->
<!DOCTYPE svg PUBLIC "-//W3C//DTD SVG 1.1//EN" "http://www.w3.org/Graphics/SVG/1.1/DTD/svg11.dtd">
<svg version="1.1" id="Layer_1" xmlns="http://www.w3.org/2000/svg" xmlns:xlink="http://www.w3.org/1999/xlink" x="0px" y="0px"
	 viewBox="0 0 72 72" enable-background="new 0 0 72 72" xml:space="preserve">
<g>
	<path fill="#333333" d="M35.7,4.4c17.5,0,31.7,14.2,31.7,31.7S53.2,67.8,35.7,67.8S4,53.6,4,36.1S18.2,4.4,35.7,4.4 M35.7,0.4
		C16,0.4,0,16.4,0,36.1s16,35.7,35.7,35.7s35.7-16,35.7-35.7S55.4,0.4,35.7,0.4L35.7,0.4z"/>
</g>
<path fill="none" stroke="#333333" stroke-width="4" stroke-miterlimit="10" d="M51,27.1c0-8.2-6.7-14.9-15.3-14.9
	s-15.3,6.6-15.3,14.9c0,6.3,4.6,10.3,7.2,15.7c1.9,4,1.2,8.9,1.2,13.2l6.9,2.9l6.9-2.9c0-4.3-0.7-9.2,1.2-13.2
	C46.4,37.5,51,33.5,51,27.1z"/>
<line fill="none" stroke="#333333" stroke-width="4" stroke-miterlimit="10" x1="28.8" y1="47.8" x2="42.6" y2="47.8"/>
</svg>
