<?xml version="1.0" encoding="UTF-8" standalone="no"?>
<svg width="193px" height="60px" viewBox="0 0 193 60" version="1.1" xmlns="http://www.w3.org/2000/svg" xmlns:xlink="http://www.w3.org/1999/xlink" xmlns:sketch="http://www.bohemiancoding.com/sketch/ns">
    <!-- Generator: Sketch 3.3.3 (12081) - http://www.bohemiancoding.com/sketch -->
    <title>Shape</title>
    <desc>Created with Sketch.</desc>
    <defs></defs>
    <g id="Page-1" stroke="none" stroke-width="1" fill="none" fill-rule="evenodd" sketch:type="MSPage">
        <g id="coca-cola" sketch:type="MSLayerGroup" fill="#808080">
            <g id="Page-1" sketch:type="MSShapeGroup">
                <g id="coca-cola">
                    <path d="M68.5,49.7 C65.9,49.1 62.7,48.8 59.6,48.8 C56.8,48.6 54,48.9 48.8,50 C43.7,51.2 36.3,53.3 31.4,54.5 C26.5,55.7 24.1,56 21.6,56.1 C20.4,56.1 19.2,56 18.2,55.8 C17.2,55.6 16.3,55.3 15.5,55 C14.7,54.7 14.1,54.3 13.5,53.9 C12.9,53.5 12.4,53 12,52.5 C11.6,52 11.2,51.5 10.9,50.9 C10.6,50.3 10.4,49.7 10.2,49.1 C10,48.4 9.9,47.7 9.9,46.9 C9.8,46.1 9.9,45.3 9.9,44.4 C10,43.1 10.3,41.9 10.8,40.2 C11.3,38.5 12.1,36.4 13.4,33.7 C14.6,31.1 16.3,28 18.2,25 C20.1,22 22.2,19 24.2,16.4 C26.2,13.9 28.1,11.8 29.7,10.2 C31.4,8.6 32.8,7.4 34,6.5 C35.2,5.6 36.3,5 37.2,4.5 C38.1,4 38.9,3.8 39.6,3.6 C40.3,3.4 40.9,3.3 41.6,3.3 C42,3.3 42.3,3.3 42.7,3.6 C43,3.9 43,4.2 43,4.7 L43,5.5 C42.1,5.9 41,6.6 40.2,7.3 C39.8,7.6 39.6,7.9 39.3,8.2 C38.7,8.9 38.4,9.5 38.3,10.1 C38.2,10.6 38.7,11.4 39.1,11.7 C40.2,12.6 41.7,12 43.1,10.4 C43.4,10.1 43.7,9.7 43.9,9.3 C44.1,8.9 44.4,8.4 44.6,8 C45.3,6.2 45.7,4.3 44.7,2.7 C44.5,2.3 44.2,2 43.8,1.8 C43.4,1.5 43,1.3 42.5,1.2 C42,1.1 41.4,1 40.5,1 C39.6,1 38.5,1.1 37.2,1.4 C35.9,1.7 34.4,2.2 32.8,2.9 C31.2,3.6 29.3,4.6 27.3,6 C25.3,7.3 23.1,9 20.8,11.1 C18.5,13.2 16.2,15.6 14,18.1 C9.6,23.3 6.1,28.8 4.1,33.2 C3.1,35.4 2.4,37.4 1.9,39.1 C1.4,40.8 1.1,42.3 1,43.9 C0.8,45.9 0.9,47.9 1.2,49.6 C1.4,50.4 1.6,51.1 1.8,51.8 C2.1,52.5 2.4,53.1 2.7,53.7 C3.2,54 3.6,54.5 4.1,55 C4.6,55.5 5.2,56 5.8,56.4 C6.5,56.8 7.2,57.2 8.2,57.6 C9.1,57.9 10.2,58.3 11.5,58.5 C12.8,58.7 14.4,58.8 16,58.8 C18.5,58.9 21,58.7 25.3,57.8 C29.6,56.9 35.5,55.2 39.8,54.3 C44.1,53.4 46.6,53.2 49.1,53.3 C50.7,53.3 52.3,53.4 53.6,53.6 C54.9,53.8 55.8,54.1 56.7,54.5 C57.6,54.9 58.4,55.4 59.3,56.1 C60.2,56.8 61.2,57.8 62,58.9 C64.8,57 67.7,55.9 69.8,55.5 C70.9,55.3 71.9,55.2 72.8,55.2 C73.2,55.2 73.6,55.2 74.1,55.3 C74.6,55.4 75.1,55.5 76.7,56 C78.2,56.5 80.8,57.4 83.3,58.4 C80.8,56.1 78.1,54 75.7,52.6 C73.3,51.1 71.2,50.2 68.5,49.7 L68.5,49.7 L68.5,49.7 Z M100.5,15.8 L94.7,15.8 L91.8,21.1 L97.4,21.1 L100.5,15.8 L100.5,15.8 Z M185.1,6.5 C182.7,7.9 180.6,8.9 178.1,9.5 C175.6,10.1 172.9,10.5 170.1,10.4 L165.1,16.5 C165.5,16.6 165.9,16.6 166.3,16.6 C167,16.7 167.7,16.7 168.7,16.7 C170.5,16.7 172.3,16.5 174.2,16 C178,15 182.4,12.8 185.7,9.9 C187.4,8.5 188.8,6.9 190,5.4 C191.1,3.9 192,2.4 192.7,0.9 C190.1,3.1 187.5,5 185.1,6.5 L185.1,6.5 L185.1,6.5 Z M178.5,44.7 C177.5,46.1 176.4,47.5 175.5,48.5 C174.6,49.5 174,50.2 173.4,50.8 C172.9,51.3 172.5,51.7 172.1,51.9 C171.8,52.2 171.5,52.3 171.3,52.4 C170.8,52.6 170.5,52.7 170.1,52.7 C169.7,52.6 169.7,52.2 169.7,52 C169.8,51.8 169.6,52.1 170.2,50.9 C170.6,50.1 171.5,48.5 172.4,46.9 L182.4,29.9 L177.5,29.9 L175.8,31.4 C175.2,31 174.6,30.6 174.1,30.4 C173.6,30.2 173.3,30.1 173,30 C172.7,29.9 172.4,29.9 172.1,29.9 C170.4,29.9 168.8,30.5 167,31.5 C166.5,31.8 165.9,32.2 165.2,32.7 C164.6,33.2 163.8,33.8 163,34.6 C162.1,35.4 161.1,36.4 159.3,38.6 C157.5,40.8 154.9,44.3 153.1,46.7 C151.3,49.1 150.2,50.4 149.5,51.2 C148.8,52 148.4,52.3 148.1,52.6 C147.8,52.8 147.5,52.9 147.3,53 C147,53.1 146.8,53.1 146.5,53.1 C146,53.1 145.5,52.4 145.4,51.9 C145.2,51 145.3,50.6 145.6,49.3 C145.8,48.5 146.1,47.3 146.6,45.8 C147.1,44.3 147.7,42.5 148.4,40.7 C152.2,38.2 155.9,35.6 158.7,33.2 C161.5,30.9 163.5,28.9 165.5,26.5 C167.5,24.1 169.6,21.3 171.5,18.3 L169.2,18.5 C167.7,20.6 166.2,22.6 164.3,24.7 C162.4,26.8 160.3,29 157.9,31 C155.5,33.1 153,35.1 150.3,37 C152,33.8 153.8,30.7 155.6,27.7 C157.5,24.7 159.4,21.7 161.4,19 C163.3,16.3 165.3,13.8 167,11.7 C168.7,9.6 170.3,8 171.5,6.8 C172.8,5.6 173.7,4.8 174.5,4.2 C175.2,3.7 175.8,3.4 176.2,3.2 C176.6,3 176.9,3 177.2,3 C177.3,3 177.5,3 177.6,3.1 C178.1,3.6 178,3.8 177.9,4.3 C177.9,4.4 177.8,4.6 177.6,5.2 C177.4,5.8 176.9,6.8 176.5,7.8 L178.5,7.6 C178.9,7 179.2,6.4 179.4,6 C179.6,5.6 179.7,5.4 179.7,5.1 C179.8,4.8 179.8,4.5 179.8,4.2 C179.9,3.2 179.7,2.2 178.8,1.4 C178.6,1.2 178.3,1 178,0.9 C177,0.6 176,0.8 174.8,1.1 C174,1.3 173,1.7 171.8,2.4 C170.7,3 169.3,3.9 167.7,5.2 C166.1,6.5 164.2,8.2 162,10.4 C159.8,12.6 157.4,15.4 155,18.7 C152.5,22 150,25.7 147.6,29.5 C145.3,33.3 143.1,37.2 141.2,41.2 L138.5,41.2 C139,40.1 139.5,38.9 139.8,38.1 C140.1,37.3 140.3,36.8 140.4,36.3 C140.7,34.9 140.8,33.4 140.3,32.2 C140.1,31.8 139.9,31.5 139.7,31.2 C138.8,30.2 138,30 137,30 C136.6,30 136,30.1 135.4,30.2 C134.8,30.3 134.1,30.6 133.4,31 C132.6,31.4 131.8,31.9 130.8,32.6 C129.8,33.3 128.7,34.2 127.5,35.3 C126.3,36.4 125.1,37.7 123.9,39.2 C121.5,42.1 119.6,45.3 118.5,47.8 C118,49 117.6,50.1 117.3,51.1 C117,52.1 116.9,52.9 116.8,53.6 C116.7,54.3 116.8,54.9 116.8,55.5 C116.9,56.1 117,56.5 117.3,57 C117.5,57.4 117.8,57.8 118.1,58.1 C118.4,58.4 118.8,58.7 119.3,58.8 C119.8,59 120.2,59 120.8,59.1 C121.8,59.1 122.9,58.8 124.2,58.2 C124.9,57.9 125.6,57.4 126.4,56.8 C127.2,56.2 128.2,55.3 129.2,54.2 C130.3,53.1 131.5,51.7 132.9,49.8 C134.3,48 135.9,45.6 137.3,43.3 L140,43.3 C139.1,45.6 138.3,48 137.8,49.5 C137.3,51 137.2,51.6 137.1,52.2 C136.9,53.3 136.8,54.5 136.9,55.4 C137,55.8 137,56.2 137.2,56.6 C137.3,57 137.5,57.3 137.7,57.6 C137.9,57.9 138.2,58.2 138.5,58.4 C138.8,58.6 139.1,58.8 139.5,58.9 C139.9,59 140.3,59.1 140.7,59.1 C142.2,59.1 143.6,58.6 145.4,57.4 C146.1,56.9 146.8,56.3 147.7,55.5 C148.6,54.6 149.7,53.5 150.7,52.3 C150.6,53 150.6,53.8 150.6,54.4 C150.6,55 150.7,55.5 150.7,55.9 C150.8,56.3 150.9,56.6 150.9,56.9 C151,57.2 151.1,57.4 151.2,57.6 C151.4,58 151.7,58.3 152,58.5 C152.5,58.9 153,59 153.7,59 C154,59 154.4,59 154.8,58.9 C155.6,58.7 156.3,58.5 157.2,57.9 C157.7,57.6 158.2,57.2 158.9,56.6 C159.6,56 160.5,55.1 161.4,54.1 C161.3,54.8 161.3,55.4 161.3,56 C161.3,56.5 161.4,56.9 161.4,57.1 C161.5,57.4 161.5,57.6 161.6,57.8 C161.8,58.4 162.4,58.9 162.8,59.1 C164.3,59.5 165.5,59.2 167.2,58.4 C167.9,58.1 168.6,57.6 169.4,57 C170.2,56.4 171.1,55.6 172.1,54.5 C173.1,53.4 174.2,52.1 175.4,50.4 C176.6,48.7 177.9,46.8 179,44.7 L178.5,44.7 L178.5,44.7 Z M134.3,46.3 C133.6,47.4 132.8,48.3 132.1,49.2 C131.4,50.1 130.7,50.8 130.1,51.3 C129.5,51.9 129,52.3 128.6,52.5 C128.2,52.8 127.9,52.9 127.6,53 C127.4,53.1 127.2,53.1 127,53.1 C126.4,53.1 125.9,52.8 125.4,52.2 C125.3,52 125.1,51.8 125,51.5 C124.8,50.9 124.7,50.4 124.8,49.5 C124.8,49 124.9,48.4 125.1,47.8 C125.3,47.2 125.5,46.5 125.8,45.8 C126.8,43.5 128.7,41 131.1,38.9 C131.3,39.4 131.7,40 132.1,40.5 C132.3,40.7 132.6,41 132.9,41.2 C133.2,41.4 133.6,41.7 134.2,42 C134.8,42.3 135.5,42.6 136.3,42.8 C135.7,44.1 135,45.2 134.3,46.3 L134.3,46.3 L134.3,46.3 Z M139,35.9 C139,36.3 138.9,36.6 138.8,36.9 C138.7,37.2 138.6,37.6 138.3,38.3 C138,39 137.5,40.1 136.9,41.2 C136.3,41 135.7,40.8 135.3,40.5 C134.9,40.3 134.6,40.1 134.4,39.9 C134.2,39.7 134,39.6 133.9,39.4 C133.6,39.1 133.4,38.7 133.3,38.4 C132.8,36.6 133.1,34.7 135.2,33.2 C135.8,32.8 136.5,32.6 137,32.7 C137.6,32.7 138,32.7 138.5,33.2 C138.9,33.7 139,34.1 139,34.8 L139,35.9 L139,35.9 L139,35.9 Z M165.5,47.6 C164.8,48.7 164,49.7 163.4,50.4 C162.8,51.2 162.3,51.6 161.9,52 C161.5,52.3 161.2,52.6 160.8,52.7 C160.1,53 159.4,53 158.9,52.6 C158.5,52.1 158.6,51.8 158.6,51.1 C158.6,50.8 158.7,50.4 158.8,49.9 C158.9,49.4 159.1,48.9 159.3,48.3 C159.5,47.7 159.8,47 160.2,46.3 C160.6,45.5 161.1,44.7 161.7,43.7 C162.3,42.7 163.1,41.6 163.9,40.5 C164.8,39.4 165.7,38.2 166.7,37.3 C167.6,36.3 168.6,35.4 169.3,34.8 C170.1,34.1 170.7,33.7 171.1,33.4 C171.6,33.1 171.9,33 172.2,32.9 C172.5,32.8 172.7,32.8 172.8,32.8 C173.1,32.8 173.4,32.8 173.6,33 C174,33.3 173.8,33.8 173.6,34.2 C173.5,34.5 173.4,34.8 173.2,35.3 C173,35.7 172.7,36.2 172.4,36.7 L165.5,47.6 L165.5,47.6 Z M121.1,38.1 C121.4,36.9 121.6,35.7 121.7,34.5 C121.8,33.6 121.7,32.8 121.5,32.1 C121.4,31.8 121.3,31.6 121.1,31.3 C120.7,30.8 120.3,30.5 119.9,30.3 C119.6,30.2 119.3,30.1 118.9,30 C118.5,29.9 118.1,29.9 117.6,29.9 C117.1,29.9 116.5,30 116,30.1 C113.7,30.5 111.3,31.8 108.8,34.5 C108.2,35.2 107.5,36 106.9,37 C106.3,37.9 105.7,39 105.1,40.2 C104.5,41.3 104,42.6 103.5,43.9 C103,45.2 102.7,46.6 102.4,48 C103.7,46.9 105,45.9 105.9,45.2 C106.8,44.5 107.4,44.2 108.2,43.7 C109,43.3 109.9,42.8 110.9,42.4 C111.2,40.9 111.8,39.3 112.4,38 C112.7,37.4 113,36.8 113.3,36.4 C113.6,35.9 113.9,35.6 114.2,35.2 C115,34.3 115.7,33.7 116.5,33.4 C117.6,33 118.4,32.9 119.3,33.7 C119.7,34.2 119.8,34.6 119.8,35.1 C119.8,36.9 119.4,38.6 118.7,40.5 C118.4,41.3 118,42.2 117.5,43.2 C117,44.1 116.4,45.1 115.7,46.1 C114.3,48.1 112.3,50.2 110.1,51.9 C108,53.6 105.9,54.7 104.4,55.2 C103.7,55.4 103.1,55.5 102.6,55.5 C102.1,55.5 101.6,55.4 101.1,55.3 C100.2,55 99.2,54.4 98.5,53.5 C98.1,53 97.8,52.5 97.6,52 C97.1,50.9 97,49.8 97.1,48.7 C97.2,47.4 97.6,46.2 98.4,44.1 C99.2,42 100.5,39 102.2,35.6 C103.9,32.2 106.1,28.5 108.2,25.3 C110.3,22.1 112.4,19.3 114.2,17 C116,14.7 117.7,13 119.1,11.5 C120.6,10.1 121.9,9 123,8.1 C124.2,7.2 125.2,6.6 126.1,6 C127,5.5 127.9,5.1 128.7,4.8 C130.8,4 132.6,3.9 134.7,4 C133.1,4.9 131.5,6 130.1,7.1 C127.3,9.3 125.2,11.6 123.8,13.6 C123.1,14.6 122.6,15.5 122.2,16.4 C121.8,17.3 121.5,18.1 121.3,18.8 C121.1,19.6 121,20.3 120.9,20.8 C120.8,21.4 120.8,21.8 120.9,22.1 C120.9,22.5 121,22.8 121.2,23.1 C121.3,23.4 121.5,23.6 121.7,23.8 C121.9,24 122.1,24.2 122.4,24.3 C122.7,24.5 123,24.6 123.3,24.7 C123.6,24.8 124.1,24.8 124.5,24.8 C125.4,24.8 126.2,24.6 127.3,24.1 C127.8,23.8 128.4,23.5 129.1,23 C129.8,22.5 130.5,21.9 131.2,21.2 C131.9,20.5 132.7,19.6 133.4,18.7 C134.1,17.8 134.8,16.7 135.4,15.7 C136.5,13.7 137.3,11.8 137.7,10.1 C137.9,9.3 138,8.5 138.1,7.8 L138.1,7.1 L138.1,5.8 L138.1,4.9 C140,4.9 141.8,5.1 143.5,5.6 C145.2,6.1 146.8,6.8 149.1,8.2 C151.4,9.6 154.4,11.8 157.2,14.2 L162.6,8.6 C160.8,7.1 158.9,5.6 157.3,4.6 C155.7,3.5 154.3,2.8 153,2.3 C151.7,1.8 150.6,1.4 149.6,1.2 C148,0.9 146.8,0.8 145,1 C144.4,1.1 143.8,1.2 142.6,1.5 C141.4,1.8 139.6,2.4 137.8,3.1 C136.8,2.5 135.8,1.9 135.1,1.6 C134.4,1.3 133.9,1.1 133.4,1.1 C131.6,0.8 130,1 127.8,1.6 C126.2,2.1 124.3,2.8 122,4 C119.7,5.2 117.1,6.8 114.5,8.8 C111.8,10.8 109.1,13.2 106.5,15.7 C104,18.2 101.7,20.8 99.7,23.4 C97.7,25.9 96.1,28.4 94.8,30.7 C93.5,33 92.4,35.1 91.6,37.2 C90.8,39.2 90.2,41.1 89.8,42.9 C89.4,44.7 89.1,46.3 89,47.6 C88.9,48.9 88.9,49.9 89,50.9 C89.1,51.9 89.4,52.8 89.7,53.6 C90.1,54.5 90.5,55.3 91.1,56 C91.7,56.7 92.4,57.4 93.2,57.9 C94,58.4 94.9,58.8 95.8,59.1 C97.8,59.7 99.6,59.7 101.8,59 C102.9,58.7 104.2,58.1 105.6,57.4 C108.4,55.9 111.6,53.3 114.1,50.5 C116.6,47.7 118.4,44.7 119.6,42.1 C120.3,40.5 120.8,39.3 121.1,38.1 L121.1,38.1 L121.1,38.1 Z M135.9,5.6 C135.8,6.6 135.6,7.7 135.3,8.9 C135,10.1 134.5,11.6 133.9,12.9 C133.4,14.2 132.8,15.5 132.2,16.5 C131.6,17.5 131.1,18.3 130.6,19 C129.3,20.7 128.2,21.6 127,22.2 C125.8,22.7 124.7,22.8 123.7,22.2 C123.4,22 123.1,21.6 123,21.3 C122.8,20.1 123.1,19.1 123.7,17.7 C123.9,17.2 124.2,16.6 124.6,15.9 C125,15.3 125.5,14.5 126.1,13.7 C126.7,12.9 127.5,12 128.5,11 C129.5,10 130.7,9 132,8 C133.2,7.2 134.5,6.3 135.9,5.6 L135.9,5.6 L135.9,5.6 Z M82.5,35.2 C81.5,36.4 81,36.8 80.7,37.2 C80.4,37.5 80.1,37.7 79.9,37.8 C79.5,38.1 79.1,38.2 78.7,38.1 C78.5,38.1 78.1,37.8 78.1,37.4 C78.1,37.2 78,37.2 78.2,36.7 C78.3,36.4 78.5,36 79.1,34.8 C79.7,33.7 80.6,31.9 81.6,30.1 L90,15.7 L84.6,15.7 L83.6,16.9 C82.9,16.5 82.2,16.1 81.6,15.9 C81.1,15.7 80.7,15.6 80.4,15.6 C80,15.5 79.7,15.5 79.3,15.5 C78,15.5 76.8,15.9 75.2,16.8 C74.6,17.1 74,17.6 73.1,18.2 C72.3,18.8 71.3,19.7 69.4,21.8 C67.5,23.9 64.8,27.3 62.5,30.1 C60.2,32.9 58.4,35 57.1,36.4 C55.8,37.8 55,38.4 54.4,38.8 C53.8,39.3 53.3,39.6 52.8,39.8 C52.4,40 52,40.2 51.6,40.2 C50.7,40.4 49.7,40.4 49,39.9 C48.6,39.6 48.5,39.2 48.4,38.9 C48.2,37.9 48.4,37.1 48.6,36.1 C48.7,35.5 48.9,34.8 49.2,34.1 C49.5,33.3 49.9,32.5 50.4,31.5 C50.9,30.5 51.6,29.4 52.4,28.2 C54,25.8 56.3,23 58.1,21.3 C59,20.4 59.7,19.8 60.3,19.4 C60.9,19 61.3,18.8 61.6,18.7 C61.9,18.6 62.1,18.5 62.3,18.5 C62.6,18.5 62.8,18.5 63.1,18.7 C63.4,19 63.5,19.2 63.5,19.6 L63.5,20.4 C63,20.5 62.5,20.6 62.1,20.7 C61.7,20.8 61.4,21 61.2,21.1 C61,21.2 60.8,21.4 60.6,21.5 C59.4,22.4 59.2,23.6 59.2,24.3 C59.3,24.7 59.5,25 59.8,25.3 C60.7,26.1 62,25.6 63.2,24.1 C63.4,23.8 63.7,23.5 63.9,23.2 C64.6,22.1 65,21.1 65.2,20.2 C65.5,18.8 65.5,17.1 63.8,15.9 C63.2,15.5 62.6,15.3 61.8,15.3 C61.4,15.3 60.8,15.4 60.3,15.5 C59.7,15.6 59.2,15.8 58.5,16.1 C57.9,16.4 57.1,16.7 55.8,17.8 C54.5,18.9 52.5,20.7 50.9,22 C49.3,23.3 48.2,24.1 47.2,24.7 C46.2,25.3 45.4,25.7 44.6,26 C43.8,26.3 43,26.6 42.3,26.7 C42.8,25.7 43.2,24.6 43.5,23.7 C43.8,22.8 44,22 44.2,21.5 C44.4,20.9 44.4,20.5 44.4,20.1 C44.5,19.3 44.4,18.4 44.1,17.8 C44,17.5 43.8,17.2 43.7,17 C43.3,16.4 42.9,16.1 42.4,15.9 C41.1,15.4 40.1,15.4 38.7,15.8 C38,16 37.2,16.3 36.3,16.7 C35.4,17.1 34.4,17.7 33.3,18.5 C32.2,19.3 31,20.3 29.8,21.4 C28.6,22.6 27.4,23.9 26.4,25.2 C24.3,27.9 22.7,30.7 21.7,33 C21.2,34.1 20.9,35.2 20.6,36.1 C20.4,37.1 20.2,37.9 20.1,38.6 C20,39.3 20,39.8 20.1,40.3 C20.1,40.8 20.2,41.2 20.4,41.6 C20.5,42 20.7,42.3 20.9,42.6 C21.1,42.9 21.4,43.2 21.7,43.4 C22,43.6 22.4,43.8 22.8,43.9 C23.2,44 23.7,44.1 24.2,44.1 C24.7,44.1 25.3,44 25.9,43.9 C26.5,43.8 27.1,43.6 27.8,43.2 C28.5,42.9 29.2,42.5 30,41.9 C30.8,41.3 31.7,40.6 32.7,39.6 C33.7,38.6 34.9,37.3 36.4,35.4 C37.9,33.5 39.6,31 41.3,28.5 L45.4,27.5 C44.2,29.7 43.1,32 42.4,33.4 C41.7,34.8 41.6,35.5 41.4,36.1 C41,38.2 40.8,40.3 41.8,42 C42.1,42.5 42.5,42.9 42.9,43.3 C43.4,43.7 43.9,44 44.5,44.2 C45.1,44.4 45.8,44.5 46.6,44.5 C48.5,44.5 50.1,44.1 52.3,42.7 C53.1,42.2 53.9,41.6 55.1,40.6 C56.3,39.6 57.7,38.1 59.2,36.6 C59.1,37.9 59,39.3 59,40.2 C59,41.1 59.1,41.5 59.1,41.8 C59.2,42.1 59.2,42.4 59.3,42.6 C59.4,42.8 59.5,43 59.6,43.1 C60,43.6 60.3,43.8 60.8,44 C62.3,44.4 63.5,44.2 65,43.5 C65.5,43.2 66.1,42.9 66.9,42.3 C67.7,41.7 68.7,40.9 69.6,40 C69.5,40.6 69.5,41.1 69.5,41.5 C69.5,41.9 69.5,42.1 69.6,42.3 C69.7,42.6 69.7,42.9 70,43.2 C70.5,43.9 71.1,44 71.8,44.1 C72.1,44.1 72.5,44.2 72.8,44.2 C74.2,44.2 75.7,43.7 77.4,42.6 C78.3,42 79.3,41.2 80.4,40.2 C81.5,39.1 82.6,37.8 83.8,36.1 C85,34.4 86.3,32.4 87.4,30.4 L86.3,30.2 C85,32.1 83.5,34 82.5,35.2 L82.5,35.2 L82.5,35.2 Z M34.9,34.9 C33.8,36.4 33.3,36.9 32.9,37.2 C32.5,37.6 32.2,37.8 31.9,38 C31.6,38.2 31.4,38.3 31.1,38.4 C30,38.9 28.8,38.9 28,37.8 C27.7,37.3 27.7,36.9 27.7,36.2 C27.7,35.8 27.8,35.4 28,34.7 C28.2,34.1 28.5,33.3 29,32.3 C29.5,31.3 30.2,30.1 31.2,28.7 C32.1,27.3 33.3,25.8 34.5,24.4 C35,25.1 35.6,25.8 36,26.3 C36.5,26.8 36.8,27.1 37.3,27.4 C37.8,27.7 38.5,28 39.2,28.3 C37.8,30.9 36.1,33.4 34.9,34.9 L34.9,34.9 L34.9,34.9 Z M42.4,21.6 C42.4,21.9 42.3,22.3 42.2,22.7 C42.1,23.1 42,23.4 41.8,24 C41.5,24.6 41.1,25.5 40.6,26.4 C40,26.3 39.4,26 39,25.8 C38.6,25.6 38.3,25.4 38,25.2 C37.7,25 37.6,24.8 37.4,24.6 C37.2,24.4 37.1,24.3 37,24.1 C36.2,22.7 36.3,21.3 37.8,19.8 C38,19.6 38.3,19.4 38.5,19.2 C38.8,19 39.1,18.9 39.3,18.7 C40.2,18.4 41,18.1 41.7,18.7 C42.5,19.8 42.4,20.7 42.4,21.6 L42.4,21.6 L42.4,21.6 Z M73,33.7 C72.5,34.5 72,35.2 71.5,35.8 C71.1,36.4 70.7,36.8 70.3,37.2 L69.5,38 C69.1,38.3 68.8,38.5 68.4,38.6 C67.9,38.7 67.3,38.6 66.9,38.2 C66.5,37.6 66.4,37.3 66.5,36.7 C66.5,36.4 66.6,36.1 66.7,35.6 C66.8,35.1 67,34.6 67.3,33.9 C67.6,33.2 68,32.3 68.7,31.2 C69.3,30.1 70.2,28.8 71.2,27.4 C72.2,26 73.3,24.6 74.4,23.4 C75.5,22.2 76.4,21.2 77.1,20.6 C77.8,19.9 78.4,19.5 78.8,19.2 C79.2,18.9 79.5,18.8 79.7,18.7 C80.1,18.5 80.5,18.5 80.9,18.7 C81.5,19.1 81.3,19.9 81.2,20.3 C81.2,20.5 81.1,20.6 80.8,21.1 C80.5,21.6 79.9,22.5 79.4,23.4 L73,33.7 L73,33.7 Z M178.6,57.3 L178.1,55.5 L177.3,55.5 L177.3,58.2 L177.8,58.2 L177.8,56.1 L178.3,58.2 L178.8,58.2 L179.3,56.1 L179.3,58.2 L179.8,58.2 L179.8,55.5 L179,55.5 L178.6,57.3 L178.6,57.3 Z M182.2,57.2 C182.1,57.1 182,57 181.9,57 C182.1,57 182.3,56.9 182.4,56.7 C182.5,56.6 182.6,56.4 182.6,56.2 C182.6,56 182.6,55.9 182.5,55.8 C182.4,55.7 182.3,55.6 182.2,55.5 C182.1,55.4 181.9,55.4 181.6,55.4 L180.4,55.4 L180.4,58.1 L181,58.1 L181,57 L181.1,57 L181.4,57 C181.5,57 181.5,57.1 181.6,57.1 C181.7,57.2 181.7,57.3 181.9,57.5 L182.3,58.1 L183,58.1 L182.7,57.6 C182.4,57.5 182.3,57.3 182.2,57.2 L182.2,57.2 L182.2,57.2 Z M181.4,56.6 L181,56.6 L181,56 L181.4,56 L181.8,56 C181.9,56 182,56 182,56.1 C182,56.2 182.1,56.2 182.1,56.3 C182.1,56.4 182.1,56.4 182,56.5 C182,56.6 181.9,56.6 181.8,56.6 L181.4,56.6 L181.4,56.6 L181.4,56.6 Z" id="Shape"></path>
                </g>
            </g>
        </g>
    </g>
</svg>