<?xml version="1.0" encoding="utf-8"?>
<!-- Generator: Adobe Illustrator 18.1.1, SVG Export Plug-In . SVG Version: 6.00 Build 0)  -->
<!DOCTYPE svg PUBLIC "-//W3C//DTD SVG 1.1//EN" "http://www.w3.org/Graphics/SVG/1.1/DTD/svg11.dtd">
<svg version="1.1" id="Layer_1" xmlns="http://www.w3.org/2000/svg" xmlns:xlink="http://www.w3.org/1999/xlink" x="0px" y="0px"
	 viewBox="0 0 72 72" enable-background="new 0 0 72 72" xml:space="preserve">
<path fill="#119BD5" d="M42.9,21.9c0,0-3.2-1.7-6.7,1.5c0,0-2.9,2.7-5.7,3c0,0,0.3-0.4,0.3-1.6c0,0-4.5,4.9-11.1-2
	c0,0,2,1.2,5.6-3.7c0,0,4-5.4,7.4-3.7c0,0-0.3-1-0.8-1.3C31.9,14.2,40.9,12.2,42.9,21.9z"/>
<path fill="#119BD5" d="M67.9,32.1c1.1-3.5,0.5-8-3.3-9.7c-0.9-0.4-1.9-0.6-2.9-0.6c-1.3,0-2.5,0.4-3.5,0.8c-0.1-1-0.5-1.8-1.4-2.6
	c-0.6-0.5-1.4-0.8-2.3-0.8c-0.7,0-1.5,0.1-2.4,0.4c0,0,0,0,0,0l0,0l0,0c-0.4-0.5-2.5-2.9-4.9-2.9c-0.9,0-1.7,0.3-2.3,0.9
	c-1.6,1.5-1.2,3.7-0.7,5.2c-0.3,0.1-0.6,0.2-0.9,0.2c-0.7,0.1-1.9,0.8-2.1,2c0,0.1,0,0.3,0,0.5c-0.2,0-0.5,0-0.8,0
	c-0.8,0-1.6,0.1-2.4,0.3c-2.1,0.6-3.3,2-4,3.1c-0.4-0.2-0.9-0.3-1.4-0.3c-0.5,0-0.9,0.1-1.3,0.4c-1.1,0.8-1,1.9-0.7,2.8
	c-0.5-0.6-1-1.1-1.6-1.4C27.6,29.5,26,29,24.5,29c-1.8,0-3.4,0.6-4.7,1.5c0.4-0.7,0.7-1.5,0.9-2.2c0.2-1.2-0.1-2.3-0.8-3.3
	c-0.8-1-2.1-1.5-3.8-1.5c-2.1,0-4.5,0.7-6.3,1.9c-0.2,0.1-0.3,0.2-0.5,0.3c-1.7,1-4,2.4-5.9,5.3c-1.2,1.8-1.5,3.6-1.2,7.2
	c0,0.9,0.7,13.2,10.2,19.9c0.9,0.6,2,1.3,3.2,1.3c0.9,0,3.1-0.4,3.1-4.5c0-0.8,0-1.6-0.1-2.4c0.5,0.7,1.1,1.3,1.8,1.7
	c1.1,0.6,2.2,1,3.3,1c3.3,0,5.7-2.6,5.8-5c0-0.6,0-1.2-0.2-1.7c1,0.3,2,0.5,2.9,0.5c0.1,0,0.3,0,0.4,0c1.4,0,2-0.7,2.2-1.2
	c0.3-0.5,0.2-1.1,0.1-1.6c0.6,0.3,1.2,0.5,1.9,0.5c0.2,0,0.4,0,0.6,0c1.4-0.2,2.5-0.9,3.1-2c0.3-0.5,0.5-1.1,0.6-1.7
	c0.1,0.3,0.3,0.6,0.5,0.9c0.7,0.9,1.7,1.4,3,1.4c0.4,0,0.9-0.1,1.4-0.2c2.4-0.6,3.7-2.7,4.3-5.1c0.3,0.3,0.7,0.4,1.1,0.4
	c0.9,0,1.5-0.6,2.1-1.2c0.1-0.1,1.1-1.2,1.9-3.2c0.2,0.4,0.5,0.7,0.7,0.9c0.9,0.8,2.1,1.2,3.2,1.2c1.3,0,2.4-0.6,3-1.6
	c0.8,0.7,1.8,1.2,3.1,1.5c0.2,0,0.4,0.1,0.6,0.1c0.8,0,1.4-0.4,1.8-1c0.5-0.9,0.2-1.9-0.2-2.5C67.5,34.3,67.3,34,67.9,32.1z"/>
<path fill="#FFFFFF" d="M18.6,38.1c-1.3-1.2-4.1,0.4-5.5,1.2c-0.4-0.9-0.9-1.9-1.5-2.9c0,0,10-6.6,7-10.5c-1.3-1.7-5.6-1-8.3,0.7
	c-1.6,1-4,2.3-6,5.2c-0.9,1.3-1.3,2.7-1,6.3c0,0,0.4,12.4,9.6,18.8c0.9,0.6,4,2.8,4.1-2.1c0-3-0.5-6.4-1.9-10.4
	C17.3,42.6,19.9,39.3,18.6,38.1z"/>
<path fill="#FFFFFF" d="M23.6,38.8c0,0-0.5-4.3-3.7-3.1c-1.8,0.7-2-0.5-1.5-1.5c1-2.3,5.3-5.3,10-2.5c2.1,1.3,3.3,4.1,3.5,9.7
	c0.1,3.1,1.2,4.5,1.2,4.5s1.5,1.9-0.7,1.7c-2.2-0.2-4.7-0.7-6.4-4c-1.3-2.6-3.6-1.6-4.1-0.5c-0.4,0.9-0.8,3.3,2,3.5
	c2.9,0.2,4.2,1,4.1,3.4c-0.1,2.3-3.5,5-6.9,2.9C17.7,50.8,15.6,42.7,23.6,38.8z"/>
<path fill="#FFFFFF" d="M34.7,31.1c0,0-1.5-1.6-2.4-0.9c-0.8,0.6,0.2,2,0.6,2.7c0.3,0.7,0.4,2.3,0.4,5.3c0,3,0.7,7.5,3.9,7.1
	c3.2-0.5,2.8-4.1,2.1-6.1c-0.7-2-3.3-5.6-1.5-8.3c1.3-2,3.9-1,4.6,0.5c1,2.2,0.5,5.1-0.1,7.4c-0.6,2.5,0.1,5.8,3.4,4.9
	c3.3-0.9,3.8-5.2,3.3-8.3c-0.5-3.3-4.2-9.9-10.4-8.2C35.5,28,34.7,31.1,34.7,31.1z"/>
<path fill="#FFFFFF" d="M55.9,21.1c-1-0.9-3-0.2-4.3,0.3c-0.2-0.3-0.4-0.6-0.6-0.9c0,0-3.1-3.8-5.1-1.9c-0.9,0.9-1,2.4,0.2,5.1
	c0,0-1.3,0.5-2.6,0.7c-0.4,0.1-1.8,0.9-0.1,1.9c2,1.1,3.4,1.2,4.7,1.3c0,0,3.3,4.6,2.8,9.7c-0.3,2.5,0.7,1.7,1.3,1
	c0,0,4.3-4.6,1.7-12.1c0.5-0.3,1.2-0.7,1.7-1.3C56.5,24.1,57.6,22.6,55.9,21.1z"/>
<path fill="#FFFFFF" d="M61,28.4c0,0,0-2.3-2.6-2c-2.1,0.2-1.3-1-0.9-1.5c0.8-0.9,3.5-2.5,6.5-1.2c3.1,1.3,3.3,5.3,2.5,8
	c-0.7,2.2-0.5,3-0.1,3.6c0.4,0.6,0.4,1.6-0.7,1.3c-1-0.2-3.2-0.8-3.7-3.6c-0.5-2.5-1.4-3-2.4-2.6c-0.8,0.3-1.5,2,0.1,2.5
	c1.7,0.6,2,1.6,1.5,2.7c-0.7,1.5-2.7,1.3-4.1,0.2c-0.8-0.6-2.2-3.6,0-5.9C58.7,28,60.5,28.3,61,28.4z"/>
<g>
	<path fill="#FFFFFF" d="M69.5,32.4c0.9,0,1.5,0.7,1.5,1.5c0,0.8-0.7,1.5-1.5,1.5c-0.9,0-1.5-0.7-1.5-1.5
		C67.9,33,68.6,32.4,69.5,32.4L69.5,32.4z M69.5,32.7c-0.7,0-1.1,0.5-1.1,1.2c0,0.7,0.5,1.2,1.2,1.2c0.7,0,1.1-0.5,1.1-1.2
		C70.6,33.2,70.1,32.7,69.5,32.7L69.5,32.7z M69.2,34.6h-0.3v-1.5c0.1,0,0.3-0.1,0.6-0.1c0.3,0,0.4,0,0.5,0.1
		c0.1,0.1,0.1,0.2,0.1,0.3c0,0.2-0.1,0.3-0.3,0.4v0c0.1,0,0.2,0.2,0.3,0.4c0,0.2,0.1,0.3,0.1,0.4h-0.4c0-0.1-0.1-0.2-0.1-0.4
		c0-0.2-0.1-0.2-0.3-0.2h-0.2V34.6z M69.2,33.8h0.2c0.2,0,0.3-0.1,0.3-0.2c0-0.1-0.1-0.2-0.3-0.2c-0.1,0-0.2,0-0.2,0V33.8z"/>
</g>
</svg>
