<?xml version="1.0" encoding="UTF-8" standalone="no"?>
<svg width="41px" height="28px" viewBox="0 0 41 28" version="1.1" xmlns="http://www.w3.org/2000/svg" xmlns:xlink="http://www.w3.org/1999/xlink" xmlns:sketch="http://www.bohemiancoding.com/sketch/ns">
    <!-- Generator: Sketch 3.3.3 (12081) - http://www.bohemiancoding.com/sketch -->
    <title>fanta</title>
    <desc>Created with Sketch.</desc>
    <defs></defs>
    <g id="Page-1" stroke="none" stroke-width="1" fill="none" fill-rule="evenodd" sketch:type="MSPage">
        <g id="fanta" sketch:type="MSLayerGroup">
            <path d="M24.3028986,5.30212766 C24.3028986,5.30212766 22.4014493,4.2893617 20.3217391,6.19574468 C20.3217391,6.19574468 18.5985507,7.80425532 16.9347826,7.98297872 C16.9347826,7.98297872 17.1130435,7.74468085 17.1130435,7.02978723 C17.1130435,7.02978723 14.4391304,9.94893617 10.5173913,5.83829787 C10.5173913,5.83829787 11.7057971,6.55319149 13.8449275,3.63404255 C13.8449275,3.63404255 16.2217391,0.417021277 18.242029,1.42978723 C18.242029,1.42978723 18.0637681,0.834042553 17.7666667,0.655319149 C17.7666667,0.714893617 23.1144928,-0.476595745 24.3028986,5.30212766 L24.3028986,5.30212766 Z" id="Shape" fill="#808080" sketch:type="MSShapeGroup"></path>
            <path d="M39.157971,11.3787234 C39.8115942,9.29361702 39.4550725,6.61276596 37.1971014,5.6 C36.6623188,5.36170213 36.0681159,5.24255319 35.473913,5.24255319 C34.7014493,5.24255319 33.9884058,5.48085106 33.3942029,5.71914894 C33.3347826,5.12340426 33.0971014,4.64680851 32.5623188,4.17021277 C32.2057971,3.87234043 31.7304348,3.69361702 31.1956522,3.69361702 C30.7797101,3.69361702 30.3043478,3.75319149 29.7695652,3.93191489 L29.7695652,3.93191489 L29.7695652,3.93191489 C29.5318841,3.63404255 28.284058,2.20425532 26.857971,2.20425532 C26.3231884,2.20425532 25.8478261,2.38297872 25.4913043,2.74042553 C24.5405797,3.63404255 24.7782609,4.94468085 25.0753623,5.83829787 C24.8971014,5.89787234 24.7188406,5.95744681 24.5405797,5.95744681 C24.1246377,6.01702128 23.4115942,6.43404255 23.2927536,7.14893617 L23.2927536,7.44680851 L22.8173913,7.44680851 C22.342029,7.44680851 21.8666667,7.50638298 21.3913043,7.62553191 C20.1434783,7.98297872 19.4304348,8.81702128 19.0144928,9.47234043 C18.7768116,9.35319149 18.4797101,9.29361702 18.1826087,9.29361702 C17.8855072,9.29361702 17.6478261,9.35319149 17.4101449,9.53191489 C16.7565217,10.0085106 16.815942,10.6638298 16.9942029,11.2 C16.6971014,10.8425532 16.4,10.5446809 16.0434783,10.3659574 C15.2115942,9.82978723 14.2608696,9.53191489 13.3695652,9.53191489 C12.3,9.53191489 11.3492754,9.8893617 10.5768116,10.4255319 C10.8144928,10.0085106 10.9927536,9.53191489 11.1115942,9.11489362 C11.2304348,8.4 11.0521739,7.74468085 10.6362319,7.14893617 C10.1608696,6.55319149 9.3884058,6.25531915 8.37826087,6.25531915 C7.13043478,6.25531915 5.70434783,6.67234043 4.63478261,7.38723404 C4.51594203,7.44680851 4.45652174,7.50638298 4.33768116,7.56595745 C3.32753623,8.16170213 1.96086957,8.99574468 0.831884058,10.7234043 C0.11884058,11.7957447 -0.0594202899,12.8680851 0.11884058,15.012766 C0.11884058,15.5489362 0.534782609,22.8765957 6.17971014,26.8680851 C6.71449275,27.2255319 7.36811594,27.6425532 8.08115942,27.6425532 C8.61594203,27.6425532 9.92318841,27.4042553 9.92318841,24.9617021 C9.92318841,24.4851064 9.92318841,24.0085106 9.86376812,23.5319149 C10.1608696,23.9489362 10.5173913,24.306383 10.9333333,24.5446809 C11.5869565,24.9021277 12.2405797,25.1404255 12.8942029,25.1404255 C14.8550725,25.1404255 16.2811594,23.5914894 16.3405797,22.1617021 C16.3405797,21.8042553 16.3405797,21.4468085 16.2217391,21.1489362 C16.815942,21.3276596 17.4101449,21.4468085 17.9449275,21.4468085 L18.1826087,21.4468085 C19.0144928,21.4468085 19.3710145,21.0297872 19.4898551,20.7319149 C19.6681159,20.4340426 19.6086957,20.0765957 19.5492754,19.7787234 C19.9057971,19.9574468 20.2623188,20.0765957 20.6782609,20.0765957 L21.0347826,20.0765957 C21.8666667,19.9574468 22.5202899,19.5404255 22.8768116,18.8851064 C23.0550725,18.587234 23.173913,18.2297872 23.2333333,17.8723404 C23.2927536,18.0510638 23.4115942,18.2297872 23.5304348,18.4085106 C23.9463768,18.9446809 24.5405797,19.2425532 25.3130435,19.2425532 C25.5507246,19.2425532 25.8478261,19.1829787 26.1449275,19.1234043 C27.5710145,18.7659574 28.3434783,17.5148936 28.7,16.0851064 C28.8782609,16.2638298 29.115942,16.3234043 29.3536232,16.3234043 C29.8884058,16.3234043 30.2449275,15.9659574 30.6014493,15.6085106 C30.6608696,15.5489362 31.2550725,14.893617 31.7304348,13.7021277 C31.8492754,13.9404255 32.0275362,14.1191489 32.1463768,14.2382979 C32.6811594,14.7148936 33.3942029,14.9531915 34.0478261,14.9531915 C34.8202899,14.9531915 35.473913,14.5957447 35.8304348,14 C36.3057971,14.4170213 36.9,14.7148936 37.6724638,14.893617 C37.7913043,14.893617 37.9101449,14.9531915 38.0289855,14.9531915 C38.5043478,14.9531915 38.8608696,14.7148936 39.0985507,14.3574468 C39.3956522,13.8212766 39.2173913,13.2255319 38.9797101,12.8680851 C38.9202899,12.6893617 38.8014493,12.5106383 39.157971,11.3787234 L39.157971,11.3787234 Z" id="Shape" fill="#808080" sketch:type="MSShapeGroup"></path>
            <path d="M9.86376812,14.9531915 C9.09130435,14.2382979 7.42753623,15.1914894 6.59565217,15.6680851 C6.35797101,15.1319149 6.06086957,14.5361702 5.70434783,13.9404255 C5.70434783,13.9404255 11.6463768,10.0085106 9.86376812,7.68510638 C9.09130435,6.67234043 6.53623188,7.0893617 4.93188406,8.10212766 C3.98115942,8.69787234 2.55507246,9.47234043 1.36666667,11.2 C0.831884058,11.9744681 0.594202899,12.8085106 0.772463768,14.9531915 C0.772463768,14.9531915 1.01014493,22.3404255 6.47681159,26.1531915 C7.0115942,26.5106383 8.85362319,27.8212766 8.91304348,24.9021277 C8.91304348,23.1148936 8.61594203,21.0893617 7.78405797,18.706383 C9.09130435,17.6340426 10.6362319,15.6680851 9.86376812,14.9531915 L9.86376812,14.9531915 Z" id="Shape" fill="#FFFFFF" sketch:type="MSShapeGroup"></path>
            <path d="M12.8347826,15.3702128 C12.8347826,15.3702128 12.5376812,12.8085106 10.6362319,13.5234043 C9.56666667,13.9404255 9.44782609,13.2255319 9.74492754,12.6297872 C10.3391304,11.2595745 12.8942029,9.47234043 15.6869565,11.1404255 C16.9347826,11.9148936 17.6478261,13.5829787 17.7666667,16.9191489 C17.826087,18.7659574 18.4797101,19.6 18.4797101,19.6 C18.4797101,19.6 19.3710145,20.7319149 18.0637681,20.612766 C16.7565217,20.493617 15.2710145,20.1957447 14.2608696,18.2297872 C13.4884058,16.6808511 12.1217391,17.2765957 11.8246377,17.9319149 C11.5869565,18.4680851 11.3492754,19.8978723 13.0130435,20.0170213 C14.7362319,20.1361702 15.5086957,20.612766 15.4492754,22.0425532 C15.3898551,23.412766 13.3695652,25.0212766 11.3492754,23.7702128 C9.32898551,22.5191489 8.08115942,17.693617 12.8347826,15.3702128 L12.8347826,15.3702128 Z" id="Shape" fill="#FFFFFF" sketch:type="MSShapeGroup"></path>
            <path d="M19.4304348,10.7829787 C19.4304348,10.7829787 18.5391304,9.82978723 18.0043478,10.2468085 C17.5289855,10.6042553 18.1231884,11.4382979 18.3608696,11.8553191 C18.5391304,12.2723404 18.5985507,13.2255319 18.5985507,15.012766 C18.5985507,16.8 19.0144928,19.4808511 20.915942,19.2425532 C22.8173913,18.9446809 22.5797101,16.8 22.1637681,15.6085106 C21.7478261,14.4170213 20.2028986,12.2723404 21.2724638,10.6638298 C22.0449275,9.47234043 23.5898551,10.0680851 24.0057971,10.9617021 C24.6,12.2723404 24.3028986,14 23.9463768,15.3702128 C23.5898551,16.8595745 24.0057971,18.8255319 25.9666667,18.2893617 C27.9275362,17.7531915 28.2246377,15.1914894 27.9275362,13.3446809 C27.6304348,11.3787234 25.4318841,7.44680851 21.7478261,8.45957447 C19.9057971,8.93617021 19.4304348,10.7829787 19.4304348,10.7829787 L19.4304348,10.7829787 Z" id="Shape" fill="#FFFFFF" sketch:type="MSShapeGroup"></path>
            <path d="M32.0275362,4.82553191 C31.4333333,4.2893617 30.2449275,4.70638298 29.4724638,5.00425532 C29.3536232,4.82553191 29.2347826,4.64680851 29.115942,4.46808511 C29.115942,4.46808511 27.273913,2.20425532 26.0855072,3.33617021 C25.5507246,3.87234043 25.4913043,4.76595745 26.2043478,6.37446809 C26.2043478,6.37446809 25.4318841,6.67234043 24.6594203,6.79148936 C24.4217391,6.85106383 23.5898551,7.32765957 24.6,7.92340426 C25.7884058,8.5787234 26.6202899,8.63829787 27.3927536,8.69787234 C27.3927536,8.69787234 29.3536232,11.4382979 29.0565217,14.4765957 C28.8782609,15.9659574 29.4724638,15.4893617 29.8289855,15.0723404 C29.8289855,15.0723404 32.384058,12.3319149 30.8391304,7.86382979 C31.1362319,7.68510638 31.5521739,7.44680851 31.8492754,7.0893617 C32.384058,6.61276596 33.0376812,5.71914894 32.0275362,4.82553191 L32.0275362,4.82553191 Z" id="Shape" fill="#FFFFFF" sketch:type="MSShapeGroup"></path>
            <path d="M35.057971,9.17446809 C35.057971,9.17446809 35.057971,7.80425532 33.5130435,7.98297872 C32.2652174,8.10212766 32.7405797,7.38723404 32.9782609,7.0893617 C33.4536232,6.55319149 35.057971,5.6 36.8405797,6.37446809 C38.6826087,7.14893617 38.8014493,9.53191489 38.326087,11.1404255 C37.9101449,12.4510638 38.0289855,12.9276596 38.2666667,13.2851064 C38.5043478,13.6425532 38.5043478,14.2382979 37.8507246,14.0595745 C37.2565217,13.9404255 35.9492754,13.5829787 35.6521739,11.9148936 C35.3550725,10.4255319 34.8202899,10.1276596 34.226087,10.3659574 C33.7507246,10.5446809 33.3347826,11.5574468 34.2855072,11.8553191 C35.2956522,12.212766 35.473913,12.8085106 35.1768116,13.4638298 C34.7608696,14.3574468 33.5724638,14.2382979 32.7405797,13.5829787 C32.2652174,13.2255319 31.4333333,11.4382979 32.7405797,10.0680851 C33.6913043,8.93617021 34.7608696,9.11489362 35.057971,9.17446809 L35.057971,9.17446809 Z" id="Shape" fill="#FFFFFF" sketch:type="MSShapeGroup"></path>
            <path d="M40.1086957,11.5574468 C40.6434783,11.5574468 41,11.9744681 41,12.4510638 C41,12.9276596 40.584058,13.3446809 40.1086957,13.3446809 C39.573913,13.3446809 39.2173913,12.9276596 39.2173913,12.4510638 C39.157971,11.9148936 39.573913,11.5574468 40.1086957,11.5574468 L40.1086957,11.5574468 L40.1086957,11.5574468 Z M40.1086957,11.7361702 C39.6927536,11.7361702 39.4550725,12.0340426 39.4550725,12.4510638 C39.4550725,12.8680851 39.7521739,13.1659574 40.1681159,13.1659574 C40.584058,13.1659574 40.8217391,12.8680851 40.8217391,12.4510638 C40.7623188,12.0340426 40.4652174,11.7361702 40.1086957,11.7361702 L40.1086957,11.7361702 L40.1086957,11.7361702 Z M39.9304348,12.8680851 L39.7521739,12.8680851 L39.7521739,11.9744681 C39.8115942,11.9744681 39.9304348,11.9148936 40.1086957,11.9148936 C40.2869565,11.9148936 40.3463768,11.9148936 40.4057971,11.9744681 C40.4652174,12.0340426 40.4652174,12.093617 40.4652174,12.1531915 C40.4652174,12.2723404 40.4057971,12.3319149 40.2869565,12.3914894 L40.2869565,12.3914894 C40.3463768,12.3914894 40.4057971,12.5106383 40.4652174,12.6297872 C40.4652174,12.7489362 40.5246377,12.8085106 40.5246377,12.8680851 L40.2869565,12.8680851 C40.2869565,12.8085106 40.2275362,12.7489362 40.2275362,12.6297872 C40.2275362,12.5106383 40.1681159,12.5106383 40.0492754,12.5106383 L39.9304348,12.5106383 L39.9304348,12.8680851 L39.9304348,12.8680851 Z M39.9304348,12.3914894 L40.0492754,12.3914894 C40.1681159,12.3914894 40.2275362,12.3319149 40.2275362,12.2723404 C40.2275362,12.212766 40.1681159,12.1531915 40.0492754,12.1531915 L39.9304348,12.1531915 L39.9304348,12.3914894 L39.9304348,12.3914894 Z" id="Shape" fill="#808080" sketch:type="MSShapeGroup"></path>
        </g>
    </g>
</svg>