<?xml version="1.0" encoding="utf-8"?>
<!-- Generator: Adobe Illustrator 18.1.1, SVG Export Plug-In . SVG Version: 6.00 Build 0)  -->
<svg version="1.1" id="Layer_1" xmlns="http://www.w3.org/2000/svg" xmlns:xlink="http://www.w3.org/1999/xlink" x="0px" y="0px"
	 viewBox="0 0 224 36.1" style="enable-background:new 0 0 224 36.1;" xml:space="preserve">
<style type="text/css">
	.Drop_x0020_Shadow{fill:none;}
	.Round_x0020_Corners_x0020_2_x0020_pt{fill:#FFFFFF;stroke:#231F20;stroke-miterlimit:10;}
	.Live_x0020_Reflect_x0020_X{fill:none;}
	.Bevel_x0020_Soft{fill:url(#SVGID_1_);}
	.Dusk{fill:#FFFFFF;}
	.Foliage_GS{fill:#FFDD00;}
	.Pompadour_GS{fill-rule:evenodd;clip-rule:evenodd;fill:#44ADE2;}
	.st0{fill:#F24040;}
	.st1{fill:none;}
	.st2{fill:#111010;}
	.st3{font-family:'Dosis-Medium';}
	.st4{font-size:20.1881;}
	.st5{letter-spacing:2;}
</style>
<linearGradient id="SVGID_1_" gradientUnits="userSpaceOnUse" x1="110" y1="8" x2="110.7071" y2="8.7071">
	<stop  offset="0" style="stop-color:#DEDFE3"/>
	<stop  offset="0.1783" style="stop-color:#DADBDF"/>
	<stop  offset="0.3611" style="stop-color:#CECFD3"/>
	<stop  offset="0.546" style="stop-color:#B9BCBF"/>
	<stop  offset="0.7324" style="stop-color:#9CA0A2"/>
	<stop  offset="0.9181" style="stop-color:#787D7E"/>
	<stop  offset="1" style="stop-color:#656B6C"/>
</linearGradient>
<g>
	<g>
		<path class="st0" d="M41.1,27l0-17.4c0-1.4,1.1-2.5,2.5-2.5l5.1,0c1.4,0,2.5,1.1,2.5,2.5l0,17.4c0,1.4-1.1,2.5-2.5,2.5h-5.1
			C42.2,29.5,41.1,28.4,41.1,27z"/>
		<path class="st0" d="M28.8,27l0-17.4c0-1.4,1.1-2.5,2.5-2.5l5.1,0c1.4,0,2.5,1.1,2.5,2.5l0,17.4c0,1.4-1.1,2.5-2.5,2.5l-5.1,0
			C29.9,29.5,28.8,28.4,28.8,27z"/>
	</g>
	<g>
		<path class="st0" d="M7,19.4l17.4,0c1.4,0,2.5,1.1,2.5,2.5l0,5.1c0,1.4-1.1,2.5-2.5,2.5L7,29.5c-1.4,0-2.5-1.1-2.5-2.5l0-5.1
			C4.5,20.5,5.6,19.4,7,19.4z"/>
		<path class="st0" d="M7,7.1l17.4,0c1.4,0,2.5,1.1,2.5,2.5l0,5.1c0,1.4-1.1,2.5-2.5,2.5L7,17.2c-1.4,0-2.5-1.1-2.5-2.5l0-5.1
			C4.5,8.2,5.6,7.1,7,7.1z"/>
	</g>
</g>
<rect x="62.8" y="10.8" class="st1" width="168.2" height="25.2"/>
<text transform="matrix(1 0 0 1 62.8301 26.1519)" class="st2 st3 st4 st5">stephen herko</text>
</svg>
