<?xml version="1.0" encoding="utf-8"?>
<!-- Generator: Adobe Illustrator 18.1.1, SVG Export Plug-In . SVG Version: 6.00 Build 0)  -->
<svg version="1.1" id="Layer_1" xmlns="http://www.w3.org/2000/svg" xmlns:xlink="http://www.w3.org/1999/xlink" x="0px" y="0px"
	 viewBox="0 0 224 36.1" style="enable-background:new 0 0 224 36.1;" xml:space="preserve">
<style type="text/css">
	.Drop_x0020_Shadow{fill:none;}
	.Round_x0020_Corners_x0020_2_x0020_pt{fill:#FFFFFF;stroke:#231F20;stroke-miterlimit:10;}
	.Live_x0020_Reflect_x0020_X{fill:none;}
	.Bevel_x0020_Soft{fill:url(#SVGID_1_);}
	.Dusk{fill:#FFFFFF;}
	.Foliage_GS{fill:#FFDD00;}
	.Pompadour_GS{fill-rule:evenodd;clip-rule:evenodd;fill:#44ADE2;}
	.st0{fill:#111010;}
	.st1{fill:#F24040;}
</style>
<linearGradient id="SVGID_1_" gradientUnits="userSpaceOnUse" x1="110" y1="8" x2="110.7071" y2="8.7071">
	<stop  offset="0" style="stop-color:#DEDFE3"/>
	<stop  offset="0.1783" style="stop-color:#DADBDF"/>
	<stop  offset="0.3611" style="stop-color:#CECFD3"/>
	<stop  offset="0.546" style="stop-color:#B9BCBF"/>
	<stop  offset="0.7324" style="stop-color:#9CA0A2"/>
	<stop  offset="0.9181" style="stop-color:#787D7E"/>
	<stop  offset="1" style="stop-color:#656B6C"/>
</linearGradient>
<g>
	<path class="st0" d="M62.5,23.1c0-0.2,0.1-0.4,0.2-0.6c0.2-0.2,0.3-0.3,0.5-0.3c0.1,0,0.3,0.1,0.5,0.3s0.4,0.4,0.6,0.6
		c0.2,0.2,0.5,0.4,0.9,0.6c0.4,0.2,0.9,0.3,1.5,0.3c0.9,0,1.6-0.2,2.1-0.6s0.7-1,0.7-1.9c0-0.7-0.2-1.3-0.7-1.8s-1-0.8-1.7-1.1
		s-1.3-0.5-1.9-0.8s-1.2-0.7-1.7-1.3c-0.5-0.6-0.7-1.3-0.7-2.2c0-0.7,0.1-1.3,0.4-1.8c0.3-0.5,0.6-0.9,1.1-1.2
		c0.5-0.3,0.9-0.5,1.4-0.6s1-0.2,1.6-0.2c0.8,0,1.6,0.1,2.4,0.4c0.8,0.2,1.1,0.6,1.1,1c0,0.2-0.1,0.4-0.2,0.6
		c-0.1,0.2-0.3,0.3-0.5,0.3c-0.1,0-0.4-0.1-0.9-0.4c-0.6-0.3-1.2-0.4-1.9-0.4c-0.8,0-1.5,0.2-2,0.5s-0.8,0.9-0.8,1.6
		c0,0.6,0.2,1.1,0.7,1.5c0.5,0.4,1,0.7,1.7,0.9s1.3,0.5,1.9,0.8c0.6,0.3,1.2,0.8,1.7,1.4s0.7,1.5,0.7,2.5c0,1.4-0.4,2.4-1.2,3.1
		c-0.8,0.7-1.9,1.1-3.2,1.1c-1.2,0-2.2-0.3-3-0.8C62.9,24.1,62.5,23.6,62.5,23.1z"/>
	<path class="st0" d="M74.2,11.1c0-0.2,0.1-0.4,0.2-0.5s0.3-0.2,0.4-0.2h8.2c0.2,0,0.3,0.1,0.4,0.2c0.1,0.2,0.2,0.3,0.2,0.5
		c0,0.2-0.1,0.4-0.2,0.6c-0.1,0.2-0.3,0.2-0.4,0.2h-3.2v12.6c0,0.2-0.1,0.3-0.3,0.4c-0.2,0.1-0.4,0.2-0.6,0.2s-0.4-0.1-0.6-0.2
		c-0.2-0.1-0.3-0.3-0.3-0.4V11.9h-3.3c-0.2,0-0.3-0.1-0.4-0.2C74.3,11.6,74.2,11.4,74.2,11.1z"/>
	<path class="st0" d="M87.4,24.5V11c0-0.2,0.1-0.3,0.2-0.4c0.2-0.1,0.3-0.2,0.5-0.2h7.2c0.2,0,0.3,0.1,0.4,0.2
		c0.1,0.1,0.2,0.3,0.2,0.5c0,0.2-0.1,0.4-0.2,0.6c-0.1,0.2-0.2,0.2-0.4,0.2h-6.3v5.1h3.1c0.2,0,0.3,0.1,0.4,0.2
		c0.1,0.1,0.2,0.3,0.2,0.5c0,0.2-0.1,0.3-0.2,0.5c-0.1,0.1-0.2,0.2-0.4,0.2h-3.1v5.1h6.3c0.2,0,0.3,0.1,0.4,0.2
		c0.1,0.2,0.2,0.3,0.2,0.6c0,0.2-0.1,0.4-0.2,0.5c-0.1,0.1-0.2,0.2-0.4,0.2h-7.2c-0.2,0-0.4-0.1-0.5-0.2S87.4,24.7,87.4,24.5z"/>
	<path class="st0" d="M99.8,24.5V11c0-0.2,0.1-0.3,0.2-0.4c0.1-0.1,0.3-0.2,0.5-0.2h3.8c1.3,0,2.3,0.4,3.1,1
		c0.8,0.7,1.2,1.8,1.2,3.3v0.2c0,1.5-0.4,2.6-1.2,3.3s-1.9,1.1-3.2,1.1h-2.7v5.2c0,0.2-0.1,0.3-0.3,0.4c-0.2,0.1-0.4,0.2-0.6,0.2
		c-0.2,0-0.4-0.1-0.6-0.2S99.8,24.7,99.8,24.5z M101.5,17.9h2.7c0.8,0,1.5-0.2,2-0.7c0.5-0.5,0.7-1.2,0.7-2.1v-0.2
		c0-1-0.2-1.7-0.7-2.1s-1.1-0.7-2-0.7h-2.7V17.9z"/>
	<path class="st0" d="M112.6,24.5V11c0-0.2,0.1-0.3,0.3-0.4c0.2-0.1,0.4-0.2,0.6-0.2c0.2,0,0.4,0.1,0.6,0.2c0.2,0.1,0.3,0.2,0.3,0.4
		v5.8h5.5V11c0-0.2,0.1-0.3,0.3-0.4c0.2-0.1,0.4-0.2,0.6-0.2c0.2,0,0.4,0.1,0.6,0.2c0.2,0.1,0.3,0.2,0.3,0.4v13.6
		c0,0.2-0.1,0.3-0.3,0.4s-0.4,0.2-0.6,0.2c-0.2,0-0.4-0.1-0.6-0.2c-0.2-0.1-0.3-0.3-0.3-0.4v-6.3h-5.5v6.3c0,0.2-0.1,0.3-0.3,0.4
		c-0.2,0.1-0.4,0.2-0.6,0.2c-0.2,0-0.4-0.1-0.6-0.2S112.6,24.7,112.6,24.5z"/>
	<path class="st0" d="M126.4,24.5V11c0-0.2,0.1-0.3,0.2-0.4c0.2-0.1,0.3-0.2,0.5-0.2h7.2c0.2,0,0.3,0.1,0.4,0.2
		c0.1,0.1,0.2,0.3,0.2,0.5c0,0.2-0.1,0.4-0.2,0.6c-0.1,0.2-0.2,0.2-0.4,0.2h-6.3v5.1h3.1c0.2,0,0.3,0.1,0.4,0.2
		c0.1,0.1,0.2,0.3,0.2,0.5c0,0.2-0.1,0.3-0.2,0.5c-0.1,0.1-0.2,0.2-0.4,0.2h-3.1v5.1h6.3c0.2,0,0.3,0.1,0.4,0.2s0.2,0.3,0.2,0.6
		c0,0.2-0.1,0.4-0.2,0.5c-0.1,0.1-0.2,0.2-0.4,0.2h-7.2c-0.2,0-0.4-0.1-0.5-0.2S126.4,24.7,126.4,24.5z"/>
	<path class="st0" d="M138.8,24.5V11c0-0.4,0.3-0.6,0.8-0.6c0.3,0,0.5,0.1,0.7,0.3c0.2,0.2,0.4,0.4,0.6,0.8l5,9.8V11
		c0-0.2,0.1-0.3,0.3-0.4c0.2-0.1,0.4-0.2,0.6-0.2c0.2,0,0.4,0.1,0.6,0.2c0.2,0.1,0.3,0.2,0.3,0.4v13.6c0,0.2-0.1,0.3-0.3,0.4
		c-0.2,0.1-0.4,0.2-0.6,0.2c-0.4,0-0.8-0.3-1.1-0.8l-5.2-10.2v10.3c0,0.2-0.1,0.3-0.3,0.4s-0.4,0.2-0.6,0.2s-0.4-0.1-0.6-0.2
		S138.8,24.7,138.8,24.5z"/>
	<path class="st0" d="M158.6,24.5V11c0-0.2,0.1-0.3,0.3-0.4c0.2-0.1,0.4-0.2,0.6-0.2c0.2,0,0.4,0.1,0.6,0.2c0.2,0.1,0.3,0.2,0.3,0.4
		v5.8h5.5V11c0-0.2,0.1-0.3,0.3-0.4c0.2-0.1,0.4-0.2,0.6-0.2s0.4,0.1,0.6,0.2c0.2,0.1,0.3,0.2,0.3,0.4v13.6c0,0.2-0.1,0.3-0.3,0.4
		s-0.4,0.2-0.6,0.2s-0.4-0.1-0.6-0.2s-0.3-0.3-0.3-0.4v-6.3h-5.5v6.3c0,0.2-0.1,0.3-0.3,0.4c-0.2,0.1-0.4,0.2-0.6,0.2
		c-0.2,0-0.4-0.1-0.6-0.2C158.7,24.9,158.6,24.7,158.6,24.5z"/>
	<path class="st0" d="M172.3,24.5V11c0-0.2,0.1-0.3,0.2-0.4c0.2-0.1,0.3-0.2,0.5-0.2h7.2c0.2,0,0.3,0.1,0.4,0.2
		c0.1,0.1,0.2,0.3,0.2,0.5c0,0.2-0.1,0.4-0.2,0.6c-0.1,0.2-0.2,0.2-0.4,0.2H174v5.1h3.1c0.2,0,0.3,0.1,0.4,0.2
		c0.1,0.1,0.2,0.3,0.2,0.5c0,0.2-0.1,0.3-0.2,0.5c-0.1,0.1-0.2,0.2-0.4,0.2H174v5.1h6.3c0.2,0,0.3,0.1,0.4,0.2s0.2,0.3,0.2,0.6
		c0,0.2-0.1,0.4-0.2,0.5c-0.1,0.1-0.2,0.2-0.4,0.2h-7.2c-0.2,0-0.4-0.1-0.5-0.2S172.3,24.7,172.3,24.5z"/>
	<path class="st0" d="M184.7,24.5V11c0-0.2,0.1-0.3,0.2-0.4c0.1-0.1,0.3-0.2,0.4-0.2h3.7c1.3,0,2.4,0.3,3.3,0.9
		c0.8,0.6,1.2,1.7,1.2,3.1c0,2.2-1,3.5-3,3.9l3,5.7c0.1,0.1,0.1,0.2,0.1,0.3c0,0.2-0.1,0.4-0.3,0.6c-0.2,0.2-0.4,0.3-0.7,0.3
		c-0.3,0-0.5-0.2-0.8-0.7l-3-5.9h-2.3v5.9c0,0.2-0.1,0.3-0.3,0.4s-0.4,0.2-0.6,0.2s-0.4-0.1-0.6-0.2S184.7,24.7,184.7,24.5z
		 M186.4,17.2h2.6c1.9,0,2.8-0.9,2.8-2.6c0-1.7-0.9-2.6-2.8-2.6h-2.6V17.2z"/>
	<path class="st0" d="M197.7,24.5V11c0-0.2,0.1-0.3,0.3-0.4c0.2-0.1,0.4-0.2,0.6-0.2s0.4,0.1,0.6,0.2c0.2,0.1,0.3,0.2,0.3,0.4v6.7
		l5.4-7c0.1-0.2,0.3-0.2,0.5-0.2c0.2,0,0.4,0.1,0.6,0.3c0.2,0.2,0.3,0.4,0.3,0.6c0,0.1,0,0.3-0.1,0.4l-4.1,5.1l4.8,7.3
		c0.1,0.1,0.1,0.2,0.1,0.3c0,0.2-0.1,0.4-0.3,0.6c-0.2,0.2-0.4,0.3-0.7,0.3c-0.3,0-0.5-0.1-0.6-0.3l-4.4-6.6l-1.5,1.9v4.5
		c0,0.2-0.1,0.3-0.3,0.4s-0.4,0.2-0.6,0.2s-0.4-0.1-0.6-0.2C197.8,24.9,197.7,24.7,197.7,24.5z"/>
	<path class="st0" d="M210,20.9v-6.1c0-1.5,0.4-2.6,1.2-3.3s1.8-1.1,3.2-1.1c1.3,0,2.4,0.4,3.2,1.1c0.8,0.7,1.2,1.8,1.2,3.3v6.1
		c0,1.5-0.4,2.6-1.2,3.3c-0.8,0.7-1.9,1.1-3.2,1.1c-1.3,0-2.4-0.4-3.2-1.1S210,22.4,210,20.9z M211.7,20.9c0,1.9,0.9,2.9,2.6,2.9
		c0.8,0,1.5-0.2,2-0.7c0.5-0.5,0.7-1.2,0.7-2.1v-6.1c0-1-0.2-1.7-0.7-2.1s-1.1-0.7-2-0.7c-1.8,0-2.6,1-2.6,2.9V20.9z"/>
</g>
<g>
	<path class="st1" d="M39.9,6.8h-6.8c0,0-4.2,0-4.2,4.2v19.3h6.8c0,0,4.2,0,4.2-4.2V6.8z"/>
	<path class="st1" d="M41.3,30.3h6.8c0,0,4.2,0,4.2-4.2V6.8h-6.8c0,0-4.2,0-4.2,4.2V30.3L41.3,30.3z"/>
	<path class="st1" d="M23.4,17.8c4,0,4.2-4.2,4.2-4.2V6.8H8.3C4.1,6.8,4.1,11,4.1,11v6.8H23.4L23.4,17.8z"/>
	<path class="st1" d="M23.4,30.1c4,0,4.2-4,4.2-4v-6.8H8.3c-4.2,0-4.2,4-4.2,4v6.8H23.4L23.4,30.1z"/>
</g>
</svg>
