<?xml version="1.0" encoding="utf-8"?>
<!-- Generator: Adobe Illustrator 18.1.0, SVG Export Plug-In . SVG Version: 6.00 Build 0)  -->
<svg version="1.1" id="Layer_1" xmlns="http://www.w3.org/2000/svg" xmlns:xlink="http://www.w3.org/1999/xlink" x="0px" y="0px"
	 viewBox="0 0 55 55" style="enable-background:new 0 0 55 55;" xml:space="preserve">
<style type="text/css">
	.Drop_x0020_Shadow{fill:none;}
	.Round_x0020_Corners_x0020_2_x0020_pt{fill:#FFFFFF;stroke:#231F20;stroke-miterlimit:10;}
	.Live_x0020_Reflect_x0020_X{fill:none;}
	.Bevel_x0020_Soft{fill:url(#SVGID_1_);}
	.Dusk{fill:#FFFFFF;}
	.Foliage_GS{fill:#FFDD00;}
	.Pompadour_GS{fill-rule:evenodd;clip-rule:evenodd;fill:#44ADE2;}
	.st0{fill:#231F20;}
	.st1{fill:#FFFFFF;}
</style>
<linearGradient id="SVGID_1_" gradientUnits="userSpaceOnUse" x1="0" y1="0" x2="0.7071" y2="0.7071">
	<stop  offset="0" style="stop-color:#DEDFE3"/>
	<stop  offset="0.1783" style="stop-color:#DADBDF"/>
	<stop  offset="0.3611" style="stop-color:#CECFD3"/>
	<stop  offset="0.546" style="stop-color:#B9BCBF"/>
	<stop  offset="0.7324" style="stop-color:#9CA0A2"/>
	<stop  offset="0.9181" style="stop-color:#787D7E"/>
	<stop  offset="1" style="stop-color:#656B6C"/>
</linearGradient>
<circle class="st0" cx="19.8" cy="27.3" r="19.8"/>
<g>
	<path class="st1" d="M26.5,20.6h-3.9c0,0-2.4,0-2.4,2.4v11h3.9c0,0,2.4,0,2.4-2.4V20.6z"/>
	<path class="st1" d="M27.3,34h3.9c0,0,2.4,0,2.4-2.4v-11h-3.9c0,0-2.4,0-2.4,2.4V34L27.3,34z"/>
	<path class="st1" d="M17.1,26.9c2.3,0,2.4-2.4,2.4-2.4v-3.9h-11c-2.4,0-2.4,2.4-2.4,2.4v3.9L17.1,26.9L17.1,26.9z"/>
	<path class="st1" d="M17.1,33.9c2.3,0,2.4-2.3,2.4-2.3v-3.9h-11c-2.4,0-2.4,2.3-2.4,2.3v3.9H17.1L17.1,33.9z"/>
</g>
</svg>
