<?xml version="1.0" encoding="utf-8"?>
<!-- Generator: Adobe Illustrator 18.1.1, SVG Export Plug-In . SVG Version: 6.00 Build 0)  -->
<!DOCTYPE svg PUBLIC "-//W3C//DTD SVG 1.1//EN" "http://www.w3.org/Graphics/SVG/1.1/DTD/svg11.dtd">
<svg version="1.1" id="Layer_1" xmlns="http://www.w3.org/2000/svg" xmlns:xlink="http://www.w3.org/1999/xlink" x="0px" y="0px"
	 viewBox="0 352.3 122 111" enable-background="new 0 352.3 122 111" xml:space="preserve">
<circle cx="229.3" cy="481.6" r="37.4"/>
<g>
	<path fill="#F24040" d="M22.4,404.6c4.6,0,4.9-4.9,4.9-4.9v-7.9H5.4c-4.9,0-4.9,4.9-4.9,4.9v7.9h23.6H22.4z"/>
</g>
<g>
	<path fill="#F24040" d="M22.4,418.6c4.6,0,4.9-4.6,4.9-4.6v-7.9H5.4c-4.9,0-4.9,4.6-4.9,4.6v7.9h24.6H22.4z"/>
</g>
<g>
	<path fill="#F24040" d="M43.3,413.7c0,4.6,4.9,4.9,4.9,4.9H56l0-21.8c0-4.9-4.9-4.9-4.9-4.9h-7.9l0,23.6V413.7z"/>
</g>
<g>
	<path fill="#F24040" d="M29.3,413.7c0,4.6,4.6,4.9,4.6,4.9h7.9l0-21.8c0-4.9-4.6-4.9-4.6-4.9h-7.9l0,24.6V413.7z"/>
</g>
<g>
	<path fill="#F24040" d="M224.4,481.6c4.6,0,4.9-4.9,4.9-4.9v-7.9h-21.8c-4.9,0-4.9,4.9-4.9,4.9v7.9h23.6H224.4z"/>
</g>
<g>
	<path fill="#F24040" d="M224.4,495.6c4.6,0,4.9-4.6,4.9-4.6v-7.9h-21.8c-4.9,0-4.9,4.6-4.9,4.6v7.9h24.6H224.4z"/>
</g>
<g>
	<path fill="#F24040" d="M245.3,490.7c0,4.6,4.9,4.9,4.9,4.9h7.9l0-21.8c0-4.9-4.9-4.9-4.9-4.9h-7.9v23.6V490.7z"/>
</g>
<g>
	<path fill="#F24040" d="M231.3,490.7c0,4.6,4.6,4.9,4.6,4.9h7.9v-21.8c0-4.9-4.6-4.9-4.6-4.9h-7.9l0,24.6V490.7z"/>
</g>
<rect x="135.2" y="380.8" width="54" height="54"/>
<g>
	<path fill="#FFFFFF" d="M170.4,407.2c4.5,0,4.7-4.7,4.7-4.7v-7.7h-21.3c-4.7,0-4.7,4.7-4.7,4.7v7.7h23H170.4z"/>
</g>
<g>
	<path fill="#FFFFFF" d="M170.4,420.8c4.5,0,4.7-4.5,4.7-4.5v-7.7h-21.3c-4.7,0-4.7,4.5-4.7,4.5v7.7h24H170.4z"/>
</g>
</svg>
