<?xml version="1.0" encoding="utf-8"?>
<!-- Generator: Adobe Illustrator 18.0.0, SVG Export Plug-In . SVG Version: 6.00 Build 0)  -->
<!DOCTYPE svg PUBLIC "-//W3C//DTD SVG 1.1//EN" "http://www.w3.org/Graphics/SVG/1.1/DTD/svg11.dtd">
<svg version="1.1" id="Layer_1" xmlns="http://www.w3.org/2000/svg" xmlns:xlink="http://www.w3.org/1999/xlink" x="0px" y="0px"
	 viewBox="11.2 365.3 131.6 64.2" enable-background="new 11.2 365.3 131.6 64.2" xml:space="preserve">
<g>
	<path fill="#F24040" d="M109,365.3H90.4c0,0-11.5,0-11.5,11.5v52.7h18.6c0,0,11.5,0,11.5-11.5V365.3z"/>
	<path fill="#F24040" d="M112.8,429.5h18.6c0,0,11.5,0,11.5-11.5v-52.7h-18.6c0,0-11.5,0-11.5,11.5V429.5L112.8,429.5z"/>
	<path fill="#F24040" d="M63.9,395.3c10.9,0,11.5-11.5,11.5-11.5v-18.6H22.7c-11.5,0-11.5,11.5-11.5,11.5v18.6H63.9L63.9,395.3z"/>
	<path fill="#F24040" d="M63.9,428.9c10.9,0,11.5-10.9,11.5-10.9v-18.6H22.7c-11.5,0-11.5,10.9-11.5,10.9v18.6H63.9L63.9,428.9z"/>
</g>
</svg>
