<?xml version="1.0" encoding="UTF-8" standalone="no"?>
<svg width="49px" height="48px" viewBox="0 0 49 48" version="1.1" xmlns="http://www.w3.org/2000/svg" xmlns:xlink="http://www.w3.org/1999/xlink" xmlns:sketch="http://www.bohemiancoding.com/sketch/ns">
    <!-- Generator: Sketch 3.3.3 (12081) - http://www.bohemiancoding.com/sketch -->
    <title>sprite</title>
    <desc>Created with Sketch.</desc>
    <defs></defs>
    <g id="Page-1" stroke="none" stroke-width="1" fill="none" fill-rule="evenodd" sketch:type="MSPage">
        <g id="sprite" sketch:type="MSLayerGroup" fill="#808080">
            <path d="M41,16.7 L36.8,20.4 L33.4,10.9 L32.5,11.7 L31.9,10.1 C31.9,10.1 34.7,8 33.3,3.7 L33.3,3.7 L34.5,2.7 L35.8,6.7 L37.2,5.5 L37.7,7.2 L36.4,8.4 L39,15.4 C39.4,16.2 39.8,16.9 41,16.7 L41,16.7 L41,16.7 Z" id="Shape" sketch:type="MSShapeGroup"></path>
            <path d="M27.9,13.6 L31.1,10.7 L33.5,17.6 C34.1,19.2 34.5,20.9 36,20.9 L36,20.9 L31.7,24.6 L27.9,13.6 L27.9,13.6 Z" id="Shape" sketch:type="MSShapeGroup"></path>
            <path d="M22.5,21.2 C21.8,19.7 21.2,19.9 20.8,20 L20.8,20 L24.1,17.1 L24.9,19.2 C24,16.1 27,14.1 27,14.1 L27,14.1 L28.4,17.9 C27.8,17.4 26,19 26.5,20.8 L26.5,20.8 L27.4,23.6 C28,25.2 28.5,26.7 30.2,26.3 L30.2,26.3 L25.6,30.3 L22.5,21.2 L22.5,21.2 Z" id="Shape" sketch:type="MSShapeGroup"></path>
            <path d="M47.5,10.9 C46.6,12.2 44.7,13.9 43.1,13.7 C41.7,13.6 40.4,12.6 39.7,10.9 L39.7,10.9 L38.5,7.8 C37.9,5.8 38.4,3.9 40.6,1.9 C41.9,0.7 43.7,-0.4 45.1,0.4 C46.2,1 46.8,3.4 46.8,3.4 L46.8,3.4 L47.1,4.2 L42.6,8 C43.1,9.4 43.9,10.1 44.9,9.9 C46.2,9.5 47.3,8.2 47.8,6 L47.8,6 L48.6,8.2 C48.4,9.3 48,10 47.5,10.9 L47.5,10.9 L47.5,10.9 Z M42,3.4 C41,4.4 41.6,5.3 42,6.6 L42,6.6 L43.7,5.1 C43.9,4.8 43.7,4.6 43.6,4.4 C43.6,4.4 43.1,2.5 42,3.4 L42,3.4 L42,3.4 Z" id="Shape" sketch:type="MSShapeGroup"></path>
            <path d="M23.7,28 C25,31.9 21.6,34.4 21,34.4 C20.4,34.5 20.2,34.5 19.8,34.4 L21.2,38 C21.7,39 22.9,39.2 23.1,39 L23.1,39 L18.6,42.9 C16.9,37.9 15.6,34.2 13.7,29.3 C13.2,28.2 12.3,27.9 11.7,28 L11.7,28 L17.2,23.1 C18.7,21.8 20.9,21.8 22,23.9 L22,23.9 L23.7,28 L23.7,28 Z M17,26.4 L19.1,32.2 C19.7,33.1 21,32.1 20.4,30.8 L20.4,30.8 L19,26.6 C18.3,24.6 16.9,25.9 17,26.4 L17,26.4 L17,26.4 Z" id="Shape" sketch:type="MSShapeGroup"></path>
            <path d="M5.2,36.4 C5.2,36.4 7,37.5 9,38.6 C11.9,40.1 12,42.5 10.3,43.8 C8.4,45.3 6.3,45 4.8,42.5 L4.8,42.5 L5.1,47.2 C8.8,49.8 14.9,45.7 15.9,41 C16.2,39.3 16.2,36.3 13.7,34.7 C11.4,33.2 8.8,32 8.6,31.9 C7.7,31.5 6.9,31.1 6.2,30.7 C4.6,29.8 4.9,28.1 5.3,27.5 C6.6,25.6 8.9,25.6 10.7,27.8 L10.7,27.8 L9.6,23.4 C5.6,21.6 -0.2,27 0.4,31.2 C0.5,32.3 1.1,34.4 5,36.4 L5,36.4 L5.2,36.4 L5.2,36.4 Z" id="Shape" sketch:type="MSShapeGroup"></path>
            <path d="M30.8,4.1 L30.8,4.1 C30.9,4 31.3,3.8 31.5,3.9 L31.5,3.9 C31.5,3.9 31.7,4.1 31.7,4.9 L31.7,4.9 C31.7,4.9 31.9,8.4 29.9,9.9 C29.9,9.9 28.9,10.8 27.3,10.7 C27.3,10.7 26.3,10.6 26,10.6 L26,10.6 C26,10.6 25.1,10.3 24.4,11 C24.3,11.1 24.2,11.2 24.1,11.1 L24.1,11.1 C24,11.1 23.8,10.9 23.8,10.1 L23.8,9 C24.3,8.8 24.7,8.9 24.7,8.9 L24.7,8.9 L24.7,8.9 C25,8.9 26,9 26,9 C27.7,9.1 28.7,8.2 28.8,8.1 C30.3,7.2 30.7,5.3 30.8,4.1 L30.8,4.1 L30.8,4.1 Z" id="Shape" sketch:type="MSShapeGroup"></path>
            <path d="M30.5,4.3 C30.4,5.5 30,7.1 28.8,8 C28.8,8 27.8,8.9 26.2,8.8 C26.2,8.8 25.2,8.7 24.9,8.7 L24.9,8.7 C24.9,8.7 24,8.4 23.3,9.1 C23.2,9.2 23.1,9.3 23,9.2 L23,9.2 C22.9,9.2 22.7,9 22.7,8.2 C22.7,8.2 22.6,6.2 23.1,4.7 C23.1,4.6 23.8,2.7 25.8,2.5 C25.8,2.5 27.3,2.4 28,2.5 C28.2,2.5 29.4,2.6 29.9,2.1 L29.9,2.1 C30,2 30.3,1.9 30.4,2 L30.4,2 C30.4,2 30.6,2.2 30.6,3 L30.6,3 C30.5,3 30.5,3.6 30.5,4.3 L30.5,4.3 L30.5,4.3 Z" id="Shape" sketch:type="MSShapeGroup"></path>
        </g>
    </g>
</svg>