<?xml version="1.0" encoding="UTF-8" standalone="no"?>
<svg width="21px" height="21px" viewBox="0 0 21 21" version="1.1" xmlns="http://www.w3.org/2000/svg" xmlns:xlink="http://www.w3.org/1999/xlink" xmlns:sketch="http://www.bohemiancoding.com/sketch/ns">
    <!-- Generator: Sketch 3.3.3 (12081) - http://www.bohemiancoding.com/sketch -->
    <title>Artboard 1</title>
    <desc>Created with Sketch.</desc>
    <defs></defs>
    <g id="Page-1" stroke="none" stroke-width="1" fill="none" fill-rule="evenodd" sketch:type="MSPage">
        <g id="Artboard-1" sketch:type="MSArtboardGroup" fill="#808080">
            <g id="sprite" sketch:type="MSLayerGroup">
                <g id="Page-1" sketch:type="MSShapeGroup">
                    <g id="sprite">
                        <path d="M17.5714286,7.15714286 L15.7714286,8.74285714 L14.3142857,4.67142857 L13.9285714,5.01428571 L13.6714286,4.32857143 C13.6714286,4.32857143 14.8714286,3.42857143 14.2714286,1.58571429 L14.2714286,1.58571429 L14.7857143,1.15714286 L15.3428571,2.87142857 L15.9428571,2.35714286 L16.1571429,3.08571429 L15.6,3.6 L16.7142857,6.6 C16.8857143,6.94285714 17.0571429,7.24285714 17.5714286,7.15714286 L17.5714286,7.15714286 L17.5714286,7.15714286 Z" id="Shape"></path>
                        <path d="M11.9571429,5.82857143 L13.3285714,4.58571429 L14.3571429,7.54285714 C14.6142857,8.22857143 14.7857143,8.95714286 15.4285714,8.95714286 L15.4285714,8.95714286 L13.5857143,10.5428571 L11.9571429,5.82857143 L11.9571429,5.82857143 Z" id="Shape"></path>
                        <path d="M9.64285714,9.08571429 C9.34285714,8.44285714 9.08571429,8.52857143 8.91428571,8.57142857 L8.91428571,8.57142857 L10.3285714,7.32857143 L10.6714286,8.22857143 C10.2857143,6.9 11.5714286,6.04285714 11.5714286,6.04285714 L11.5714286,6.04285714 L12.1714286,7.67142857 C11.9142857,7.45714286 11.1428571,8.14285714 11.3571429,8.91428571 L11.3571429,8.91428571 L11.7428571,10.1142857 C12,10.8 12.2142857,11.4428571 12.9428571,11.2714286 L12.9428571,11.2714286 L10.9714286,12.9857143 L9.64285714,9.08571429 L9.64285714,9.08571429 Z" id="Shape"></path>
                        <path d="M20.3571429,4.67142857 C19.9714286,5.22857143 19.1571429,5.95714286 18.4714286,5.87142857 C17.8714286,5.82857143 17.3142857,5.4 17.0142857,4.67142857 L17.0142857,4.67142857 L16.5,3.34285714 C16.2428571,2.48571429 16.4571429,1.67142857 17.4,0.814285714 C17.9571429,0.3 18.7285714,-0.171428571 19.3285714,0.171428571 C19.8,0.428571429 20.0571429,1.45714286 20.0571429,1.45714286 L20.0571429,1.45714286 L20.1857143,1.8 L18.2571429,3.42857143 C18.4714286,4.02857143 18.8142857,4.32857143 19.2428571,4.24285714 C19.8,4.07142857 20.2714286,3.51428571 20.4857143,2.57142857 L20.4857143,2.57142857 L20.8285714,3.51428571 C20.7428571,3.98571429 20.5714286,4.28571429 20.3571429,4.67142857 L20.3571429,4.67142857 L20.3571429,4.67142857 Z M18,1.45714286 C17.5714286,1.88571429 17.8285714,2.27142857 18,2.82857143 L18,2.82857143 L18.7285714,2.18571429 C18.8142857,2.05714286 18.7285714,1.97142857 18.6857143,1.88571429 C18.6857143,1.88571429 18.4714286,1.07142857 18,1.45714286 L18,1.45714286 L18,1.45714286 Z" id="Shape"></path>
                        <path d="M10.1571429,12 C10.7142857,13.6714286 9.25714286,14.7428571 9,14.7428571 C8.74285714,14.7857143 8.65714286,14.7857143 8.48571429,14.7428571 L9.08571429,16.2857143 C9.3,16.7142857 9.81428571,16.8 9.9,16.7142857 L9.9,16.7142857 L7.97142857,18.3857143 C7.24285714,16.2428571 6.68571429,14.6571429 5.87142857,12.5571429 C5.65714286,12.0857143 5.27142857,11.9571429 5.01428571,12 L5.01428571,12 L7.37142857,9.9 C8.01428571,9.34285714 8.95714286,9.34285714 9.42857143,10.2428571 L9.42857143,10.2428571 L10.1571429,12 L10.1571429,12 Z M7.28571429,11.3142857 L8.18571429,13.8 C8.44285714,14.1857143 9,13.7571429 8.74285714,13.2 L8.74285714,13.2 L8.14285714,11.4 C7.84285714,10.5428571 7.24285714,11.1 7.28571429,11.3142857 L7.28571429,11.3142857 L7.28571429,11.3142857 Z" id="Shape"></path>
                        <path d="M2.22857143,15.6 C2.22857143,15.6 3,16.0714286 3.85714286,16.5428571 C5.1,17.1857143 5.14285714,18.2142857 4.41428571,18.7714286 C3.6,19.4142857 2.7,19.2857143 2.05714286,18.2142857 L2.05714286,18.2142857 L2.18571429,20.2285714 C3.77142857,21.3428571 6.38571429,19.5857143 6.81428571,17.5714286 C6.94285714,16.8428571 6.94285714,15.5571429 5.87142857,14.8714286 C4.88571429,14.2285714 3.77142857,13.7142857 3.68571429,13.6714286 C3.3,13.5 2.95714286,13.3285714 2.65714286,13.1571429 C1.97142857,12.7714286 2.1,12.0428571 2.27142857,11.7857143 C2.82857143,10.9714286 3.81428571,10.9714286 4.58571429,11.9142857 L4.58571429,11.9142857 L4.11428571,10.0285714 C2.4,9.25714286 -0.0857142857,11.5714286 0.171428571,13.3714286 C0.214285714,13.8428571 0.471428571,14.7428571 2.14285714,15.6 L2.14285714,15.6 L2.22857143,15.6 L2.22857143,15.6 Z" id="Shape"></path>
                        <path d="M13.2,1.75714286 L13.2,1.75714286 C13.2428571,1.71428571 13.4142857,1.62857143 13.5,1.67142857 L13.5,1.67142857 C13.5,1.67142857 13.5857143,1.75714286 13.5857143,2.1 L13.5857143,2.1 C13.5857143,2.1 13.6714286,3.6 12.8142857,4.24285714 C12.8142857,4.24285714 12.3857143,4.62857143 11.7,4.58571429 C11.7,4.58571429 11.2714286,4.54285714 11.1428571,4.54285714 L11.1428571,4.54285714 C11.1428571,4.54285714 10.7571429,4.41428571 10.4571429,4.71428571 C10.4142857,4.75714286 10.3714286,4.8 10.3285714,4.75714286 L10.3285714,4.75714286 C10.2857143,4.75714286 10.2,4.67142857 10.2,4.32857143 L10.2,3.85714286 C10.4142857,3.77142857 10.5857143,3.81428571 10.5857143,3.81428571 L10.5857143,3.81428571 C10.7142857,3.81428571 11.1428571,3.85714286 11.1428571,3.85714286 C11.8714286,3.9 12.3,3.51428571 12.3428571,3.47142857 C12.9857143,3.08571429 13.1571429,2.27142857 13.2,1.75714286 L13.2,1.75714286 L13.2,1.75714286 Z" id="Shape"></path>
                        <path d="M13.0714286,1.84285714 C13.0285714,2.35714286 12.8571429,3.04285714 12.3428571,3.42857143 C12.3428571,3.42857143 11.9142857,3.81428571 11.2285714,3.77142857 C11.2285714,3.77142857 10.8,3.72857143 10.6714286,3.72857143 L10.6714286,3.72857143 C10.6714286,3.72857143 10.2857143,3.6 9.98571429,3.9 C9.94285714,3.94285714 9.9,3.98571429 9.85714286,3.94285714 L9.85714286,3.94285714 C9.81428571,3.94285714 9.72857143,3.85714286 9.72857143,3.51428571 C9.72857143,3.51428571 9.68571429,2.65714286 9.9,2.01428571 C9.9,1.97142857 10.2,1.15714286 11.0571429,1.07142857 C11.0571429,1.07142857 11.7,1.02857143 12,1.07142857 C12.0857143,1.07142857 12.6,1.11428571 12.8142857,0.9 L12.8142857,0.9 C12.8571429,0.857142857 12.9857143,0.814285714 13.0285714,0.857142857 L13.0285714,0.857142857 C13.0285714,0.857142857 13.1142857,0.942857143 13.1142857,1.28571429 L13.1142857,1.28571429 C13.0714286,1.28571429 13.0714286,1.54285714 13.0714286,1.84285714 L13.0714286,1.84285714 L13.0714286,1.84285714 Z" id="Shape"></path>
                    </g>
                </g>
            </g>
        </g>
    </g>
</svg>