<?xml version="1.0" encoding="UTF-8" standalone="no"?>
<svg width="68px" height="23px" viewBox="0 0 68 23" version="1.1" xmlns="http://www.w3.org/2000/svg" xmlns:xlink="http://www.w3.org/1999/xlink" xmlns:sketch="http://www.bohemiancoding.com/sketch/ns">
    <!-- Generator: Sketch 3.3.3 (12081) - http://www.bohemiancoding.com/sketch -->
    <title>Shape</title>
    <desc>Created with Sketch.</desc>
    <defs></defs>
    <g id="Page-1" stroke="none" stroke-width="1" fill="none" fill-rule="evenodd" sketch:type="MSPage">
        <g id="twitch" sketch:type="MSLayerGroup" fill="#808080">
            <g id="Page-1" sketch:type="MSShapeGroup">
                <g id="twitch">
                    <path d="M67.4,7.8 L67.4,19.2 L61.6,23 L57.8,23 L57.8,21.1 L55.1,23 L51.7,23 L51.7,21.1 L49.8,23 L43.7,23 L41.8,21.1 L41.4,23 L36,23 L33.8,21.1 L33.8,23 L27.8,23 L27.6,21.1 L25.9,23 L16.7,23 L14.8,22.2 L14.8,23 L9.9,23 L4.2,19.6 L0.8,16.2 L0.8,0.9 L8,0.9 L11.4,4.3 L27,4.3 L27,0.9 L40,0.9 L40,4.3 L43.4,4.3 L43.4,6.2 L45.3,4.3 L49.1,4.3 L52.5,0.9 L59.7,0.9 L59.7,4.3 L64,4.3 L67.4,7.8 L67.4,7.8 Z M9.8,5.9 L6.3,5.9 L6.3,2.5 L2.2,2.5 L2.2,15.5 L4.9,18.2 L9.9,18.2 L9.9,14 L6.4,14 L6.4,10.2 L9.8,10.2 L9.8,5.9 L9.8,5.9 Z M26.9,5.9 L22.7,5.9 L22.7,13.9 L21.2,13.9 L21.2,5.9 L17,5.9 L17,13.9 L15.5,13.9 L15.5,5.9 L11.3,5.9 L11.3,18.1 L24.3,18.1 L27,15.4 L27,5.9 L26.9,5.9 L26.9,5.9 Z M32.7,5.9 L28.5,5.9 L28.5,18.1 L32.7,18.1 L32.7,5.9 L32.7,5.9 Z M32.7,2.5 L28.5,2.5 L28.5,4.4 L32.7,4.4 L32.7,2.5 L32.7,2.5 Z M41.8,5.9 L38.4,5.9 L38.4,2.5 L34.2,2.5 L34.2,15.5 L36.9,18.2 L41.9,18.2 L41.9,14 L38.5,14 L38.5,10.2 L41.9,10.2 L41.9,5.9 L41.8,5.9 L41.8,5.9 Z M52.5,5.9 L46,5.9 L43.3,8.6 L43.3,15.5 L46,18.2 L52.5,18.2 L52.5,14 L47.6,14 L47.6,10.2 L52.6,10.2 L52.5,5.9 L52.5,5.9 Z M65.8,8.6 L63.1,5.9 L58.1,5.9 L58.1,2.5 L54,2.5 L54,18.1 L58.2,18.1 L58.2,10.1 L61.6,10.1 L61.6,18.1 L65.8,18.1 L65.8,8.6 L65.8,8.6 Z" id="Shape"></path>
                </g>
            </g>
        </g>
    </g>
</svg>