<?xml version="1.0" encoding="utf-8"?>
<!-- Generator: Adobe Illustrator 18.1.1, SVG Export Plug-In . SVG Version: 6.00 Build 0)  -->
<!DOCTYPE svg PUBLIC "-//W3C//DTD SVG 1.1//EN" "http://www.w3.org/Graphics/SVG/1.1/DTD/svg11.dtd">
<svg version="1.1" id="Layer_1" xmlns="http://www.w3.org/2000/svg" xmlns:xlink="http://www.w3.org/1999/xlink" x="0px" y="0px"
	 viewBox="0 0 72 72" enable-background="new 0 0 72 72" xml:space="preserve">
<path fill="#119BD5" d="M69.4,31.8v11.4L63.6,47h-3.8v-1.9L57.1,47h-3.4v-1.9L51.8,47h-6.1l-1.9-1.9L43.4,47h-5.4l-2.2-1.9L35.8,47
	h-6l-0.2-1.9L27.9,47h-9.2l-1.9-0.8V47h-4.9l-5.7-3.4l-3.4-3.4V24.9h7.2l3.4,3.4h15.6v-3.4h13v3.4h3.4v1.9l1.9-1.9h3.8l3.4-3.4h7.2
	v3.4H66L69.4,31.8z M11.8,29.9H8.3v-3.4H4.2v13l2.7,2.7h5v-4.2H8.4v-3.8h3.4C11.8,34.1,11.8,29.9,11.8,29.9z M28.9,29.9h-4.2v8h-1.5
	v-8H19v8h-1.5v-8h-4.2v12.2h13l2.7-2.7V29.9z M34.7,29.9h-4.2v12.2h4.2V29.9z M34.7,26.5h-4.2v1.9h4.2V26.5z M43.8,29.9h-3.4v-3.4
	h-4.2v13l2.7,2.7h5v-4.2h-3.4v-3.8h3.4V29.9L43.8,29.9z M54.5,29.9H48l-2.7,2.7v6.9l2.7,2.7h6.5v-4.2h-4.9v-3.8h5L54.5,29.9
	L54.5,29.9z M67.8,32.6l-2.7-2.7h-5v-3.4H56v15.6h4.2v-8h3.4v8h4.2V32.6z"/>
</svg>
