<?xml version="1.0" encoding="utf-8"?>
<!-- Generator: Adobe Illustrator 18.1.1, SVG Export Plug-In . SVG Version: 6.00 Build 0)  -->
<!DOCTYPE svg PUBLIC "-//W3C//DTD SVG 1.1//EN" "http://www.w3.org/Graphics/SVG/1.1/DTD/svg11.dtd">
<svg version="1.1" id="Layer_1" xmlns="http://www.w3.org/2000/svg" xmlns:xlink="http://www.w3.org/1999/xlink" x="0px" y="0px"
	 viewBox="0 0 72 72" enable-background="new 0 0 72 72" xml:space="preserve">
<g>
	<path fill="#333333" d="M35.7,4.4c17.5,0,31.7,14.2,31.7,31.7S53.2,67.8,35.7,67.8S4,53.6,4,36.1S18.2,4.4,35.7,4.4 M35.7,0.4
		C16,0.4,0,16.4,0,36.1s16,35.7,35.7,35.7s35.7-16,35.7-35.7S55.4,0.4,35.7,0.4L35.7,0.4z"/>
</g>
<polyline fill="none" stroke="#333333" stroke-width="4" stroke-miterlimit="10" points="24.3,49.5 12.3,37.5 24.3,25.6 "/>
<polyline fill="none" stroke="#333333" stroke-width="4" stroke-miterlimit="10" points="46.6,25.6 58.6,37.5 46.6,49.5 "/>
<line fill="none" stroke="#333333" stroke-width="4" stroke-miterlimit="10" x1="39.8" y1="21.5" x2="31.1" y2="52.3"/>
</svg>
